<?xml version="1.0" encoding="UTF-8" ?>
<!DOCTYPE svg PUBLIC "-//W3C//DTD SVG 1.1//EN" "http://www.w3.org/Graphics/SVG/1.1/DTD/svg11.dtd">
<svg width="499pt" height="451pt" viewBox="0 0 499 451" version="1.1" xmlns="http://www.w3.org/2000/svg">
<path fill="#ffffff" opacity="1.00" d=" M 0.00 0.00 L 499.00 0.00 L 499.00 451.00 L 282.36 451.00 C 280.22 447.23 279.14 442.93 276.61 439.38 C 271.41 431.34 268.12 422.28 264.58 413.43 C 260.40 402.33 257.96 390.67 255.98 379.01 C 252.85 367.11 251.64 354.71 250.47 342.43 C 249.89 339.33 249.81 336.18 249.75 333.04 C 253.69 331.53 257.92 331.89 262.05 331.89 C 265.44 331.94 268.74 331.02 272.09 330.65 C 272.25 335.85 271.67 341.13 272.81 346.26 C 273.64 351.43 272.72 356.67 273.10 361.87 C 273.69 366.25 274.96 370.55 274.99 375.00 C 275.14 381.40 277.28 387.61 276.99 394.03 C 276.40 397.77 279.70 400.34 280.73 403.68 C 282.04 403.88 283.35 404.08 284.67 404.28 C 283.64 399.78 286.43 395.59 285.89 391.05 C 285.46 379.37 287.08 367.56 284.95 356.01 C 284.79 347.29 284.94 338.57 284.87 329.85 C 290.53 330.14 296.07 328.81 301.71 328.60 C 306.83 327.45 312.14 328.35 317.26 327.21 C 322.23 326.57 327.27 326.95 332.27 326.89 C 331.46 331.86 331.02 336.85 330.88 341.87 C 329.62 348.84 330.33 355.94 330.08 362.98 C 329.96 366.11 327.95 368.86 328.06 372.02 C 328.16 378.97 327.73 385.92 328.12 392.86 C 329.06 398.49 329.60 404.18 330.16 409.86 C 330.87 413.83 332.25 418.19 336.06 420.22 C 338.40 419.27 340.52 417.85 342.85 416.86 C 339.92 407.39 344.02 397.69 342.72 388.12 C 342.60 386.78 342.29 385.46 342.29 384.12 C 343.70 378.53 345.30 372.86 345.03 367.04 C 345.11 362.22 344.63 357.34 345.52 352.57 C 346.42 347.51 345.38 342.34 346.19 337.27 C 347.03 332.98 346.66 328.52 348.07 324.34 C 350.27 323.68 352.38 322.76 354.42 321.70 C 353.86 320.81 353.28 319.94 352.66 319.10 C 349.37 319.36 346.38 321.25 343.01 321.07 C 336.25 320.78 329.78 323.46 323.02 323.12 C 318.64 322.82 314.34 323.56 310.02 324.05 C 299.06 324.02 288.25 326.93 277.27 326.01 C 275.73 324.71 274.32 323.21 272.35 322.57 C 271.74 324.00 271.18 325.45 270.64 326.92 C 263.85 327.96 257.03 328.35 250.16 328.14 C 248.67 323.35 248.47 318.26 249.10 313.31 C 249.40 313.01 249.99 312.40 250.28 312.10 C 257.58 311.31 265.02 312.67 272.27 311.22 C 275.89 310.69 279.62 311.09 283.16 309.97 C 286.79 309.96 290.28 314.42 293.80 311.80 C 300.63 308.36 308.45 308.98 315.84 308.74 C 321.51 307.58 327.30 307.87 333.05 307.87 C 335.32 307.85 337.59 308.31 339.68 309.22 C 342.38 310.96 342.86 314.41 344.12 317.13 C 346.30 315.78 348.65 314.79 351.20 315.82 C 352.46 304.40 357.28 293.88 359.66 282.71 C 360.23 278.48 362.64 274.84 363.72 270.74 C 365.96 265.64 366.30 259.90 368.90 254.94 C 370.67 250.67 371.17 246.02 372.59 241.64 C 374.31 236.47 375.54 231.16 376.87 225.89 C 377.63 223.38 375.40 221.12 372.95 221.09 C 361.91 219.41 350.78 218.25 339.78 216.25 C 332.56 214.99 325.45 212.62 318.03 213.06 C 314.96 220.73 312.70 228.76 312.12 237.02 C 311.92 241.09 310.16 244.91 310.14 249.00 C 310.13 256.46 307.90 263.68 307.18 271.07 C 306.73 282.44 304.76 293.68 302.85 304.88 C 298.31 305.88 293.77 307.09 289.13 307.51 C 278.45 304.05 271.10 294.62 260.88 290.21 C 257.87 288.81 254.51 289.16 251.30 289.04 C 247.56 292.33 246.66 297.42 245.78 302.09 C 240.22 302.59 234.78 301.28 229.29 300.72 C 223.27 299.57 217.11 300.26 211.02 300.15 C 210.51 291.28 212.20 282.14 209.36 273.54 C 208.46 268.75 206.39 264.32 203.70 260.29 C 201.79 256.31 197.85 254.10 194.70 251.25 C 193.68 249.97 192.00 250.26 190.57 250.10 C 190.30 251.52 190.09 252.94 189.93 254.37 C 190.51 253.14 191.06 251.90 191.58 250.65 C 203.35 255.81 208.52 269.05 210.02 281.04 C 210.24 287.64 209.93 294.25 210.15 300.85 C 206.99 302.00 203.59 302.80 200.83 304.79 C 198.69 307.08 197.16 309.84 195.43 312.43 C 192.59 316.81 192.22 322.17 190.14 326.87 C 186.88 321.63 184.73 315.79 181.55 310.52 C 178.94 307.31 176.25 304.15 173.67 300.92 C 174.61 298.79 175.65 296.69 176.31 294.44 C 174.93 296.23 173.85 298.21 172.68 300.13 C 167.48 296.23 162.61 291.91 157.50 287.89 C 161.65 280.11 166.57 272.78 171.25 265.33 C 174.77 257.63 179.59 250.67 184.07 243.53 C 179.19 248.39 176.19 254.76 172.75 260.64 C 170.00 266.94 165.51 272.22 162.21 278.21 C 160.17 281.29 158.92 285.38 155.12 286.73 C 155.54 288.84 158.18 289.18 159.61 290.47 C 163.81 293.96 167.98 297.50 172.36 300.77 C 170.41 303.92 168.24 306.98 167.01 310.51 C 169.37 307.72 170.89 304.37 172.99 301.39 C 176.45 305.80 180.85 309.61 183.01 314.89 C 185.19 319.67 187.99 324.16 189.90 329.05 C 189.44 332.83 188.46 336.54 187.21 340.14 C 185.10 346.36 185.98 353.25 183.39 359.35 C 180.84 364.87 182.54 371.05 181.86 376.88 C 180.51 385.14 180.55 393.64 182.22 401.86 C 182.33 404.25 184.49 405.95 184.72 408.30 C 184.71 415.19 187.99 422.05 193.09 426.65 C 193.79 425.53 195.37 424.60 195.05 423.10 C 193.70 419.61 190.63 417.05 189.60 413.42 C 188.57 410.61 189.50 407.46 188.30 404.70 C 186.28 398.81 184.10 392.58 185.27 386.27 C 187.56 376.96 183.57 366.53 188.90 357.96 C 192.93 354.59 192.69 348.80 192.90 344.01 C 191.49 336.59 194.33 329.31 196.11 322.19 C 197.24 317.28 200.01 312.97 203.00 308.99 C 204.54 307.02 206.87 305.86 209.32 305.55 C 208.72 308.59 207.61 311.51 207.01 314.56 C 209.46 311.50 209.06 307.19 211.23 304.09 C 221.86 302.67 232.25 306.07 242.85 306.00 C 244.51 305.84 244.76 308.04 245.59 309.03 C 241.62 309.14 237.61 308.90 233.71 309.78 C 226.54 311.00 218.46 311.84 213.14 317.38 C 212.59 319.46 214.72 320.80 215.56 322.47 C 217.06 325.29 218.55 328.12 220.47 330.70 C 222.87 331.16 225.26 331.71 227.69 332.04 C 227.09 334.83 226.92 337.72 227.50 340.53 C 228.60 345.37 227.52 350.43 228.83 355.24 C 230.65 363.06 230.89 371.34 234.24 378.74 C 235.55 382.74 236.52 386.86 238.26 390.72 C 240.70 396.41 242.53 402.43 246.00 407.62 C 249.44 403.71 248.68 398.02 247.73 393.31 C 246.67 389.32 247.19 385.18 246.89 381.13 C 246.04 375.70 244.98 370.30 244.16 364.87 C 244.11 354.08 241.18 343.50 241.87 332.68 C 243.28 332.77 244.70 332.86 246.12 332.95 C 245.69 340.74 247.23 348.42 247.84 356.16 C 248.15 366.36 251.22 376.18 252.88 386.17 C 254.27 389.19 252.67 392.43 253.45 395.53 C 254.68 400.66 255.70 405.85 257.45 410.84 C 257.70 410.32 258.20 409.28 258.45 408.77 C 261.13 416.34 264.56 423.66 266.49 431.49 C 269.68 438.29 273.72 444.69 277.79 451.00 L 138.68 451.00 C 138.85 445.64 140.54 440.38 139.90 434.99 C 138.95 428.33 138.25 421.56 135.87 415.21 C 134.03 407.90 130.94 400.95 129.56 393.53 C 125.14 386.16 121.71 378.22 117.00 371.01 C 113.80 367.16 112.03 362.19 107.81 359.23 C 102.66 355.33 100.83 348.38 94.98 345.25 C 110.44 324.63 125.93 304.03 141.37 283.39 C 156.99 263.28 172.02 242.70 187.38 222.39 C 189.22 220.12 190.53 217.26 193.05 215.67 C 196.87 217.23 200.30 219.67 204.41 220.57 C 209.57 221.61 213.16 226.63 218.70 226.11 C 219.88 224.46 221.24 222.86 221.85 220.88 C 221.75 219.34 221.16 217.87 220.60 216.45 C 216.15 210.73 209.57 207.28 204.55 202.16 C 203.63 202.38 202.72 202.61 201.80 202.85 C 203.31 201.21 204.81 199.49 205.36 197.27 C 202.22 196.46 199.07 195.49 196.34 193.70 C 194.29 192.04 193.24 189.46 191.11 187.90 C 171.80 174.58 152.71 160.94 133.40 147.62 C 130.88 145.68 128.86 143.02 125.76 141.93 C 119.07 137.86 112.87 133.03 106.38 128.65 C 73.67 105.69 40.87 82.86 8.16 59.88 C 5.32 58.00 2.40 56.18 0.00 53.73 L 0.00 0.00 M 257.02 19.06 C 251.08 22.57 246.70 28.04 241.87 32.86 C 239.73 36.32 237.81 39.98 234.85 42.86 C 231.59 47.69 230.18 53.46 227.76 58.71 C 226.18 63.96 226.19 69.48 225.96 74.91 C 223.53 83.20 227.28 91.45 227.28 99.78 C 229.29 105.00 231.12 110.31 232.25 115.80 C 234.75 121.79 237.02 127.96 240.64 133.39 C 243.31 137.81 244.96 142.79 248.03 146.97 C 251.71 152.04 254.47 157.73 258.31 162.68 C 262.35 166.98 267.01 170.73 270.35 175.65 C 276.16 181.04 282.46 186.44 290.20 188.77 C 292.56 188.98 294.93 188.84 297.30 188.87 C 290.67 197.20 285.93 206.78 281.49 216.40 C 279.00 224.13 276.13 231.72 273.46 239.39 C 272.40 246.64 273.57 253.95 274.97 261.08 C 275.08 266.35 275.14 271.80 277.37 276.69 C 279.74 283.39 281.42 290.52 285.62 296.37 C 287.32 299.12 288.39 302.22 290.25 304.88 C 292.39 305.55 293.30 302.89 292.86 301.21 C 291.44 296.95 288.77 293.30 286.36 289.56 C 285.69 286.79 284.44 284.23 283.38 281.60 C 281.81 275.41 278.63 269.56 278.87 263.02 C 279.14 257.58 277.28 252.37 276.82 247.02 C 276.31 241.89 278.72 237.19 280.53 232.56 C 281.76 229.09 282.91 225.60 284.02 222.10 C 285.62 216.75 288.59 211.98 290.94 206.97 C 294.37 199.58 299.54 193.27 303.97 186.50 C 304.19 189.33 304.16 192.18 304.08 195.02 C 305.53 195.53 307.03 195.83 308.55 196.08 C 309.46 195.00 310.38 193.94 311.31 192.88 C 315.45 195.81 319.61 198.78 324.43 200.55 C 333.12 202.19 341.62 204.67 350.21 206.75 C 356.10 207.02 362.01 206.91 367.90 206.82 C 374.83 205.61 381.79 204.50 388.56 202.55 C 394.26 200.33 399.06 196.45 404.14 193.14 C 407.21 190.22 409.95 186.98 413.14 184.16 C 415.92 179.49 418.15 174.47 420.58 169.61 C 422.63 165.58 421.33 160.96 422.71 156.76 C 423.02 151.27 423.03 145.73 422.67 140.25 C 421.44 136.51 422.37 132.51 421.17 128.78 C 419.68 122.27 416.83 116.19 413.55 110.41 C 411.73 107.25 408.74 104.79 407.73 101.18 C 406.44 98.32 406.08 94.64 403.13 92.90 C 399.48 91.31 396.53 88.55 392.91 86.90 C 391.98 87.65 391.06 88.42 390.15 89.18 C 379.05 83.38 366.26 83.23 354.20 81.19 C 352.68 82.02 353.38 83.63 353.78 84.90 C 350.97 85.47 348.30 86.55 345.54 87.27 C 347.26 84.76 349.56 82.76 352.10 81.11 C 357.12 76.38 362.91 72.58 368.37 68.37 C 375.50 63.05 383.78 59.66 391.67 55.64 C 397.30 53.69 402.92 51.68 408.42 49.35 C 416.22 47.50 423.83 44.93 431.78 43.80 C 432.57 42.16 433.24 40.47 431.92 38.90 C 428.56 40.29 425.01 41.02 421.44 41.55 C 415.07 43.66 408.29 44.39 402.16 47.19 C 397.02 49.61 391.33 50.60 386.35 53.36 C 380.07 56.74 373.31 59.29 367.61 63.66 C 361.55 68.25 355.23 72.51 349.62 77.65 C 344.38 82.07 338.64 85.99 334.49 91.55 C 329.36 94.21 324.62 97.58 319.92 100.93 C 313.70 109.01 306.34 116.22 300.84 124.83 C 296.95 133.17 295.39 142.31 293.29 151.21 C 292.16 159.63 295.29 167.73 297.24 175.78 C 298.02 178.99 303.31 181.77 299.95 185.08 C 297.65 184.02 295.38 184.79 293.07 185.26 C 286.08 183.31 280.30 178.73 274.72 174.30 C 271.25 169.18 266.37 165.30 262.21 160.78 C 258.37 155.81 255.63 150.12 251.93 145.05 C 248.66 140.70 247.04 135.41 244.13 130.86 C 240.83 125.80 238.87 120.05 236.36 114.61 C 235.04 108.88 233.40 103.23 231.05 97.85 C 230.85 92.21 229.72 86.64 228.98 81.08 C 230.69 73.91 229.14 66.14 232.22 59.24 C 234.65 53.56 236.11 47.10 240.67 42.65 C 243.43 39.62 244.59 35.43 247.69 32.67 C 251.09 29.38 254.14 25.62 258.39 23.37 C 260.98 22.24 263.34 18.63 260.23 16.69 C 259.17 17.49 258.13 18.33 257.02 19.06 M 293.58 45.97 C 297.11 46.34 300.44 44.68 303.97 44.87 C 307.35 44.70 310.71 45.08 314.01 45.80 C 318.66 45.91 323.50 46.06 327.70 48.31 C 330.67 49.98 333.91 51.03 337.04 52.33 C 337.37 54.77 334.00 55.07 332.79 56.75 C 328.53 61.40 323.26 65.31 319.78 70.57 C 317.23 69.66 315.15 67.75 312.49 67.16 C 312.34 66.23 312.19 65.29 312.04 64.36 C 316.50 60.61 319.92 54.87 325.98 53.62 L 325.73 52.66 C 319.50 54.48 315.76 60.19 311.15 64.33 C 306.55 61.23 301.60 58.70 296.56 56.41 C 288.73 53.34 280.24 54.07 272.02 54.05 L 272.04 54.97 C 280.71 54.95 289.82 54.07 297.89 57.91 C 302.09 60.16 306.84 61.77 310.31 65.11 C 309.08 68.86 305.76 71.41 303.36 74.41 C 301.80 78.14 299.76 81.83 299.89 86.00 L 300.87 85.99 C 300.91 84.56 300.97 83.14 301.05 81.72 C 303.31 82.64 305.53 83.70 307.94 84.22 C 303.86 91.04 297.54 96.76 296.03 104.88 C 294.56 108.98 294.66 114.14 297.82 117.41 C 297.28 115.55 296.60 113.75 296.10 111.89 C 295.45 108.96 296.69 106.10 297.34 103.29 C 299.22 96.00 304.86 90.70 308.78 84.52 C 311.82 86.15 314.07 88.85 317.04 90.57 C 312.43 94.54 310.62 100.51 307.64 105.59 C 305.66 108.19 304.53 111.31 303.87 114.48 C 305.75 112.53 305.80 109.63 307.30 107.46 C 310.91 102.41 312.46 95.98 317.02 91.60 C 317.43 91.56 318.26 91.49 318.67 91.45 C 318.43 90.79 318.20 90.14 317.96 89.49 C 321.58 85.24 325.13 80.95 329.28 77.18 C 332.54 74.40 334.63 70.60 337.74 67.68 C 340.65 64.60 344.80 63.06 347.63 59.87 C 350.23 62.33 351.56 66.21 355.35 67.14 C 352.73 64.89 350.56 62.24 348.49 59.50 C 345.34 56.99 341.67 55.21 338.73 52.44 C 342.00 50.31 345.06 47.88 348.40 45.86 C 344.25 46.41 341.58 50.07 338.15 52.10 C 332.30 50.01 327.08 46.26 320.88 45.27 C 317.50 44.90 314.03 45.28 310.73 44.28 C 305.02 43.63 298.95 43.84 293.58 45.97 M 359.83 50.79 C 356.35 53.21 351.95 54.70 349.52 58.37 C 353.60 55.42 357.92 52.85 362.26 50.30 C 365.65 48.25 369.98 49.07 373.38 47.01 C 368.71 47.38 363.75 47.98 359.83 50.79 M 207.22 67.24 C 204.45 75.65 206.93 84.49 208.38 92.90 C 202.06 101.47 193.75 108.24 186.59 116.07 C 186.23 115.78 185.51 115.20 185.15 114.91 C 185.07 114.18 184.91 112.72 184.84 111.99 L 183.81 112.11 C 184.10 113.98 185.27 115.82 184.89 117.72 C 179.35 121.88 173.93 126.21 168.34 130.31 C 164.10 134.59 159.44 138.52 155.69 143.24 C 161.25 139.38 164.93 133.35 170.57 129.55 C 175.37 126.13 179.81 122.24 184.65 118.87 C 185.41 120.89 186.75 122.72 187.14 124.87 C 186.40 126.06 185.51 127.16 184.79 128.37 C 185.79 127.59 186.74 126.77 187.66 125.90 C 189.18 127.68 190.33 129.79 192.13 131.33 C 191.45 129.02 189.25 127.40 188.81 125.08 C 191.53 121.20 195.45 118.24 199.33 115.55 C 200.98 118.67 202.18 122.27 205.07 124.53 C 203.26 121.34 201.49 118.13 199.78 114.88 C 203.13 110.85 207.80 108.30 211.31 104.43 C 212.16 106.74 212.77 109.13 213.75 111.39 C 217.70 119.35 220.65 127.88 225.81 135.20 C 230.27 141.89 233.85 149.27 239.16 155.33 C 231.67 142.20 222.08 130.14 216.83 115.80 C 218.09 113.66 219.74 111.79 221.09 109.71 C 219.04 111.03 217.59 113.03 216.32 115.07 C 214.72 111.23 212.66 107.39 212.11 103.26 C 213.40 101.98 214.92 100.95 216.26 99.73 C 214.41 100.08 213.07 101.42 211.59 102.46 C 210.46 99.49 209.80 96.38 208.97 93.32 C 211.58 91.14 213.68 88.38 216.44 86.39 C 217.80 85.93 219.25 85.55 219.35 83.84 C 215.09 85.42 212.50 89.31 209.18 92.17 C 207.83 85.56 206.43 78.80 207.01 72.02 C 208.06 67.04 209.26 61.93 212.00 57.57 C 208.77 59.75 208.37 63.83 207.22 67.24 M 239.65 86.15 C 243.83 85.19 247.23 82.17 251.49 81.33 C 256.38 80.44 260.86 77.59 265.94 77.87 C 273.65 77.97 281.35 77.97 289.06 77.87 C 293.07 77.66 296.35 80.47 300.22 81.10 C 296.49 78.43 291.71 76.67 287.02 77.00 C 278.76 77.25 270.47 76.76 262.22 77.20 C 254.59 79.87 246.22 81.10 239.65 86.15 M 40.64 79.84 C 41.94 81.71 44.12 82.54 45.91 83.84 C 58.42 92.44 71.36 100.44 83.48 109.60 C 90.56 114.40 97.32 119.65 104.49 124.31 C 107.85 126.58 110.69 129.66 114.48 131.24 C 111.73 128.41 108.25 126.41 105.19 123.93 C 93.49 115.99 82.17 107.51 70.59 99.41 C 60.50 93.06 50.97 85.79 40.64 79.84 M 118.75 84.24 C 119.51 83.42 120.26 82.59 120.99 81.75 C 124.72 81.39 128.14 82.68 131.28 84.55 C 139.64 88.25 145.06 95.96 151.10 102.39 C 148.73 97.46 144.38 94.04 140.69 90.16 C 136.83 86.05 131.54 83.78 126.56 81.39 C 123.70 80.72 118.83 80.00 118.75 84.24 M 193.80 95.28 C 194.07 98.76 194.53 102.21 195.19 105.65 L 196.18 105.38 C 194.79 100.97 195.16 96.31 193.99 91.87 C 193.62 89.79 194.61 87.81 194.95 85.80 C 192.32 88.34 192.97 92.10 193.80 95.28 M 206.09 125.18 C 204.27 126.83 202.12 128.12 200.57 130.06 C 202.34 129.13 203.99 128.00 205.70 126.97 C 208.63 129.88 211.23 133.04 213.29 136.64 C 212.66 132.27 208.97 129.39 205.93 126.59 C 208.97 123.23 212.72 120.47 215.22 116.66 C 211.83 119.11 209.33 122.56 206.09 125.18 M 199.27 131.16 C 199.89 131.80 199.89 131.80 199.27 131.16 M 213.63 136.74 C 216.87 138.57 218.25 142.20 221.16 144.35 C 219.15 141.48 217.53 137.27 213.63 136.74 M 239.65 155.41 C 239.80 155.93 240.11 156.96 240.26 157.48 C 243.62 161.38 246.30 165.95 250.19 169.32 C 247.11 164.37 243.09 160.10 239.65 155.41 M 216.52 227.50 C 215.17 228.04 215.85 231.08 217.19 229.39 C 218.16 228.65 218.09 225.85 216.52 227.50 M 218.74 228.43 C 220.18 233.53 222.55 238.56 222.05 244.00 C 221.47 248.37 223.56 252.53 223.00 256.87 C 221.27 265.14 220.98 273.59 219.88 281.95 L 220.80 282.03 C 221.64 274.46 222.14 266.88 223.40 259.36 C 224.05 256.78 224.28 254.05 223.55 251.46 C 222.22 246.91 223.68 242.06 222.36 237.52 C 221.49 234.39 220.96 230.94 218.74 228.43 M 191.48 266.31 C 189.30 270.73 185.73 274.38 184.19 279.13 C 183.20 281.96 181.77 284.62 180.40 287.29 C 179.19 289.66 177.02 291.64 176.84 294.45 C 179.91 289.87 182.79 285.09 184.77 279.92 C 186.49 274.61 190.25 270.35 193.17 265.68 C 192.75 265.84 191.90 266.15 191.48 266.31 M 142.09 314.02 C 139.09 320.14 135.65 326.07 133.15 332.42 C 137.73 326.22 139.96 318.61 144.17 312.16 C 147.45 306.63 149.89 300.66 153.00 295.04 C 154.10 293.05 155.92 291.27 156.06 288.90 C 150.24 296.59 147.36 305.99 142.09 314.02 M 138.72 323.78 C 139.75 325.50 141.26 326.87 142.84 328.10 C 146.56 330.67 149.60 334.05 152.69 337.30 C 157.07 343.02 162.24 348.34 165.07 355.07 C 169.28 364.99 171.98 375.90 170.79 386.73 C 169.76 389.67 170.07 392.79 169.92 395.85 C 168.50 399.68 166.75 403.43 165.89 407.46 C 168.20 404.76 168.43 401.02 170.00 397.92 C 172.11 394.47 170.54 390.40 171.82 386.78 C 172.82 379.26 170.86 371.84 169.57 364.48 C 167.66 360.03 166.48 355.27 163.95 351.09 C 157.16 340.65 148.88 331.08 138.72 323.78 Z" />
<path fill="#080808" opacity="1.00" d=" M 257.02 19.06 C 258.13 18.33 259.17 17.49 260.23 16.69 C 263.34 18.63 260.98 22.24 258.39 23.37 C 254.14 25.62 251.09 29.38 247.69 32.67 C 244.59 35.43 243.43 39.62 240.67 42.65 C 236.11 47.10 234.65 53.56 232.22 59.24 C 229.14 66.14 230.69 73.91 228.98 81.08 C 229.72 86.64 230.85 92.21 231.05 97.85 C 233.40 103.23 235.04 108.88 236.36 114.61 C 238.87 120.05 240.83 125.80 244.13 130.86 C 247.04 135.41 248.66 140.70 251.93 145.05 C 255.63 150.12 258.37 155.81 262.21 160.78 C 266.37 165.30 271.25 169.18 274.72 174.30 C 280.30 178.73 286.08 183.31 293.07 185.26 C 295.38 184.79 297.65 184.02 299.95 185.08 C 303.31 181.77 298.02 178.99 297.24 175.78 C 295.29 167.73 292.16 159.63 293.29 151.21 C 295.39 142.31 296.95 133.17 300.84 124.83 C 306.34 116.22 313.70 109.01 319.92 100.93 C 324.62 97.58 329.36 94.21 334.49 91.55 C 338.64 85.99 344.38 82.07 349.62 77.65 C 355.23 72.51 361.55 68.25 367.61 63.66 C 373.31 59.29 380.07 56.74 386.35 53.36 C 391.33 50.60 397.02 49.61 402.16 47.19 C 408.29 44.39 415.07 43.66 421.44 41.55 C 425.01 41.02 428.56 40.29 431.92 38.90 C 433.24 40.47 432.57 42.16 431.78 43.80 C 423.83 44.93 416.22 47.50 408.42 49.35 C 402.92 51.68 397.30 53.69 391.67 55.64 C 383.78 59.66 375.50 63.05 368.37 68.37 C 362.91 72.58 357.12 76.38 352.10 81.11 C 349.56 82.76 347.26 84.76 345.54 87.27 C 348.30 86.55 350.97 85.47 353.78 84.90 C 353.38 83.63 352.68 82.02 354.20 81.19 C 366.26 83.23 379.05 83.38 390.15 89.18 C 391.06 88.42 391.98 87.65 392.91 86.90 C 396.53 88.55 399.48 91.31 403.13 92.90 C 406.08 94.64 406.44 98.32 407.73 101.18 C 408.74 104.79 411.73 107.25 413.55 110.41 C 416.83 116.19 419.68 122.27 421.17 128.78 C 422.37 132.51 421.44 136.51 422.67 140.25 C 423.03 145.73 423.02 151.27 422.71 156.76 C 421.33 160.96 422.63 165.58 420.58 169.61 C 418.15 174.47 415.92 179.49 413.14 184.16 C 409.95 186.98 407.21 190.22 404.14 193.14 C 399.06 196.45 394.26 200.33 388.56 202.55 C 381.79 204.50 374.83 205.61 367.90 206.82 C 362.01 206.91 356.10 207.02 350.21 206.75 C 341.62 204.67 333.12 202.19 324.43 200.55 C 319.61 198.78 315.45 195.81 311.31 192.88 C 310.38 193.94 309.46 195.00 308.55 196.08 C 307.03 195.83 305.53 195.53 304.08 195.02 C 304.16 192.18 304.19 189.33 303.97 186.50 C 299.54 193.27 294.37 199.58 290.94 206.97 C 288.59 211.98 285.62 216.75 284.02 222.10 C 282.91 225.60 281.76 229.09 280.53 232.56 C 278.72 237.19 276.31 241.89 276.82 247.02 C 277.28 252.37 279.14 257.58 278.87 263.02 C 278.63 269.56 281.81 275.41 283.38 281.60 C 284.44 284.23 285.69 286.79 286.36 289.56 C 288.77 293.30 291.44 296.95 292.86 301.21 C 293.30 302.89 292.39 305.55 290.25 304.88 C 288.39 302.22 287.32 299.12 285.62 296.37 C 281.42 290.52 279.74 283.39 277.37 276.69 C 275.14 271.80 275.08 266.35 274.97 261.08 C 273.57 253.95 272.40 246.64 273.46 239.39 C 276.13 231.72 279.00 224.13 281.49 216.40 C 285.93 206.78 290.67 197.20 297.30 188.87 C 294.93 188.84 292.56 188.98 290.20 188.77 C 282.46 186.44 276.16 181.04 270.35 175.65 C 267.01 170.73 262.35 166.98 258.31 162.68 C 254.47 157.73 251.71 152.04 248.03 146.97 C 244.96 142.79 243.31 137.81 240.64 133.39 C 237.02 127.96 234.75 121.79 232.25 115.80 C 231.12 110.31 229.29 105.00 227.28 99.78 C 227.28 91.45 223.53 83.20 225.96 74.91 C 226.19 69.48 226.18 63.96 227.76 58.71 C 230.18 53.46 231.59 47.69 234.85 42.86 C 237.81 39.98 239.73 36.32 241.87 32.86 C 246.70 28.04 251.08 22.57 257.02 19.06 M 344.23 87.18 C 344.90 87.86 344.90 87.86 344.23 87.18 M 357.10 88.13 C 351.00 90.44 344.56 91.88 338.63 94.64 C 334.28 96.55 332.94 101.46 330.81 105.27 C 338.52 100.74 345.79 95.38 354.15 92.04 C 359.15 91.26 364.10 93.07 368.26 95.74 C 370.98 97.83 370.74 101.71 371.22 104.79 C 372.90 111.53 375.66 117.98 380.39 123.16 C 379.36 124.11 377.85 126.11 376.35 124.80 C 372.63 121.04 369.80 116.36 368.77 111.13 C 365.24 110.02 362.53 107.06 359.17 105.89 C 356.51 108.62 354.27 111.91 351.34 114.46 C 349.94 117.20 348.65 120.08 345.88 121.70 C 349.81 122.77 353.74 123.87 357.64 125.08 C 359.01 119.60 363.33 115.40 366.79 111.12 C 366.85 111.42 366.96 112.02 367.02 112.32 C 364.00 115.35 361.63 118.91 359.31 122.47 C 358.36 123.52 359.54 124.78 359.89 125.81 C 362.38 124.71 365.14 125.16 367.76 124.76 C 370.01 124.22 372.41 123.51 374.71 124.18 C 375.78 124.67 376.84 126.59 375.36 127.25 C 370.56 129.32 364.99 128.51 359.98 129.98 C 355.81 128.92 351.44 128.28 347.55 126.34 C 346.23 125.59 344.73 126.26 343.40 126.58 C 341.51 124.69 339.20 123.23 336.62 122.53 C 334.22 120.55 331.78 118.60 329.78 116.21 C 328.54 114.78 328.34 112.45 326.47 111.63 C 322.54 124.31 315.61 136.03 313.15 149.15 C 311.03 154.29 310.51 159.85 309.21 165.22 C 308.72 169.24 309.63 173.45 307.81 177.26 C 309.71 176.23 311.52 175.03 313.18 173.64 C 314.06 174.56 315.27 175.40 315.15 176.86 C 313.44 179.40 310.57 180.75 307.98 182.21 C 307.99 182.84 308.01 184.08 308.02 184.71 C 313.63 189.41 319.61 193.84 326.43 196.64 C 335.12 198.22 343.62 200.73 352.20 202.82 C 364.09 203.96 375.92 201.58 387.30 198.32 C 395.66 194.19 403.66 188.90 409.63 181.64 C 412.43 175.74 416.05 170.14 417.86 163.84 C 417.62 158.48 419.45 153.36 419.00 147.99 C 419.41 143.28 417.70 138.79 417.88 134.09 C 416.49 125.71 412.95 117.81 408.47 110.65 C 407.96 116.16 402.64 119.45 397.83 120.92 C 393.39 120.97 388.58 121.83 384.52 119.57 C 382.83 117.90 380.31 116.70 379.82 114.17 C 379.05 111.13 376.85 107.78 378.64 104.71 C 380.35 102.15 379.53 98.82 381.26 96.27 C 382.48 94.64 384.39 93.80 386.09 92.76 C 385.76 92.30 385.09 91.39 384.76 90.93 C 383.82 91.73 382.88 92.54 381.94 93.33 C 379.76 91.63 377.70 89.70 374.90 89.09 C 369.17 87.59 362.84 85.63 357.10 88.13 M 388.28 96.42 C 383.14 97.55 384.69 103.79 382.50 107.32 C 383.03 109.67 383.53 112.15 384.75 114.24 C 387.62 117.97 392.75 116.99 396.85 116.92 C 399.70 115.76 403.13 114.20 403.93 110.91 C 404.21 109.28 405.97 107.21 404.30 105.83 C 401.45 102.94 398.61 100.04 395.66 97.27 C 393.38 96.11 390.70 96.87 388.28 96.42 M 309.77 119.79 C 301.48 128.96 300.14 141.73 297.19 153.23 C 296.37 157.87 298.74 162.22 299.25 166.76 C 300.43 170.79 301.02 175.10 303.90 178.36 C 303.75 174.84 305.18 171.53 304.97 168.02 C 304.72 162.70 306.57 157.61 307.38 152.40 C 309.79 146.41 310.20 139.86 312.98 134.00 C 317.81 122.79 321.17 110.82 328.21 100.72 C 320.25 105.03 315.93 113.48 309.77 119.79 M 331.83 109.50 C 332.13 112.36 333.85 114.71 336.03 116.46 C 339.39 113.60 341.14 109.23 345.01 106.93 C 346.62 105.97 347.28 103.85 349.36 103.66 C 347.62 107.12 343.50 108.19 341.46 111.38 C 340.06 113.52 338.24 115.33 336.54 117.22 C 339.16 118.69 341.80 121.02 344.88 121.07 C 348.71 119.54 349.28 114.80 352.19 112.26 C 354.24 110.11 357.94 107.59 355.89 104.26 C 352.46 103.59 349.26 102.17 346.11 100.73 C 341.67 104.12 336.85 107.06 331.83 109.50 Z" />
<path fill="#080808" opacity="1.00" d=" M 293.58 45.97 C 298.95 43.84 305.02 43.63 310.73 44.28 C 314.03 45.28 317.50 44.90 320.88 45.27 C 327.08 46.26 332.30 50.01 338.15 52.10 C 341.58 50.07 344.25 46.41 348.40 45.86 C 345.06 47.88 342.00 50.31 338.73 52.44 C 341.67 55.21 345.34 56.99 348.49 59.50 C 350.56 62.24 352.73 64.89 355.35 67.14 C 351.56 66.21 350.23 62.33 347.63 59.87 C 344.80 63.06 340.65 64.60 337.74 67.68 C 334.63 70.60 332.54 74.40 329.28 77.18 C 325.13 80.95 321.58 85.24 317.96 89.49 C 318.20 90.14 318.43 90.79 318.67 91.45 C 318.26 91.49 317.43 91.56 317.02 91.60 C 312.46 95.98 310.91 102.41 307.30 107.46 C 305.80 109.63 305.75 112.53 303.87 114.48 C 304.53 111.31 305.66 108.19 307.64 105.59 C 310.62 100.51 312.43 94.54 317.04 90.57 C 314.07 88.85 311.82 86.15 308.78 84.52 C 304.86 90.70 299.22 96.00 297.34 103.29 C 296.69 106.10 295.45 108.96 296.10 111.89 C 296.60 113.75 297.28 115.55 297.82 117.41 C 294.66 114.14 294.56 108.98 296.03 104.88 C 297.54 96.76 303.86 91.04 307.94 84.22 C 305.53 83.70 303.31 82.64 301.05 81.72 C 300.97 83.14 300.91 84.56 300.87 85.99 L 299.89 86.00 C 299.76 81.83 301.80 78.14 303.36 74.41 C 305.76 71.41 309.08 68.86 310.31 65.11 C 306.84 61.77 302.09 60.16 297.89 57.91 C 289.82 54.07 280.71 54.95 272.04 54.97 L 272.02 54.05 C 280.24 54.07 288.73 53.34 296.56 56.41 C 301.60 58.70 306.55 61.23 311.15 64.33 C 315.76 60.19 319.50 54.48 325.73 52.66 L 325.98 53.62 C 319.92 54.87 316.50 60.61 312.04 64.36 C 312.19 65.29 312.34 66.23 312.49 67.16 C 312.15 66.90 311.47 66.37 311.13 66.10 C 307.96 71.11 302.64 74.74 301.71 80.97 C 305.37 82.77 309.67 83.31 312.69 86.27 C 314.25 87.35 316.24 90.58 318.16 88.35 C 321.20 84.07 324.88 80.34 328.72 76.77 C 331.92 73.91 334.04 70.11 337.17 67.19 C 340.18 64.15 344.11 62.28 347.23 59.37 C 344.17 57.60 341.44 55.20 338.17 53.86 C 330.98 58.17 326.12 65.24 319.78 70.57 C 323.26 65.31 328.53 61.40 332.79 56.75 C 334.00 55.07 337.37 54.77 337.04 52.33 C 333.91 51.03 330.67 49.98 327.70 48.31 C 323.50 46.06 318.66 45.91 314.01 45.80 C 310.71 45.08 307.35 44.70 303.97 44.87 C 300.44 44.68 297.11 46.34 293.58 45.97 Z" />
<path fill="#080808" opacity="1.00" d=" M 359.83 50.79 C 363.75 47.98 368.71 47.38 373.38 47.01 C 369.98 49.07 365.65 48.25 362.26 50.30 C 357.92 52.85 353.60 55.42 349.52 58.37 C 351.95 54.70 356.35 53.21 359.83 50.79 Z" />
<path fill="#080808" opacity="1.00" d=" M 0.00 53.73 C 2.40 56.18 5.32 58.00 8.16 59.88 C 40.87 82.86 73.67 105.69 106.38 128.65 C 112.87 133.03 119.07 137.86 125.76 141.93 C 128.86 143.02 130.88 145.68 133.40 147.62 C 152.71 160.94 171.80 174.58 191.11 187.90 C 193.24 189.46 194.29 192.04 196.34 193.70 C 199.07 195.49 202.22 196.46 205.36 197.27 C 204.81 199.49 203.31 201.21 201.80 202.85 C 202.72 202.61 203.63 202.38 204.55 202.16 C 209.57 207.28 216.15 210.73 220.60 216.45 C 221.16 217.87 221.75 219.34 221.85 220.88 C 221.24 222.86 219.88 224.46 218.70 226.11 C 213.16 226.63 209.57 221.61 204.41 220.57 C 200.30 219.67 196.87 217.23 193.05 215.67 C 190.53 217.26 189.22 220.12 187.38 222.39 C 172.02 242.70 156.99 263.28 141.37 283.39 C 125.93 304.03 110.44 324.63 94.98 345.25 C 100.83 348.38 102.66 355.33 107.81 359.23 C 112.03 362.19 113.80 367.16 117.00 371.01 C 121.71 378.22 125.14 386.16 129.56 393.53 C 130.94 400.95 134.03 407.90 135.87 415.21 C 138.25 421.56 138.95 428.33 139.90 434.99 C 140.54 440.38 138.85 445.64 138.68 451.00 L 137.83 451.00 C 138.02 445.65 139.64 440.40 139.01 435.02 C 138.15 428.34 137.38 421.57 135.02 415.22 C 131.65 403.57 128.10 391.78 121.51 381.48 C 119.77 376.69 116.75 372.60 113.71 368.57 C 112.28 369.94 111.19 372.38 108.87 372.07 C 100.91 371.91 94.53 366.14 89.25 360.76 C 85.90 356.92 81.60 354.09 76.97 352.04 C 51.17 331.37 25.64 310.36 0.00 289.50 L 0.00 285.59 C 23.90 305.53 48.29 324.88 72.31 344.69 C 74.24 346.25 76.36 347.57 78.44 348.92 C 116.30 296.78 154.34 244.77 192.37 192.74 C 177.02 181.43 161.19 170.67 145.51 159.80 C 146.57 161.80 148.02 163.55 149.20 165.48 C 145.72 163.01 144.04 158.87 140.70 156.26 C 93.78 123.45 46.80 90.68 0.00 57.72 L 0.00 53.73 M 80.99 350.54 C 82.54 351.23 83.88 352.29 85.21 353.35 C 119.55 307.35 154.33 261.69 188.70 215.71 C 189.76 214.63 189.82 212.95 190.87 211.89 C 194.91 208.27 197.60 203.48 201.02 199.32 C 198.52 198.35 196.13 197.13 193.80 195.80 C 156.26 247.42 118.53 298.91 80.99 350.54 M 200.24 204.98 C 199.04 207.27 197.39 209.24 195.62 211.10 C 197.13 212.78 198.84 214.34 201.12 214.86 C 206.80 216.38 211.89 219.42 216.94 222.34 C 216.95 221.01 216.96 219.68 216.96 218.35 C 211.96 213.22 205.94 209.28 200.24 204.98 M 88.99 353.66 C 94.51 359.84 100.60 366.85 109.24 368.17 C 108.76 364.40 104.21 363.62 102.35 360.68 C 99.50 356.32 94.42 353.53 93.11 348.21 C 91.44 349.79 90.02 351.60 88.99 353.66 Z" />
<path fill="#ffffff" opacity="1.00" d=" M 338.17 53.86 C 341.44 55.20 344.17 57.60 347.23 59.37 C 344.11 62.28 340.18 64.15 337.17 67.19 C 334.04 70.11 331.92 73.91 328.72 76.77 C 324.88 80.34 321.20 84.07 318.16 88.35 C 316.24 90.58 314.25 87.35 312.69 86.27 C 309.67 83.31 305.37 82.77 301.71 80.97 C 302.64 74.74 307.96 71.11 311.13 66.10 C 311.47 66.37 312.15 66.90 312.49 67.16 C 314.46 68.77 316.63 70.13 318.50 71.86 C 315.52 75.49 310.85 78.05 309.43 82.73 C 312.64 78.76 316.29 75.21 319.95 71.67 C 322.01 73.62 323.95 75.73 326.31 77.33 C 324.54 74.72 322.27 72.47 319.78 70.57 C 326.12 65.24 330.98 58.17 338.17 53.86 Z" />
<path fill="#ffffff" opacity="1.00" d=" M 0.00 57.72 C 46.80 90.68 93.78 123.45 140.70 156.26 C 144.04 158.87 145.72 163.01 149.20 165.48 C 148.02 163.55 146.57 161.80 145.51 159.80 C 161.19 170.67 177.02 181.43 192.37 192.74 C 154.34 244.77 116.30 296.78 78.44 348.92 C 76.36 347.57 74.24 346.25 72.31 344.69 C 48.29 324.88 23.90 305.53 0.00 285.59 L 0.00 57.72 Z" />
<path fill="#080808" opacity="1.00" d=" M 207.22 67.24 C 208.37 63.83 208.77 59.75 212.00 57.57 C 209.26 61.93 208.06 67.04 207.01 72.02 C 206.43 78.80 207.83 85.56 209.18 92.17 C 212.50 89.31 215.09 85.42 219.35 83.84 C 219.25 85.55 217.80 85.93 216.44 86.39 C 213.68 88.38 211.58 91.14 208.97 93.32 C 209.80 96.38 210.46 99.49 211.59 102.46 C 213.07 101.42 214.41 100.08 216.26 99.73 C 214.92 100.95 213.40 101.98 212.11 103.26 C 212.66 107.39 214.72 111.23 216.32 115.07 C 217.59 113.03 219.04 111.03 221.09 109.71 C 219.74 111.79 218.09 113.66 216.83 115.80 C 222.08 130.14 231.67 142.20 239.16 155.33 C 233.85 149.27 230.27 141.89 225.81 135.20 C 220.65 127.88 217.70 119.35 213.75 111.39 C 212.77 109.13 212.16 106.74 211.31 104.43 C 207.80 108.30 203.13 110.85 199.78 114.88 C 201.49 118.13 203.26 121.34 205.07 124.53 C 202.18 122.27 200.98 118.67 199.33 115.55 C 195.45 118.24 191.53 121.20 188.81 125.08 C 189.25 127.40 191.45 129.02 192.13 131.33 C 190.33 129.79 189.18 127.68 187.66 125.90 C 186.74 126.77 185.79 127.59 184.79 128.37 C 185.51 127.16 186.40 126.06 187.14 124.87 C 186.75 122.72 185.41 120.89 184.65 118.87 C 179.81 122.24 175.37 126.13 170.57 129.55 C 164.93 133.35 161.25 139.38 155.69 143.24 C 159.44 138.52 164.10 134.59 168.34 130.31 C 173.93 126.21 179.35 121.88 184.89 117.72 C 185.27 115.82 184.10 113.98 183.81 112.11 L 184.84 111.99 C 184.91 112.72 185.07 114.18 185.15 114.91 C 185.51 115.20 186.23 115.78 186.59 116.07 C 193.75 108.24 202.06 101.47 208.38 92.90 C 206.93 84.49 204.45 75.65 207.22 67.24 M 205.93 97.08 C 203.41 100.87 199.46 103.41 196.81 107.06 C 196.76 109.65 198.82 111.63 199.12 114.14 C 197.30 112.48 196.59 110.00 195.52 107.86 C 192.44 111.42 188.64 114.32 185.77 118.05 C 185.59 120.37 187.17 122.24 188.14 124.20 C 190.77 121.89 192.95 119.08 195.88 117.13 C 199.13 115.00 201.25 111.61 204.42 109.38 C 207.00 107.70 209.07 105.39 211.20 103.20 C 209.86 100.43 209.01 97.46 208.59 94.41 C 207.55 95.13 206.60 95.99 205.93 97.08 Z" />
<path fill="#080808" opacity="1.00" d=" M 312.49 67.16 C 315.15 67.75 317.23 69.66 319.78 70.57 C 322.27 72.47 324.54 74.72 326.31 77.33 C 323.95 75.73 322.01 73.62 319.95 71.67 C 316.29 75.21 312.64 78.76 309.43 82.73 C 310.85 78.05 315.52 75.49 318.50 71.86 C 316.63 70.13 314.46 68.77 312.49 67.16 Z" />
<path fill="#080808" opacity="1.00" d=" M 239.65 86.15 C 246.22 81.10 254.59 79.87 262.22 77.20 C 270.47 76.76 278.76 77.25 287.02 77.00 C 291.71 76.67 296.49 78.43 300.22 81.10 C 296.35 80.47 293.07 77.66 289.06 77.87 C 281.35 77.97 273.65 77.97 265.94 77.87 C 260.86 77.59 256.38 80.44 251.49 81.33 C 247.23 82.17 243.83 85.19 239.65 86.15 Z" />
<path fill="#080808" opacity="1.00" d=" M 40.64 79.84 C 50.97 85.79 60.50 93.06 70.59 99.41 C 82.17 107.51 93.49 115.99 105.19 123.93 C 108.25 126.41 111.73 128.41 114.48 131.24 C 110.69 129.66 107.85 126.58 104.49 124.31 C 97.32 119.65 90.56 114.40 83.48 109.60 C 71.36 100.44 58.42 92.44 45.91 83.84 C 44.12 82.54 41.94 81.71 40.64 79.84 Z" />
<path fill="#080808" opacity="1.00" d=" M 118.75 84.24 C 118.83 80.00 123.70 80.72 126.56 81.39 C 131.54 83.78 136.83 86.05 140.69 90.16 C 144.38 94.04 148.73 97.46 151.10 102.39 C 145.06 95.96 139.64 88.25 131.28 84.55 C 128.14 82.68 124.72 81.39 120.99 81.75 C 120.26 82.59 119.51 83.42 118.75 84.24 Z" />
<path fill="#080808" opacity="1.00" d=" M 193.80 95.28 C 192.97 92.10 192.32 88.34 194.95 85.80 C 194.61 87.81 193.62 89.79 193.99 91.87 C 195.16 96.31 194.79 100.97 196.18 105.38 L 195.19 105.65 C 194.53 102.21 194.07 98.76 193.80 95.28 Z" />
<path fill="#ffffff" opacity="1.00" d=" M 344.23 87.18 C 344.90 87.86 344.90 87.86 344.23 87.18 Z" />
<path fill="#ffffff" opacity="1.00" d=" M 357.10 88.13 C 362.84 85.63 369.17 87.59 374.90 89.09 C 377.70 89.70 379.76 91.63 381.94 93.33 C 382.88 92.54 383.82 91.73 384.76 90.93 C 385.09 91.39 385.76 92.30 386.09 92.76 C 384.39 93.80 382.48 94.64 381.26 96.27 C 379.53 98.82 380.35 102.15 378.64 104.71 C 376.85 107.78 379.05 111.13 379.82 114.17 C 380.31 116.70 382.83 117.90 384.52 119.57 C 388.58 121.83 393.39 120.97 397.83 120.92 C 402.64 119.45 407.96 116.16 408.47 110.65 C 412.95 117.81 416.49 125.71 417.88 134.09 C 417.70 138.79 419.41 143.28 419.00 147.99 C 419.45 153.36 417.62 158.48 417.86 163.84 C 416.05 170.14 412.43 175.74 409.63 181.64 C 403.66 188.90 395.66 194.19 387.30 198.32 C 375.92 201.58 364.09 203.96 352.20 202.82 C 343.62 200.73 335.12 198.22 326.43 196.64 C 319.61 193.84 313.63 189.41 308.02 184.71 C 308.01 184.08 307.99 182.84 307.98 182.21 C 310.57 180.75 313.44 179.40 315.15 176.86 C 315.27 175.40 314.06 174.56 313.18 173.64 C 311.52 175.03 309.71 176.23 307.81 177.26 C 309.63 173.45 308.72 169.24 309.21 165.22 C 310.51 159.85 311.03 154.29 313.15 149.15 C 315.61 136.03 322.54 124.31 326.47 111.63 C 328.34 112.45 328.54 114.78 329.78 116.21 C 331.78 118.60 334.22 120.55 336.62 122.53 C 339.20 123.23 341.51 124.69 343.40 126.58 C 344.73 126.26 346.23 125.59 347.55 126.34 C 351.44 128.28 355.81 128.92 359.98 129.98 C 364.99 128.51 370.56 129.32 375.36 127.25 C 376.84 126.59 375.78 124.67 374.71 124.18 C 372.41 123.51 370.01 124.22 367.76 124.76 C 365.14 125.16 362.38 124.71 359.89 125.81 C 359.54 124.78 358.36 123.52 359.31 122.47 C 361.63 118.91 364.00 115.35 367.02 112.32 C 366.96 112.02 366.85 111.42 366.79 111.12 C 363.33 115.40 359.01 119.60 357.64 125.08 C 353.74 123.87 349.81 122.77 345.88 121.70 C 348.65 120.08 349.94 117.20 351.34 114.46 C 354.27 111.91 356.51 108.62 359.17 105.89 C 362.53 107.06 365.24 110.02 368.77 111.13 C 369.80 116.36 372.63 121.04 376.35 124.80 C 377.85 126.11 379.36 124.11 380.39 123.16 C 375.66 117.98 372.90 111.53 371.22 104.79 C 370.74 101.71 370.98 97.83 368.26 95.74 C 364.10 93.07 359.15 91.26 354.15 92.04 C 345.79 95.38 338.52 100.74 330.81 105.27 C 332.94 101.46 334.28 96.55 338.63 94.64 C 344.56 91.88 351.00 90.44 357.10 88.13 Z" />
<path fill="#ffffff" opacity="1.00" d=" M 205.93 97.08 C 206.60 95.99 207.55 95.13 208.59 94.41 C 209.01 97.46 209.86 100.43 211.20 103.20 C 209.07 105.39 207.00 107.70 204.42 109.38 C 201.25 111.61 199.13 115.00 195.88 117.13 C 192.95 119.08 190.77 121.89 188.14 124.20 C 187.17 122.24 185.59 120.37 185.77 118.05 C 188.64 114.32 192.44 111.42 195.52 107.86 C 196.59 110.00 197.30 112.48 199.12 114.14 C 198.82 111.63 196.76 109.65 196.81 107.06 C 199.46 103.41 203.41 100.87 205.93 97.08 Z" />
<path fill="#ffffff" opacity="1.00" d=" M 388.28 96.42 C 390.70 96.87 393.38 96.11 395.66 97.27 C 398.61 100.04 401.45 102.94 404.30 105.83 C 405.97 107.21 404.21 109.28 403.93 110.91 C 403.13 114.20 399.70 115.76 396.85 116.92 C 392.75 116.99 387.62 117.97 384.75 114.24 C 383.53 112.15 383.03 109.67 382.50 107.32 C 384.69 103.79 383.14 97.55 388.28 96.42 M 384.74 106.99 C 385.37 107.83 386.05 108.62 386.79 109.37 C 388.05 108.10 391.84 107.64 390.83 105.27 C 389.13 102.33 385.75 104.76 384.74 106.99 Z" />
<path fill="#ffffff" opacity="1.00" d=" M 309.77 119.79 C 315.93 113.48 320.25 105.03 328.21 100.72 C 321.17 110.82 317.81 122.79 312.98 134.00 C 310.20 139.86 309.79 146.41 307.38 152.40 C 306.57 157.61 304.72 162.70 304.97 168.02 C 305.18 171.53 303.75 174.84 303.90 178.36 C 301.02 175.10 300.43 170.79 299.25 166.76 C 298.74 162.22 296.37 157.87 297.19 153.23 C 300.14 141.73 301.48 128.96 309.77 119.79 Z" />
<path fill="#ffffff" opacity="1.00" d=" M 331.83 109.50 C 336.85 107.06 341.67 104.12 346.11 100.73 C 349.26 102.17 352.46 103.59 355.89 104.26 C 357.94 107.59 354.24 110.11 352.19 112.26 C 349.28 114.80 348.71 119.54 344.88 121.07 C 341.80 121.02 339.16 118.69 336.54 117.22 C 338.24 115.33 340.06 113.52 341.46 111.38 C 343.50 108.19 347.62 107.12 349.36 103.66 C 347.28 103.85 346.62 105.97 345.01 106.93 C 341.14 109.23 339.39 113.60 336.03 116.46 C 333.85 114.71 332.13 112.36 331.83 109.50 Z" />
<path fill="#080808" opacity="1.00" d=" M 384.74 106.99 C 385.75 104.76 389.13 102.33 390.83 105.27 C 391.84 107.64 388.05 108.10 386.79 109.37 C 386.05 108.62 385.37 107.83 384.74 106.99 Z" />
<path fill="#080808" opacity="1.00" d=" M 206.09 125.18 C 209.33 122.56 211.83 119.11 215.22 116.66 C 212.72 120.47 208.97 123.23 205.93 126.59 C 208.97 129.39 212.66 132.27 213.29 136.64 C 211.23 133.04 208.63 129.88 205.70 126.97 C 203.99 128.00 202.34 129.13 200.57 130.06 C 202.12 128.12 204.27 126.83 206.09 125.18 Z" />
<path fill="#080808" opacity="1.00" d=" M 199.27 131.16 C 199.89 131.80 199.89 131.80 199.27 131.16 Z" />
<path fill="#080808" opacity="1.00" d=" M 213.63 136.74 C 217.53 137.27 219.15 141.48 221.16 144.35 C 218.25 142.20 216.87 138.57 213.63 136.74 Z" />
<path fill="#080808" opacity="1.00" d=" M 239.65 155.41 C 243.09 160.10 247.11 164.37 250.19 169.32 C 246.30 165.95 243.62 161.38 240.26 157.48 C 240.11 156.96 239.80 155.93 239.65 155.41 Z" />
<path fill="#ffffff" opacity="1.00" d=" M 80.99 350.54 C 118.53 298.91 156.26 247.42 193.80 195.80 C 196.13 197.13 198.52 198.35 201.02 199.32 C 197.60 203.48 194.91 208.27 190.87 211.89 C 189.82 212.95 189.76 214.63 188.70 215.71 C 154.33 261.69 119.55 307.35 85.21 353.35 C 83.88 352.29 82.54 351.23 80.99 350.54 Z" />
<path fill="#ffffff" opacity="1.00" d=" M 200.24 204.98 C 205.94 209.28 211.96 213.22 216.96 218.35 C 216.96 219.68 216.95 221.01 216.94 222.34 C 211.89 219.42 206.80 216.38 201.12 214.86 C 198.84 214.34 197.13 212.78 195.62 211.10 C 197.39 209.24 199.04 207.27 200.24 204.98 Z" />
<path fill="#080808" opacity="1.00" d=" M 318.03 213.06 C 325.45 212.62 332.56 214.99 339.78 216.25 C 350.78 218.25 361.91 219.41 372.95 221.09 C 375.40 221.12 377.63 223.38 376.87 225.89 C 375.54 231.16 374.31 236.47 372.59 241.64 C 371.17 246.02 370.67 250.67 368.90 254.94 C 366.30 259.90 365.96 265.64 363.72 270.74 C 362.64 274.84 360.23 278.48 359.66 282.71 C 357.28 293.88 352.46 304.40 351.20 315.82 C 348.65 314.79 346.30 315.78 344.12 317.13 C 342.86 314.41 342.38 310.96 339.68 309.22 C 337.59 308.31 335.32 307.85 333.05 307.87 C 327.30 307.87 321.51 307.58 315.84 308.74 C 308.45 308.98 300.63 308.36 293.80 311.80 C 290.28 314.42 286.79 309.96 283.16 309.97 C 279.62 311.09 275.89 310.69 272.27 311.22 C 265.02 312.67 257.58 311.31 250.28 312.10 C 249.99 312.40 249.40 313.01 249.10 313.31 C 248.47 318.26 248.67 323.35 250.16 328.14 C 257.03 328.35 263.85 327.96 270.64 326.92 C 271.18 325.45 271.74 324.00 272.35 322.57 C 274.32 323.21 275.73 324.71 277.27 326.01 C 288.25 326.93 299.06 324.02 310.02 324.05 C 314.34 323.56 318.64 322.82 323.02 323.12 C 329.78 323.46 336.25 320.78 343.01 321.07 C 346.38 321.25 349.37 319.36 352.66 319.10 C 353.28 319.94 353.86 320.81 354.42 321.70 C 352.38 322.76 350.27 323.68 348.07 324.34 C 346.66 328.52 347.03 332.98 346.19 337.27 C 345.38 342.34 346.42 347.51 345.52 352.57 C 344.63 357.34 345.11 362.22 345.03 367.04 C 345.30 372.86 343.70 378.53 342.29 384.12 C 342.29 385.46 342.60 386.78 342.72 388.12 C 344.02 397.69 339.92 407.39 342.85 416.86 C 340.52 417.85 338.40 419.27 336.06 420.22 C 332.25 418.19 330.87 413.83 330.16 409.86 C 329.60 404.18 329.06 398.49 328.12 392.86 C 327.73 385.92 328.16 378.97 328.06 372.02 C 327.95 368.86 329.96 366.11 330.08 362.98 C 330.33 355.94 329.62 348.84 330.88 341.87 C 331.02 336.85 331.46 331.86 332.27 326.89 C 327.27 326.95 322.23 326.57 317.26 327.21 C 312.14 328.35 306.83 327.45 301.71 328.60 C 296.07 328.81 290.53 330.14 284.87 329.85 C 284.94 338.57 284.79 347.29 284.95 356.01 C 287.08 367.56 285.46 379.37 285.89 391.05 C 286.43 395.59 283.64 399.78 284.67 404.28 C 283.35 404.08 282.04 403.88 280.73 403.68 C 279.70 400.34 276.40 397.77 276.99 394.03 C 277.28 387.61 275.14 381.40 274.99 375.00 C 274.96 370.55 273.69 366.25 273.10 361.87 C 272.72 356.67 273.64 351.43 272.81 346.26 C 271.67 341.13 272.25 335.85 272.09 330.65 C 268.74 331.02 265.44 331.94 262.05 331.89 C 257.92 331.89 253.69 331.53 249.75 333.04 C 249.81 336.18 249.89 339.33 250.47 342.43 C 251.64 354.71 252.85 367.11 255.98 379.01 C 257.96 390.67 260.40 402.33 264.58 413.43 C 268.12 422.28 271.41 431.34 276.61 439.38 C 279.14 442.93 280.22 447.23 282.36 451.00 L 277.79 451.00 C 273.72 444.69 269.68 438.29 266.49 431.49 C 264.56 423.66 261.13 416.34 258.45 408.77 C 258.20 409.28 257.70 410.32 257.45 410.84 C 255.70 405.85 254.68 400.66 253.45 395.53 C 252.67 392.43 254.27 389.19 252.88 386.17 C 251.22 376.18 248.15 366.36 247.84 356.16 C 247.23 348.42 245.69 340.74 246.12 332.95 C 244.70 332.86 243.28 332.77 241.87 332.68 C 241.18 343.50 244.11 354.08 244.16 364.87 C 244.98 370.30 246.04 375.70 246.89 381.13 C 247.19 385.18 246.67 389.32 247.73 393.31 C 248.68 398.02 249.44 403.71 246.00 407.62 C 242.53 402.43 240.70 396.41 238.26 390.72 C 236.52 386.86 235.55 382.74 234.24 378.74 C 230.89 371.34 230.65 363.06 228.83 355.24 C 227.52 350.43 228.60 345.37 227.50 340.53 C 226.92 337.72 227.09 334.83 227.69 332.04 C 225.26 331.71 222.87 331.16 220.47 330.70 C 218.55 328.12 217.06 325.29 215.56 322.47 C 214.72 320.80 212.59 319.46 213.14 317.38 C 218.46 311.84 226.54 311.00 233.71 309.78 C 237.61 308.90 241.62 309.14 245.59 309.03 C 244.76 308.04 244.51 305.84 242.85 306.00 C 232.25 306.07 221.86 302.67 211.23 304.09 C 209.06 307.19 209.46 311.50 207.01 314.56 C 207.61 311.51 208.72 308.59 209.32 305.55 C 206.87 305.86 204.54 307.02 203.00 308.99 C 200.01 312.97 197.24 317.28 196.11 322.19 C 194.33 329.31 191.49 336.59 192.90 344.01 C 192.69 348.80 192.93 354.59 188.90 357.96 C 183.57 366.53 187.56 376.96 185.27 386.27 C 184.10 392.58 186.28 398.81 188.30 404.70 C 189.50 407.46 188.57 410.61 189.60 413.42 C 190.63 417.05 193.70 419.61 195.05 423.10 C 195.37 424.60 193.79 425.53 193.09 426.65 C 187.99 422.05 184.71 415.19 184.72 408.30 C 184.49 405.95 182.33 404.25 182.22 401.86 C 180.55 393.64 180.51 385.14 181.86 376.88 C 182.54 371.05 180.84 364.87 183.39 359.35 C 185.98 353.25 185.10 346.36 187.21 340.14 C 188.46 336.54 189.44 332.83 189.90 329.05 C 187.99 324.16 185.19 319.67 183.01 314.89 C 180.85 309.61 176.45 305.80 172.99 301.39 C 170.89 304.37 169.37 307.72 167.01 310.51 C 168.24 306.98 170.41 303.92 172.36 300.77 C 167.98 297.50 163.81 293.96 159.61 290.47 C 158.18 289.18 155.54 288.84 155.12 286.73 C 158.92 285.38 160.17 281.29 162.21 278.21 C 165.51 272.22 170.00 266.94 172.75 260.64 C 176.19 254.76 179.19 248.39 184.07 243.53 C 179.59 250.67 174.77 257.63 171.25 265.33 C 166.57 272.78 161.65 280.11 157.50 287.89 C 162.61 291.91 167.48 296.23 172.68 300.13 C 173.85 298.21 174.93 296.23 176.31 294.44 C 175.65 296.69 174.61 298.79 173.67 300.92 C 176.25 304.15 178.94 307.31 181.55 310.52 C 184.73 315.79 186.88 321.63 190.14 326.87 C 192.22 322.17 192.59 316.81 195.43 312.43 C 197.16 309.84 198.69 307.08 200.83 304.79 C 203.59 302.80 206.99 302.00 210.15 300.85 C 209.93 294.25 210.24 287.64 210.02 281.04 C 208.52 269.05 203.35 255.81 191.58 250.65 C 191.06 251.90 190.51 253.14 189.93 254.37 C 190.09 252.94 190.30 251.52 190.57 250.10 C 192.00 250.26 193.68 249.97 194.70 251.25 C 197.85 254.10 201.79 256.31 203.70 260.29 C 206.39 264.32 208.46 268.75 209.36 273.54 C 212.20 282.14 210.51 291.28 211.02 300.15 C 217.11 300.26 223.27 299.57 229.29 300.72 C 234.78 301.28 240.22 302.59 245.78 302.09 C 246.66 297.42 247.56 292.33 251.30 289.04 C 254.51 289.16 257.87 288.81 260.88 290.21 C 271.10 294.62 278.45 304.05 289.13 307.51 C 293.77 307.09 298.31 305.88 302.85 304.88 C 304.76 293.68 306.73 282.44 307.18 271.07 C 307.90 263.68 310.13 256.46 310.14 249.00 C 310.16 244.91 311.92 241.09 312.12 237.02 C 312.70 228.76 314.96 220.73 318.03 213.06 M 321.28 216.92 C 319.58 221.86 317.63 226.78 317.00 232.00 C 315.94 237.40 316.05 242.95 314.17 248.19 C 314.41 255.43 312.69 262.47 311.57 269.58 C 310.39 273.43 311.68 277.56 310.43 281.41 C 309.64 288.95 309.09 296.62 306.90 303.94 C 311.30 306.67 316.29 303.68 320.97 303.97 C 327.86 304.30 334.95 303.10 341.64 305.29 C 344.22 307.13 345.91 309.85 347.72 312.39 C 348.65 300.30 354.68 289.39 356.35 277.42 C 358.53 273.55 359.35 269.19 361.08 265.13 C 362.39 261.86 362.50 258.21 364.01 255.01 C 366.99 249.55 367.10 243.11 369.38 237.38 C 371.03 233.38 370.99 228.92 372.91 225.01 C 358.10 223.40 343.22 221.46 328.63 218.36 C 326.27 217.46 323.83 216.82 321.28 216.92 M 252.89 293.26 C 251.62 296.40 250.49 299.62 249.79 302.95 C 254.27 303.11 258.86 302.50 263.25 303.73 C 267.36 303.90 271.31 305.42 275.46 304.96 C 270.24 301.37 265.56 296.93 259.90 294.04 C 257.65 292.86 255.21 293.99 252.89 293.26 M 249.01 307.00 L 248.99 308.00 C 252.66 307.96 256.32 307.98 260.00 307.99 L 260.01 307.00 C 256.34 307.01 252.67 307.03 249.01 307.00 M 219.89 317.36 C 219.98 321.25 220.74 326.92 225.59 327.39 C 230.56 328.10 237.00 331.24 240.99 326.76 C 242.40 328.16 244.02 329.24 246.10 329.19 C 244.15 324.03 245.29 318.43 244.94 313.06 C 236.42 312.81 228.00 314.92 219.89 317.36 M 336.00 326.21 C 335.97 328.67 336.28 331.19 335.62 333.60 C 334.22 338.03 335.85 342.82 334.22 347.23 C 333.33 355.14 335.06 363.28 333.13 371.09 C 332.90 377.08 333.31 383.11 332.11 389.03 C 332.86 393.67 333.17 398.37 334.00 403.00 C 333.68 407.35 334.34 411.84 336.92 415.48 C 337.25 411.85 336.44 408.09 337.60 404.57 C 338.08 403.22 338.10 401.77 337.61 400.44 C 336.55 397.39 337.03 394.12 336.95 390.97 C 336.86 382.76 341.48 375.26 340.99 367.01 C 341.16 360.97 340.33 354.82 341.87 348.91 C 342.28 344.36 341.62 339.75 342.19 335.21 C 343.23 331.88 342.94 328.36 342.95 324.92 C 340.55 324.85 338.20 325.22 336.00 326.21 M 275.89 331.13 C 276.00 335.23 275.42 339.41 276.52 343.42 C 277.54 348.74 276.17 354.32 277.32 359.59 C 279.69 362.98 278.96 367.12 279.00 371.01 C 278.68 378.13 281.32 384.98 281.09 392.11 L 282.10 392.11 C 282.25 383.73 282.45 375.31 281.29 366.99 C 280.91 354.56 281.25 342.12 281.09 329.69 C 279.26 329.80 277.57 330.48 275.89 331.13 M 233.48 333.17 C 232.57 334.44 231.69 335.74 230.76 337.00 C 232.99 341.89 231.04 347.38 232.47 352.44 C 233.58 356.55 233.69 360.87 235.12 364.89 C 237.80 373.40 239.06 382.40 242.95 390.49 C 242.96 383.36 241.44 376.33 240.75 369.25 C 239.65 365.84 240.35 362.17 239.18 358.78 C 238.64 354.79 239.49 350.68 238.31 346.76 C 237.87 342.13 238.16 337.45 238.17 332.81 C 236.62 332.95 234.93 332.49 233.48 333.17 M 190.03 347.04 C 189.95 350.22 188.64 353.25 189.01 356.47 C 190.03 355.47 191.19 354.47 191.08 352.90 C 191.94 348.79 192.42 344.59 191.84 340.41 C 190.88 342.49 190.06 344.71 190.03 347.04 Z" />
<path fill="#ffffff" opacity="1.00" d=" M 321.28 216.92 C 323.83 216.82 326.27 217.46 328.63 218.36 C 343.22 221.46 358.10 223.40 372.91 225.01 C 370.99 228.92 371.03 233.38 369.38 237.38 C 367.10 243.11 366.99 249.55 364.01 255.01 C 362.50 258.21 362.39 261.86 361.08 265.13 C 359.35 269.19 358.53 273.55 356.35 277.42 C 354.68 289.39 348.65 300.30 347.72 312.39 C 345.91 309.85 344.22 307.13 341.64 305.29 C 334.95 303.10 327.86 304.30 320.97 303.97 C 316.29 303.68 311.30 306.67 306.90 303.94 C 309.09 296.62 309.64 288.95 310.43 281.41 C 311.68 277.56 310.39 273.43 311.57 269.58 C 312.69 262.47 314.41 255.43 314.17 248.19 C 316.05 242.95 315.94 237.40 317.00 232.00 C 317.63 226.78 319.58 221.86 321.28 216.92 Z" />
<path fill="#080808" opacity="1.00" d=" M 216.52 227.50 C 218.09 225.85 218.16 228.65 217.19 229.39 C 215.85 231.08 215.17 228.04 216.52 227.50 Z" />
<path fill="#080808" opacity="1.00" d=" M 218.74 228.43 C 220.96 230.94 221.49 234.39 222.36 237.52 C 223.68 242.06 222.22 246.91 223.55 251.46 C 224.28 254.05 224.05 256.78 223.40 259.36 C 222.14 266.88 221.64 274.46 220.80 282.03 L 219.88 281.95 C 220.98 273.59 221.27 265.14 223.00 256.87 C 223.56 252.53 221.47 248.37 222.05 244.00 C 222.55 238.56 220.18 233.53 218.74 228.43 Z" />
<path fill="#080808" opacity="1.00" d=" M 191.48 266.31 C 191.90 266.15 192.75 265.84 193.17 265.68 C 190.25 270.35 186.49 274.61 184.77 279.92 C 182.79 285.09 179.91 289.87 176.84 294.45 C 177.02 291.64 179.19 289.66 180.40 287.29 C 181.77 284.62 183.20 281.96 184.19 279.13 C 185.73 274.38 189.30 270.73 191.48 266.31 Z" />
<path fill="#ffffff" opacity="1.00" d=" M 0.00 289.50 C 25.64 310.36 51.17 331.37 76.97 352.04 C 81.60 354.09 85.90 356.92 89.25 360.76 C 94.53 366.14 100.91 371.91 108.87 372.07 C 111.19 372.38 112.28 369.94 113.71 368.57 C 116.75 372.60 119.77 376.69 121.51 381.48 C 128.10 391.78 131.65 403.57 135.02 415.22 C 137.38 421.57 138.15 428.34 139.01 435.02 C 139.64 440.40 138.02 445.65 137.83 451.00 L 0.00 451.00 L 0.00 289.50 Z" />
<path fill="#080808" opacity="1.00" d=" M 142.09 314.02 C 147.36 305.99 150.24 296.59 156.06 288.90 C 155.92 291.27 154.10 293.05 153.00 295.04 C 149.89 300.66 147.45 306.63 144.17 312.16 C 139.96 318.61 137.73 326.22 133.15 332.42 C 135.65 326.07 139.09 320.14 142.09 314.02 Z" />
<path fill="#ffffff" opacity="1.00" d=" M 252.89 293.26 C 255.21 293.99 257.65 292.86 259.90 294.04 C 265.56 296.93 270.24 301.37 275.46 304.96 C 271.31 305.42 267.36 303.90 263.25 303.73 C 258.86 302.50 254.27 303.11 249.79 302.95 C 250.49 299.62 251.62 296.40 252.89 293.26 Z" />
<path fill="#ffffff" opacity="1.00" d=" M 249.01 307.00 C 252.67 307.03 256.34 307.01 260.01 307.00 L 260.00 307.99 C 256.32 307.98 252.66 307.96 248.99 308.00 L 249.01 307.00 Z" />
<path fill="#ffffff" opacity="1.00" d=" M 219.89 317.36 C 228.00 314.92 236.42 312.81 244.94 313.06 C 245.29 318.43 244.15 324.03 246.10 329.19 C 244.02 329.24 242.40 328.16 240.99 326.76 C 237.00 331.24 230.56 328.10 225.59 327.39 C 220.74 326.92 219.98 321.25 219.89 317.36 Z" />
<path fill="#080808" opacity="1.00" d=" M 138.72 323.78 C 148.88 331.08 157.16 340.65 163.95 351.09 C 166.48 355.27 167.66 360.03 169.57 364.48 C 170.86 371.84 172.82 379.26 171.82 386.78 C 170.54 390.40 172.11 394.47 170.00 397.92 C 168.43 401.02 168.20 404.76 165.89 407.46 C 166.75 403.43 168.50 399.68 169.92 395.85 C 170.07 392.79 169.76 389.67 170.79 386.73 C 171.98 375.90 169.28 364.99 165.07 355.07 C 162.24 348.34 157.07 343.02 152.69 337.30 C 149.60 334.05 146.56 330.67 142.84 328.10 C 141.26 326.87 139.75 325.50 138.72 323.78 Z" />
<path fill="#ffffff" opacity="1.00" d=" M 336.00 326.21 C 338.20 325.22 340.55 324.85 342.95 324.92 C 342.94 328.36 343.23 331.88 342.19 335.21 C 341.62 339.75 342.28 344.36 341.87 348.91 C 340.33 354.82 341.16 360.97 340.99 367.01 C 341.48 375.26 336.86 382.76 336.95 390.97 C 337.03 394.12 336.55 397.39 337.61 400.44 C 338.10 401.77 338.08 403.22 337.60 404.57 C 336.44 408.09 337.25 411.85 336.92 415.48 C 334.34 411.84 333.68 407.35 334.00 403.00 C 333.17 398.37 332.86 393.67 332.11 389.03 C 333.31 383.11 332.90 377.08 333.13 371.09 C 335.06 363.28 333.33 355.14 334.22 347.23 C 335.85 342.82 334.22 338.03 335.62 333.60 C 336.28 331.19 335.97 328.67 336.00 326.21 Z" />
<path fill="#ffffff" opacity="1.00" d=" M 275.89 331.13 C 277.57 330.48 279.26 329.80 281.09 329.69 C 281.25 342.12 280.91 354.56 281.29 366.99 C 282.45 375.31 282.25 383.73 282.10 392.11 L 281.09 392.11 C 281.32 384.98 278.68 378.13 279.00 371.01 C 278.96 367.12 279.69 362.98 277.32 359.59 C 276.17 354.32 277.54 348.74 276.52 343.42 C 275.42 339.41 276.00 335.23 275.89 331.13 Z" />
<path fill="#ffffff" opacity="1.00" d=" M 233.48 333.17 C 234.93 332.49 236.62 332.95 238.17 332.81 C 238.16 337.45 237.87 342.13 238.31 346.76 C 239.49 350.68 238.64 354.79 239.18 358.78 C 240.35 362.17 239.65 365.84 240.75 369.25 C 241.44 376.33 242.96 383.36 242.95 390.49 C 239.06 382.40 237.80 373.40 235.12 364.89 C 233.69 360.87 233.58 356.55 232.47 352.44 C 231.04 347.38 232.99 341.89 230.76 337.00 C 231.69 335.74 232.57 334.44 233.48 333.17 Z" />
<path fill="#ffffff" opacity="1.00" d=" M 190.03 347.04 C 190.06 344.71 190.88 342.49 191.84 340.41 C 192.42 344.59 191.94 348.79 191.08 352.90 C 191.19 354.47 190.03 355.47 189.01 356.47 C 188.64 353.25 189.95 350.22 190.03 347.04 Z" />
<path fill="#ffffff" opacity="1.00" d=" M 88.99 353.66 C 90.02 351.60 91.44 349.79 93.11 348.21 C 94.42 353.53 99.50 356.32 102.35 360.68 C 104.21 363.62 108.76 364.40 109.24 368.17 C 100.60 366.85 94.51 359.84 88.99 353.66 Z" />
</svg>
