<?xml version="1.0" encoding="UTF-8" standalone="no"?>
<svg width="248px" height="124px" viewBox="0 0 248 124" version="1.1" xmlns="http://www.w3.org/2000/svg" xmlns:xlink="http://www.w3.org/1999/xlink" xmlns:sketch="http://www.bohemiancoding.com/sketch/ns">
    <!-- Generator: Sketch 3.3 (11970) - http://www.bohemiancoding.com/sketch -->
    <title>cereal-guy-cereal-guy-spitting</title>
    <desc>Created with Sketch.</desc>
    <defs></defs>
    <g id="Page-1" stroke="none" stroke-width="1" fill="none" fill-rule="evenodd" sketch:type="MSPage">
        <g id="cereal-guy-cereal-guy-spitting" sketch:type="MSLayerGroup" transform="translate(-1.000000, 0.000000)">
            <path d="M71.84,1.24 C75.52,-0.23 79,3.15 82.76,2.42 C88.47,1.35 94.32,1.72 100.09,1.87 C104.05,3.12 107.57,5.48 111.62,6.54 C115.06,8.92 118.43,12.53 118.15,17.03 C117.69,22.13 118.28,27.25 119.2,32.259 C119.22,32.749 119.26,33.739 119.28,34.229 C128.36,35.189 137.12,38.279 145.38,42.059 C148.109,44.129 150.859,46.289 154.17,47.379 C159.891,48.909 162.27,55.599 168.061,56.989 C174.94,58.768 182.081,59.329 188.911,61.339 C191.041,62.719 192.651,64.759 194.501,66.48 C194.392,77.099 196.771,87.58 196.741,98.209 C207.231,99.849 217.6,102.39 227.561,106.079 C231.471,107.459 235.17,109.409 238.61,111.709 C242.211,115.509 245.471,119.608 248.321,123.999 L244.8,123.999 C240.37,119.429 236.5,113.959 230.52,111.259 C215.43,105.009 199.221,102.299 183.17,99.769 C175.731,99.219 168.42,97.609 160.981,97.14 C159.481,96.959 158.02,96.56 156.55,96.24 C155.981,97.9 155.52,99.59 155.26,101.33 C152.36,103.97 149.02,106.24 146.86,109.59 C142.61,116.44 134.84,119.59 128.44,124 L119.561,124 C125.401,119.72 131.44,115.689 137.761,112.15 C137.671,111.78 137.482,111.06 137.392,110.689 C129.152,110.599 120.841,111.109 112.642,110.45 C109.972,107.939 108.612,104.42 106.352,101.599 C100.962,98.549 96.132,106.669 90.762,103.469 C90.692,102.82 90.532,101.519 90.462,100.869 C95.072,98.239 100.142,96.379 105.522,96.319 C105.512,95.369 105.502,94.428 105.492,93.489 C83.322,93.369 61.152,93.858 38.982,93.649 C31.162,93.378 23.682,96.119 15.982,96.999 C12.002,97.989 8.222,99.739 4.432,101.31 C3.262,101.64 2.122,102.03 1.002,102.499 L1.002,98.688 C6.712,96.889 12.052,93.718 18.132,93.298 C23.432,92.508 28.592,90.688 33.972,90.458 C46.302,90.428 58.632,90.518 70.962,90.437 C81.992,88.847 93.182,90.347 104.252,89.427 C103.872,88.068 103.492,86.707 103.122,85.347 C107.172,86.187 110.982,84.308 114.992,84.377 C119.372,84.327 123.672,83.087 128.072,83.577 C129.292,80.427 130.062,77.138 131.222,73.967 C131.371,66.648 131.251,59.318 131.312,51.997 C131.381,48.077 130.062,44.347 128.961,40.647 C125.921,40.057 122.931,39.287 119.951,38.487 C119.491,40.147 118.891,41.767 118.131,43.307 C117.011,38.557 114.921,33.927 115.171,28.956 C115.191,24.576 115.161,20.206 115.281,15.836 L114.401,15.276 C114.371,14.776 114.301,13.776 114.271,13.276 C112.081,10.856 109.651,8.396 106.211,8.066 C102.781,6.086 99.151,3.886 95.021,4.386 C91.301,4.976 86.721,3.366 83.821,6.436 C82.401,5.736 80.851,5.486 79.281,5.426 C79.881,7.126 82.501,9.256 80.151,10.626 C78.951,8.996 77.491,7.606 75.881,6.386 C73.771,8.126 71.821,10.036 69.961,12.036 C68.011,14.296 64.911,14.836 62.321,16.026 C65.281,16.296 68.551,15.686 71.101,17.596 C70.851,16.806 70.371,15.226 70.121,14.436 C71.981,15.976 73.701,17.666 75.371,19.406 C74.711,19.356 73.381,19.266 72.711,19.226 C73.881,21.446 74.501,23.876 74.611,26.376 C73.321,27.606 72.061,28.876 70.821,30.166 C70.351,29.636 69.401,28.576 68.921,28.046 C68.781,28.846 68.511,30.446 68.371,31.256 C67.271,30.456 66.161,29.676 65.051,28.896 C62.081,28.926 59.111,28.756 56.161,28.476 C56.991,29.906 57.831,31.336 58.651,32.786 C56.961,34.496 55.421,36.346 53.731,38.066 C53.211,40.666 53.221,43.336 53.361,45.977 C54.801,45.336 56.231,44.647 57.661,43.977 C57.581,44.617 57.411,45.907 57.331,46.546 C61.541,45.516 66.521,49.416 69.511,44.807 C68.551,44.706 66.641,44.506 65.681,44.397 C65.771,42.707 65.031,40.577 66.891,39.586 C70.351,38.976 72.861,42.196 76.071,42.936 C74.691,46.355 70.781,42.646 68.901,41.496 C68.251,42.006 66.951,43.046 66.301,43.557 C67.951,43.876 69.591,44.206 71.241,44.506 C72.511,47.227 73.821,50.206 72.451,53.166 C71.591,50.586 70.811,47.956 69.181,45.736 C67.561,47.396 65.861,48.986 64.291,50.685 C65.191,50.595 66.991,50.396 67.891,50.306 C67.861,50.675 67.791,51.415 67.761,51.795 C67.011,51.655 65.521,51.375 64.771,51.226 L64.551,52.576 C63.811,52.476 62.311,52.256 61.571,52.156 C64.551,54.366 62.471,57.406 62.361,60.296 C68.671,62.557 74.821,65.276 81.151,67.496 C89.461,68.176 97.741,66.336 105.961,65.276 C108.581,62.366 111.501,59.755 114.111,56.845 C114.931,53.465 116.821,50.446 117.381,46.986 C117.511,44.925 118.851,43.355 120.081,41.826 C120.401,44.626 120.341,47.486 119.431,50.185 C118.271,53.726 117.741,57.696 115.291,60.656 C112.181,63.726 108.701,66.406 105.721,69.616 C104.481,69.656 103.231,69.706 101.991,69.756 C100.421,70.656 98.791,71.456 97.101,72.106 C96.861,71.447 96.361,70.127 96.121,69.457 C90.571,70.558 84.821,71.207 79.211,70.297 C73.031,68.087 66.991,65.507 60.781,63.357 C58.771,63.168 58.741,61.028 58.001,59.618 C55.901,60.378 53.961,61.618 51.651,61.687 C51.641,61.198 51.631,60.238 51.631,59.757 C53.271,59.278 54.891,58.707 56.461,58.028 C55.071,57.217 53.671,56.448 52.291,55.638 C50.271,56.517 48.171,57.207 46.071,57.857 C44.861,56.797 43.751,55.498 42.151,55.028 C41.001,55.488 39.971,56.138 39.051,56.988 C35.861,57.128 33.181,58.748 30.841,60.788 C31.771,59.738 32.721,58.718 33.691,57.708 C32.701,57.568 30.711,57.278 29.711,57.128 C31.701,55.857 34.181,54.538 36.191,56.628 C38.311,55.938 40.661,55.518 42.171,53.688 C38.411,53.319 34.631,53.199 30.871,52.779 C24,54.04 17.21,56.02 10.2,56.3 C8.65,56.59 6.84,56.95 5.76,58.151 C5.61,59.311 6.09,60.36 6.52,61.391 C5.45,61.451 4.39,61.51 3.32,61.58 C3.82,60.81 3.97,59.99 3.79,59.141 C3.45,58.811 2.77,58.161 2.43,57.84 C8.12,55.641 14.18,55.11 20.21,54.58 C20.28,54.019 20.43,52.9 20.5,52.34 L18.33,53.1 C18.31,52.451 18.26,51.161 18.24,50.51 C18.75,50.52 19.79,50.55 20.3,50.561 C20.77,51.71 21.26,52.85 21.75,53.991 C25.79,52.981 29.86,52.1 33.91,51.121 C33.03,50.251 32.14,49.381 31.27,48.501 C29.96,48.531 28.64,48.562 27.33,48.601 C27.39,48.271 27.5,47.622 27.56,47.301 C27.09,46.721 26.16,45.562 25.69,44.982 C27.51,45.332 30.27,45.072 29.55,47.812 C32.88,47.162 36.14,48.662 39.45,47.642 C38.05,48.861 36.71,50.142 35.43,51.482 C37.15,51.582 38.87,51.662 40.6,51.742 C40.47,50.681 40.36,49.622 40.24,48.572 C42.69,47.712 47.32,48.691 47.05,44.941 C44.59,44.582 40.89,45.361 39.79,42.392 C42.97,42.692 46.09,43.702 49.31,43.432 C51.15,40.522 50.63,36.552 52.99,33.743 C53.01,31.353 54.23,29.423 56.01,27.923 C52.92,27.263 52.77,23.473 50.55,21.643 C52.75,19.753 55.06,18.003 57.39,16.273 C58.54,16.233 59.7,16.193 60.85,16.153 C62.1,14.343 63.42,12.593 64.72,10.823 C67.85,10.113 70.18,7.753 72.07,5.303 C68.38,5.573 65.52,8.473 61.76,8.573 C65.43,3.893 71.63,3.103 77.18,3.323 C76.32,1.07 73.65,1.85 71.84,1.24 L71.84,1.24 Z M59.52,17.6 C60.12,20.73 59.86,23.99 57.23,26.13 C59.8,27.93 62.98,27.44 65.93,27.45 C68.5,27.53 70.45,25.54 72.47,24.24 C72.41,23.4 72.28,21.71 72.22,20.87 C69.18,16.91 63.95,17.36 59.52,17.6 L59.52,17.6 Z M49.35,45.38 C48.86,46.77 48.52,48.2 48.12,49.609 C48.83,49.599 50.24,49.58 50.95,49.56 C50.31,52.539 45.52,52.16 45.49,55.53 C47.8,55.78 49.87,54.769 51.89,53.83 L55.15,53.83 C54.81,51.269 52.6,49.59 50.49,48.45 C50.46,47.4 50.92,45.51 49.35,45.38 L49.35,45.38 Z M139.32,45.27 C140.72,48.531 141.87,51.901 143.38,55.121 C143.609,56.911 143.76,58.821 145.981,59.051 C147.55,59.791 146.331,61.941 146.661,63.281 C147.801,65.461 149.051,67.641 149.561,70.071 C149.69,73.451 149.35,76.921 150.701,80.131 C153.551,78.851 154.261,75.312 156.86,73.711 C158.131,73.451 160.321,73.321 160.55,75.001 C160.77,76.721 160.471,78.451 160.24,80.161 C159.76,80.471 158.8,81.091 158.31,81.391 C158.4,83.071 158.47,84.741 158.549,86.411 C158.22,86.781 157.539,87.52 157.199,87.891 C158.438,89.141 158.608,90.76 158.459,92.44 C160.97,93.901 163.899,93.461 166.659,93.47 C165.709,90.741 165.608,87.87 165.619,85 C165.039,82.34 164.358,79.71 163.848,77.04 C162.949,72.05 162.409,67 160.858,62.141 C160.169,60.811 159.199,59.67 158.239,58.531 C154.199,58.461 150.018,58.85 146.089,57.901 C145.929,57.421 145.619,56.47 145.47,56.001 C148.769,54.991 152.31,55.642 155.72,55.591 C151.01,51.061 144.91,48.5 139.32,45.27 L139.32,45.27 Z M54.12,47.82 C54.83,49.799 56.61,50.92 58.44,51.719 C58.76,52.679 59.19,53.579 59.72,54.429 C59.64,53.549 59.48,51.78 59.41,50.9 C60.38,50.439 61.35,49.96 62.31,49.469 C61.41,49.459 59.61,49.429 58.71,49.419 C58.72,46.49 55.96,47.45 54.12,47.82 L54.12,47.82 Z M34.04,49.38 C34.38,49.811 34.38,49.811 34.04,49.38 L34.04,49.38 Z M135.561,52.24 C135.51,55.8 135.891,59.37 137.231,62.7 C137.221,63.48 137.21,64.26 137.19,65.04 C135.78,67.87 136.93,71.12 136.18,74.1 C135.38,77.21 136.03,80.47 135.21,83.58 C138.439,83.359 141.67,83.88 144.891,83.55 C144.87,80.76 145.04,77.96 144.77,75.18 C144.17,72.321 142.55,69.76 142.241,66.821 C141.591,62.291 136.94,59.481 137.151,54.8 C136.951,54.12 136.55,52.78 136.34,52.11 C136.15,52.141 135.75,52.21 135.561,52.24 L135.561,52.24 Z M166.029,58.13 C168.08,61.45 168.74,65.311 170.21,68.88 C170.3,69.44 170.471,70.561 170.55,71.12 C171.529,72.689 171.1,74.599 171.17,76.33 C171.71,76.72 172.779,77.49 173.311,77.88 C173.38,80.25 173.03,82.75 174.13,84.96 C174.26,88.24 174.18,91.52 174.19,94.8 C175.451,94.84 176.701,94.891 177.971,94.97 C181.1,96.071 184.53,95.59 187.7,96.68 C187.88,85.571 187.679,74.47 187.8,63.36 C185.83,62.85 183.83,62.451 181.821,62.18 C177.421,60.42 172.02,61.561 168.161,58.6 C167.63,58.48 166.561,58.25 166.029,58.13 L166.029,58.13 Z M190.23,68.96 C190.359,78.43 190.08,87.91 190.39,97.37 C191.419,97.349 193.47,97.3 194.499,97.269 C194.599,94.54 194.659,91.78 193.919,89.129 C193.249,86.449 194.319,83.459 192.899,80.959 C192.909,75.759 192.079,70.599 192.358,65.399 C189.471,64.27 190.46,67.54 190.23,68.96 L190.23,68.96 Z M120.99,87.29 C117.19,87.73 113.04,86.57 109.59,88.71 C110.45,88.65 112.17,88.53 113.03,88.47 C116.05,90.93 119.9,89.11 122.93,87.67 C127.48,87.27 132.06,87.561 136.62,87.76 C136.359,87.47 135.849,86.901 135.59,86.62 C131.08,86.5 126.54,86.38 122.04,86.689 C121.78,86.84 121.25,87.141 120.99,87.29 L120.99,87.29 Z M139,88.391 C139.9,90.44 144.23,90.321 145.17,88.321 C143.109,88.24 141.05,88.25 139,88.391 L139,88.391 Z M122.02,92.54 C123.69,92.6 125.37,92.6 127.04,92.54 C126.36,91.79 125.71,91.03 124.95,90.359 C123.57,90.42 122.69,91.46 122.02,92.54 L122.02,92.54 Z M130.141,90.3 C130.27,90.811 130.53,91.83 130.661,92.34 C131.161,92.44 132.161,92.62 132.661,92.72 C132.651,92.16 132.641,91.04 132.631,90.47 C132.01,90.43 130.76,90.34 130.141,90.3 L130.141,90.3 Z M144.029,96.34 C132.06,96.52 120.07,96.59 108.1,96.3 C109.15,100.54 111.89,104.151 114.45,107.59 C120.93,108.24 127.529,107.651 134.05,107.88 C136.67,108.141 139.17,107.37 141.55,106.359 L141.571,105.39 C142.001,105.45 142.85,105.57 143.28,105.629 C145.321,102.079 149.311,100.319 151.591,96.949 C151.041,96.629 149.961,95.989 149.411,95.669 C147.6,95.73 145.689,95.48 144.029,96.34 L144.029,96.34 Z" id="Shape" fill="#010101" sketch:type="MSShapeGroup"></path>
            <path d="M92.3,6.27 C95.29,6.61 98.3,6.59 101.29,6.37 C101.88,7.24 102.45,8.14 102.97,9.06 C100.8,7.8 98.47,6.89 95.91,7.06 C96.61,8.55 98.36,8.44 99.67,9 C101.34,10 102.04,11.89 102.85,13.56 C102.31,13.59 101.23,13.66 100.69,13.7 C99.27,9.72 94.56,9.13 90.9,9.49 C89.23,10.45 87.29,10.5 85.43,10.67 C85.53,10.23 85.73,9.34 85.83,8.9 C87.22,8.55 88.6,8.16 89.95,7.64 C90.65,7.64 92.05,7.65 92.76,7.65 L92.3,6.27 L92.3,6.27 Z" id="Shape" fill="#010101" sketch:type="MSShapeGroup"></path>
            <path d="M91.4,16.56 C93.05,16.64 94.77,16.62 96.27,17.43 C95.2,17.45 93.07,17.49 92,17.51 C93.6,18.62 95.19,19.781 96.68,21.05 C96.59,20.15 96.4,18.35 96.31,17.46 C97.38,18.57 98.45,19.67 99.54,20.77 C100.07,25.67 99.29,30.69 96.22,34.68 C94.16,34.94 92,34.86 90.69,32.95 C90.57,33.79 90.33,35.48 90.21,36.33 C90,35.66 89.58,34.31 89.37,33.64 C84.84,34.38 81.24,31.25 78.41,28.17 C78.39,26.71 78.37,25.25 78.34,23.79 C80.2,21.69 82.39,19.94 84.77,18.46 C87.09,18.33 89.43,18.34 91.76,18.43 C91.67,17.96 91.49,17.02 91.4,16.56 L91.4,16.56 Z M83.85,20.94 C85.76,24.27 84.62,27.85 84.12,31.36 C86.92,31.77 89.83,32.15 92.64,31.57 C94.19,30.72 94.53,28.69 95.25,27.19 C95.33,25.4 96.22,23.45 95.41,21.74 C93.21,19.48 89.77,19.79 86.88,19.77 C85.87,20.17 84.86,20.56 83.85,20.94 L83.85,20.94 Z M96.91,28.3 C98.24,27.14 98.85,24.65 98.07,22.99 C96.98,24.07 96.68,26.69 96.91,28.3 L96.91,28.3 Z" id="Shape" fill="#010101" sketch:type="MSShapeGroup"></path>
            <path d="M59.52,17.6 C63.95,17.36 69.18,16.91 72.22,20.87 C72.28,21.71 72.41,23.4 72.47,24.24 C70.45,25.54 68.5,27.53 65.93,27.45 C62.98,27.44 59.8,27.93 57.23,26.13 C59.86,23.99 60.12,20.73 59.52,17.6 L59.52,17.6 Z" id="Shape" fill="#FFFFFF" sketch:type="MSShapeGroup"></path>
            <path d="M83.85,20.94 C84.86,20.56 85.87,20.17 86.88,19.77 C89.77,19.79 93.21,19.48 95.41,21.74 C96.22,23.45 95.33,25.4 95.25,27.19 C94.53,28.69 94.19,30.72 92.64,31.57 C89.83,32.15 86.92,31.77 84.12,31.36 C84.62,27.85 85.76,24.27 83.85,20.94 L83.85,20.94 Z" id="Shape" fill="#FFFFFF" sketch:type="MSShapeGroup"></path>
            <path d="M96.91,28.3 C96.68,26.69 96.98,24.07 98.07,22.99 C98.85,24.65 98.24,27.14 96.91,28.3 L96.91,28.3 Z" id="Shape" fill="#FFFFFF" sketch:type="MSShapeGroup"></path>
            <path d="M98.14,38.04 C102.1,36.34 106.7,38.54 109.43,41.53 C111.37,44.87 110.39,48.83 110.52,52.49 C107.65,54.92 104.82,57.96 101.02,58.8 C101.1,56.29 103.54,55.41 105.28,54.17 C106.88,53.15 108.14,51.71 109.42,50.33 C109.19,48.12 109.79,45.59 108.24,43.73 C106.21,40 101.58,39.74 98.14,38.04 L98.14,38.04 Z" id="Shape" fill="#010101" sketch:type="MSShapeGroup"></path>
            <path d="M49.35,45.38 C50.92,45.51 50.46,47.401 50.49,48.45 C52.6,49.59 54.81,51.269 55.15,53.83 L51.89,53.83 C49.87,54.769 47.8,55.78 45.49,55.53 C45.52,52.16 50.31,52.54 50.95,49.56 C50.24,49.58 48.83,49.599 48.12,49.609 C48.52,48.2 48.86,46.77 49.35,45.38 L49.35,45.38 Z" id="Shape" fill="#FFFFFF" sketch:type="MSShapeGroup"></path>
            <path d="M139.32,45.27 C144.91,48.5 151.009,51.061 155.72,55.59 C152.31,55.641 148.769,54.99 145.47,56 C145.619,56.47 145.929,57.42 146.089,57.9 C150.019,58.849 154.199,58.46 158.239,58.53 C159.199,59.67 160.169,60.81 160.858,62.14 C162.409,66.999 162.949,72.049 163.848,77.039 C164.358,79.709 165.038,82.339 165.619,84.999 C165.608,87.869 165.709,90.739 166.659,93.469 C163.899,93.459 160.97,93.9 158.459,92.439 C158.608,90.759 158.438,89.14 157.199,87.89 C157.539,87.519 158.22,86.78 158.549,86.41 C158.47,84.74 158.4,83.07 158.31,81.39 C158.799,81.089 159.759,80.469 160.24,80.16 C160.47,78.45 160.769,76.72 160.55,75 C160.321,73.32 158.13,73.45 156.86,73.71 C154.26,75.311 153.55,78.85 150.701,80.13 C149.35,76.92 149.69,73.45 149.561,70.07 C149.05,67.64 147.8,65.46 146.661,63.28 C146.331,61.939 147.551,59.79 145.981,59.05 C143.76,58.821 143.61,56.91 143.38,55.12 C141.87,51.9 140.721,48.53 139.32,45.27 L139.32,45.27 Z" id="Shape" fill="#FFFFFF" sketch:type="MSShapeGroup"></path>
            <path d="M10.72,46.82 C11.22,46.7 12.21,46.469 12.7,46.349 C12.6,47.929 13.32,49.849 12.22,51.179 C10.57,51.869 8.75,51.609 7.03,51.439 C8.14,50.54 9.47,50.009 10.77,49.429 C10.76,48.78 10.73,47.47 10.72,46.82 L10.72,46.82 Z" id="Shape" fill="#010101" sketch:type="MSShapeGroup"></path>
            <path d="M54.12,47.82 C55.96,47.45 58.72,46.49 58.71,49.42 C59.61,49.43 61.41,49.46 62.31,49.47 C61.35,49.96 60.38,50.44 59.41,50.901 C59.48,51.781 59.64,53.55 59.72,54.43 C59.19,53.58 58.76,52.68 58.44,51.72 C56.61,50.92 54.83,49.8 54.12,47.82 L54.12,47.82 Z" id="Shape" fill="#FFFFFF" sketch:type="MSShapeGroup"></path>
            <path id="Shape" fill="#FFFFFF" sketch:type="MSShapeGroup" d="M34.04,49.38 C34.38,49.811 34.38,49.811 34.04,49.38 L34.04,49.38 Z"></path>
            <path d="M83.57,49.811 C86.79,49.92 90.26,49.8 93.16,51.44 C89.91,51.27 86.66,51.161 83.41,51.311 C83.45,50.93 83.53,50.189 83.57,49.811 L83.57,49.811 Z" id="Shape" fill="#010101" sketch:type="MSShapeGroup"></path>
            <path d="M135.561,52.24 C135.75,52.21 136.151,52.14 136.34,52.109 C136.55,52.78 136.95,54.12 137.151,54.799 C136.94,59.48 141.59,62.289 142.241,66.82 C142.551,69.759 144.171,72.32 144.77,75.179 C145.041,77.959 144.871,80.759 144.891,83.549 C141.67,83.879 138.44,83.359 135.21,83.579 C136.029,80.469 135.38,77.209 136.18,74.099 C136.93,71.12 135.78,67.87 137.19,65.039 C137.211,64.259 137.221,63.479 137.231,62.699 C135.891,59.37 135.51,55.8 135.561,52.24 L135.561,52.24 Z" id="Shape" fill="#FFFFFF" sketch:type="MSShapeGroup"></path>
            <path d="M67.3,55.13 C67.89,54.44 68.54,53.8 69.18,53.141 C69.91,55.141 70.48,57.281 72,58.86 C73.83,56.8 74.18,53.3 77.56,53.171 C77.55,53.671 77.53,54.691 77.52,55.201 C75.96,55.43 75.46,56.711 75.09,58.061 C74.77,59.55 73.02,59.821 71.95,60.561 C69.71,59.58 67.55,57.72 67.3,55.13 L67.3,55.13 Z" id="Shape" fill="#010101" sketch:type="MSShapeGroup"></path>
            <path d="M18.35,57.35 C19.87,56.83 21.47,57.871 20.43,59.481 C18.8,60.87 17.57,58.87 18.35,57.35 L18.35,57.35 Z" id="Shape" fill="#010101" sketch:type="MSShapeGroup"></path>
            <path d="M166.029,58.13 C166.56,58.25 167.63,58.481 168.16,58.6 C172.019,61.561 177.42,60.42 181.82,62.18 C183.83,62.451 185.83,62.85 187.799,63.36 C187.679,74.47 187.879,85.571 187.699,96.68 C184.528,95.59 181.098,96.071 177.97,94.97 C176.699,94.891 175.449,94.84 174.189,94.8 C174.179,91.52 174.259,88.24 174.129,84.96 C173.028,82.75 173.379,80.25 173.31,77.88 C172.779,77.49 171.709,76.72 171.169,76.33 C171.099,74.6 171.528,72.689 170.549,71.12 C170.47,70.56 170.299,69.439 170.209,68.88 C168.74,65.311 168.08,61.45 166.029,58.13 L166.029,58.13 Z" id="Shape" fill="#FFFFFF" sketch:type="MSShapeGroup"></path>
            <path d="M26.29,62.67 C26.91,62.65 28.16,62.6 28.78,62.57 C29.06,64.24 28.22,65.269 26.69,65.73 C26.54,64.71 26.4,63.689 26.29,62.67 L26.29,62.67 Z" id="Shape" fill="#010101" sketch:type="MSShapeGroup"></path>
            <path d="M12.95,65.79 C16.08,65.49 19.15,64.811 22.23,64.25 C16.31,67.21 9.27,66.15 3.46,69.5 C3.34,71.07 2.02,71.91 1,72.9 L1,69.6 C4.94,68.21 8.75,66.24 12.95,65.79 L12.95,65.79 Z" id="Shape" fill="#010101" sketch:type="MSShapeGroup"></path>
            <path d="M41.95,69.87 C43.01,67.189 46.33,66.98 48.41,65.32 C50.08,69.04 44.32,69.45 41.95,69.87 L41.95,69.87 Z" id="Shape" fill="#010101" sketch:type="MSShapeGroup"></path>
            <path d="M190.23,68.96 C190.459,67.54 189.47,64.27 192.359,65.4 C192.08,70.599 192.91,75.759 192.9,80.96 C194.32,83.46 193.25,86.45 193.92,89.13 C194.66,91.78 194.6,94.54 194.5,97.27 C193.471,97.3 191.42,97.35 190.391,97.371 C190.08,87.91 190.359,78.43 190.23,68.96 L190.23,68.96 Z" id="Shape" fill="#FFFFFF" sketch:type="MSShapeGroup"></path>
            <path d="M17.4,73.32 C19.3,72.91 20.6,74.14 21.08,75.88 C19.14,76.23 17.91,75.04 17.4,73.32 L17.4,73.32 Z" id="Shape" fill="#010101" sketch:type="MSShapeGroup"></path>
            <path d="M34.88,80.24 C35.3,80.219 36.15,80.17 36.57,80.15 C36.44,81.67 36.69,84.16 34.62,84.359 C32.23,84.48 34.93,81.48 34.88,80.24 L34.88,80.24 Z" id="Shape" fill="#010101" sketch:type="MSShapeGroup"></path>
            <path d="M120.99,87.29 C121.25,87.141 121.78,86.84 122.04,86.689 C126.54,86.379 131.08,86.5 135.59,86.62 C135.85,86.9 136.36,87.47 136.62,87.76 C132.06,87.561 127.48,87.27 122.93,87.67 C119.9,89.109 116.05,90.93 113.03,88.47 C112.17,88.531 110.45,88.651 109.59,88.71 C113.04,86.57 117.19,87.73 120.99,87.29 L120.99,87.29 Z" id="Shape" fill="#FFFFFF" sketch:type="MSShapeGroup"></path>
            <path d="M139,88.391 C141.05,88.25 143.109,88.241 145.17,88.321 C144.23,90.32 139.9,90.439 139,88.391 L139,88.391 Z" id="Shape" fill="#FFFFFF" sketch:type="MSShapeGroup"></path>
            <path d="M122.02,92.54 C122.69,91.46 123.57,90.42 124.95,90.359 C125.71,91.03 126.36,91.79 127.04,92.54 C125.37,92.6 123.69,92.6 122.02,92.54 L122.02,92.54 Z" id="Shape" fill="#FFFFFF" sketch:type="MSShapeGroup"></path>
            <path d="M130.141,90.3 C130.76,90.34 132.01,90.43 132.63,90.47 C132.641,91.04 132.651,92.16 132.66,92.72 C132.16,92.62 131.16,92.44 130.66,92.34 C130.529,91.83 130.27,90.811 130.141,90.3 L130.141,90.3 Z" id="Shape" fill="#FFFFFF" sketch:type="MSShapeGroup"></path>
            <path d="M38.98,93.65 C61.15,93.859 83.32,93.37 105.49,93.49 C105.5,94.429 105.51,95.37 105.52,96.32 C100.14,96.38 95.07,98.24 90.46,100.87 C90.53,101.519 90.69,102.82 90.76,103.47 C96.13,106.67 100.96,98.55 106.35,101.6 C108.61,104.42 109.97,107.94 112.64,110.451 C120.84,111.11 129.15,110.6 137.39,110.69 C137.48,111.061 137.669,111.781 137.759,112.151 C131.439,115.69 125.399,119.72 119.559,124.001 L1,124.001 L1,102.501 C2.12,102.031 3.26,101.642 4.43,101.312 C8.22,99.742 12,97.992 15.98,97.001 C23.68,96.12 31.16,93.38 38.98,93.65 L38.98,93.65 Z" id="Shape" fill="#FFFFFF" sketch:type="MSShapeGroup"></path>
            <path d="M144.029,96.34 C145.689,95.481 147.599,95.731 149.41,95.67 C149.96,95.99 151.04,96.63 151.59,96.95 C149.311,100.32 145.32,102.08 143.279,105.63 C142.849,105.57 142,105.45 141.57,105.391 L141.549,106.36 C139.169,107.371 136.669,108.141 134.049,107.881 C127.528,107.652 120.929,108.241 114.449,107.591 C111.889,104.152 109.149,100.541 108.099,96.301 C120.07,96.59 132.061,96.52 144.029,96.34 L144.029,96.34 Z" id="Shape" fill="#FFFFFF" sketch:type="MSShapeGroup"></path>
            <path d="M156.55,96.24 C158.02,96.56 159.481,96.96 160.981,97.14 C168.42,97.609 175.731,99.219 183.17,99.769 C199.221,102.299 215.43,105.009 230.52,111.259 C236.5,113.959 240.371,119.429 244.8,123.999 L128.44,123.999 C134.84,119.589 142.61,116.438 146.86,109.589 C149.02,106.239 152.36,103.969 155.26,101.329 C155.52,99.59 155.98,97.9 156.55,96.24 L156.55,96.24 Z" id="Shape" fill="#FFFFFF" sketch:type="MSShapeGroup"></path>
        </g>
    </g>
</svg>