<?xml version="1.0" encoding="UTF-8" ?>
<!DOCTYPE svg PUBLIC "-//W3C//DTD SVG 1.1//EN" "http://www.w3.org/Graphics/SVG/1.1/DTD/svg11.dtd">
<svg width="973pt" height="592pt" viewBox="0 0 973 592" version="1.1" xmlns="http://www.w3.org/2000/svg">
<g id="#ffffffff">
<path fill="#ffffff" opacity="1.00" d=" M 0.00 0.00 L 678.84 0.00 C 642.68 3.59 607.69 18.46 580.13 42.16 C 573.81 47.82 567.65 53.73 562.48 60.48 C 552.05 73.70 541.08 86.98 535.00 102.89 C 529.36 118.05 524.84 133.70 522.27 149.68 C 521.14 155.11 522.63 160.98 520.04 166.09 C 518.41 169.39 516.73 172.67 515.51 176.16 C 514.52 178.97 511.45 180.44 510.63 183.35 C 509.15 188.45 505.30 192.42 503.85 197.53 C 502.41 201.53 502.41 205.85 502.96 210.03 C 503.79 215.74 503.05 221.54 503.71 227.27 C 504.75 235.27 506.98 243.05 508.19 251.01 C 509.12 258.56 511.30 266.01 510.59 273.68 C 490.20 274.01 470.22 269.11 450.39 264.90 C 424.70 259.30 399.13 252.75 372.97 249.68 C 355.62 247.84 337.55 247.15 320.77 252.69 C 310.89 255.81 302.66 262.33 294.67 268.67 C 279.60 280.86 265.85 294.54 251.52 307.55 C 221.82 335.44 188.51 360.25 150.60 375.78 C 141.56 379.81 131.84 382.28 123.24 387.29 C 110.82 394.35 99.00 402.38 86.90 409.96 C 77.69 415.63 68.55 421.67 58.36 425.46 C 49.81 428.32 41.09 430.67 32.61 433.72 C 29.12 434.88 27.10 438.21 25.01 441.01 C 21.75 445.50 19.72 450.85 15.83 454.87 C 11.70 459.01 5.47 459.27 0.00 459.65 L 0.00 0.00 Z" />
<path fill="#ffffff" opacity="1.00" d=" M 703.23 0.00 L 973.00 0.00 L 973.00 490.97 C 970.54 474.49 966.09 458.03 957.30 443.74 C 950.94 433.12 942.67 423.55 932.40 416.56 C 915.02 404.55 895.14 396.98 876.24 387.77 C 853.16 376.89 830.69 363.61 812.99 344.97 C 809.66 341.53 805.03 339.88 800.63 338.29 C 788.50 334.23 776.09 330.86 764.45 325.49 C 753.64 320.45 742.70 312.38 739.79 300.16 C 738.56 296.26 740.35 292.46 741.42 288.77 C 740.96 288.59 740.04 288.24 739.58 288.06 C 737.10 295.85 733.92 303.40 731.10 311.08 C 727.77 319.68 724.70 328.38 720.86 336.77 C 720.47 335.06 720.08 333.35 719.69 331.64 C 719.80 325.98 719.53 320.30 718.80 314.68 C 718.32 310.12 718.79 305.37 717.04 301.03 C 713.18 291.05 708.71 281.17 707.10 270.51 C 705.22 260.04 708.24 248.51 715.93 240.97 C 719.50 237.24 723.93 233.40 724.61 227.98 C 725.17 224.13 721.08 221.76 717.77 221.42 C 710.68 220.60 703.68 223.24 697.58 226.64 C 687.34 232.44 679.93 242.54 677.00 253.90 C 661.55 238.72 645.82 223.83 630.47 208.55 C 627.24 205.46 624.40 201.78 620.22 199.92 C 608.31 194.62 597.85 186.69 586.36 180.62 C 578.24 176.27 569.97 171.82 560.90 169.80 C 556.60 169.01 550.78 169.13 548.69 173.74 C 546.16 180.38 548.43 187.95 552.62 193.39 C 557.84 199.87 564.83 204.52 571.17 209.80 C 582.20 218.73 593.49 227.40 603.55 237.43 C 607.01 240.57 611.02 243.04 614.44 246.24 C 607.83 243.28 601.27 239.98 595.68 235.32 C 580.16 222.58 565.76 208.57 550.68 195.31 C 544.64 189.94 538.55 184.44 531.35 180.66 C 527.01 178.32 522.00 178.04 517.21 177.45 C 519.10 171.19 524.05 165.86 523.75 159.00 C 523.80 149.89 525.99 140.99 528.10 132.18 C 532.60 114.82 537.91 97.25 548.44 82.49 C 558.81 68.38 569.17 53.99 582.74 42.73 C 611.12 19.08 647.00 4.07 683.98 1.95 C 704.14 0.97 724.74 4.18 743.09 12.82 C 751.32 16.58 758.81 21.71 766.40 26.58 C 773.47 31.36 780.69 36.19 786.26 42.76 C 792.03 49.36 795.98 57.25 800.12 64.91 C 802.57 69.84 805.66 74.55 806.88 79.98 C 809.17 89.83 808.87 100.03 808.50 110.06 C 807.60 124.49 805.40 138.84 801.86 152.85 C 798.55 165.80 794.23 178.69 787.16 190.12 C 783.68 195.52 779.39 200.96 773.21 203.33 C 767.85 205.12 761.85 205.64 757.30 209.31 C 754.12 211.93 751.01 214.72 748.49 217.99 C 752.17 217.45 754.63 214.55 757.26 212.22 C 761.74 207.98 768.07 206.70 773.96 205.76 C 779.01 205.35 784.68 205.10 789.14 207.87 C 794.25 213.69 794.45 222.44 792.57 229.60 C 788.39 244.04 777.96 255.32 768.87 266.86 C 766.15 269.96 764.69 273.92 762.11 277.09 C 755.62 282.45 746.41 282.40 739.69 287.41 C 742.56 288.52 745.15 286.60 747.80 285.77 C 752.59 284.01 757.65 282.75 762.00 279.97 C 765.75 277.55 766.84 272.93 769.54 269.60 C 778.18 258.40 788.15 247.75 793.30 234.34 C 796.65 225.74 797.12 215.15 791.65 207.31 C 788.44 203.62 782.97 203.86 778.53 203.23 C 789.89 193.86 795.69 179.76 800.30 166.17 C 807.29 144.18 810.99 121.08 810.89 98.00 C 810.70 88.91 810.21 79.38 805.82 71.19 C 801.26 62.54 797.00 53.67 791.31 45.69 C 782.69 33.43 769.30 25.99 756.99 18.01 C 740.93 7.59 722.18 1.96 703.23 0.00 M 551.59 131.17 C 552.10 134.35 555.14 135.87 557.62 137.39 C 572.36 145.54 588.64 150.42 603.37 158.58 C 618.06 167.40 633.43 176.29 650.61 178.94 C 650.61 178.42 650.61 177.40 650.61 176.89 C 635.10 174.06 620.90 166.64 607.57 158.50 C 593.24 150.00 577.27 144.88 562.38 137.52 C 558.64 135.65 555.33 133.04 551.59 131.17 M 550.76 145.83 C 550.70 146.43 550.58 147.64 550.53 148.24 C 568.68 160.01 587.93 170.05 607.43 179.39 C 612.31 181.43 616.99 184.41 622.36 184.86 C 621.70 183.84 621.10 182.65 619.84 182.31 C 613.03 179.66 606.39 176.61 599.87 173.32 C 583.10 164.90 566.52 156.03 550.76 145.83 M 690.33 194.35 C 683.06 198.51 675.78 202.85 669.77 208.75 C 668.74 209.68 668.42 211.05 667.96 212.29 C 671.82 210.63 674.35 207.08 677.74 204.73 C 683.69 200.47 690.07 196.83 696.51 193.37 C 699.84 191.49 703.67 191.01 707.32 190.07 C 706.77 189.71 705.69 188.98 705.14 188.62 C 699.68 188.86 695.00 191.84 690.33 194.35 M 699.56 204.63 C 695.11 206.06 692.29 209.96 688.87 212.87 C 685.06 216.05 681.41 219.43 677.64 222.65 C 673.92 225.75 671.98 230.30 669.26 234.19 C 668.23 235.43 668.28 237.08 668.04 238.59 C 672.50 235.28 673.88 229.57 677.61 225.65 C 683.16 220.52 689.07 215.77 694.49 210.49 C 698.78 206.05 705.22 205.29 710.53 202.57 C 713.41 200.96 717.52 202.48 719.64 199.51 C 712.37 197.98 706.17 202.59 699.56 204.63 M 754.01 222.03 C 750.37 224.43 746.80 228.26 747.34 232.95 C 747.37 238.68 752.28 242.49 755.63 246.53 C 757.16 247.89 756.00 249.85 755.36 251.35 C 751.97 256.68 745.24 258.51 741.54 263.56 C 741.27 265.25 740.98 267.34 742.40 268.64 C 745.21 271.69 748.87 274.61 753.20 274.78 C 750.68 270.75 744.03 270.15 743.33 264.97 C 747.47 259.16 756.09 257.29 758.32 249.94 C 759.59 245.56 755.04 243.15 752.83 240.14 C 749.81 236.99 747.95 231.71 750.90 227.92 C 755.24 222.22 762.44 219.98 768.99 217.91 C 773.37 216.74 778.09 214.96 782.62 216.39 C 785.42 217.20 785.00 220.83 783.76 222.80 C 781.69 226.69 777.30 228.04 773.42 229.38 C 771.80 235.11 773.09 241.58 770.04 246.89 C 766.79 250.66 761.77 252.52 759.06 256.85 C 759.55 257.07 760.53 257.51 761.02 257.73 C 763.95 253.70 768.93 251.94 771.92 248.01 C 774.85 243.26 774.24 237.43 774.85 232.12 C 776.27 229.87 779.41 229.89 781.43 228.32 C 785.13 225.84 787.97 221.28 786.43 216.74 C 783.93 213.19 778.96 213.45 775.17 214.13 C 767.82 215.77 760.43 217.98 754.01 222.03 Z" />
<path fill="#ffffff" opacity="1.00" d=" M 551.44 173.48 C 554.62 170.41 559.52 171.68 563.33 172.68 C 584.10 179.06 600.99 193.46 620.49 202.52 C 623.01 203.89 624.92 206.08 626.94 208.07 C 640.98 222.03 655.19 235.81 669.45 249.56 C 676.44 256.17 682.87 263.36 690.00 269.83 C 690.42 269.42 691.25 268.59 691.66 268.18 C 687.26 264.27 683.17 260.03 678.99 255.89 C 681.05 244.72 688.25 234.73 697.99 228.95 C 703.82 225.47 710.62 222.84 717.52 223.55 C 720.16 223.77 723.45 225.75 722.36 228.83 C 720.70 233.83 716.39 237.19 713.00 240.99 C 707.41 247.21 704.23 255.61 704.47 263.98 C 704.40 276.89 709.96 288.84 714.53 300.64 C 716.80 306.15 716.22 312.20 716.85 317.99 C 717.50 322.91 717.36 327.91 718.50 332.76 C 718.09 339.56 719.62 346.25 719.70 353.04 C 720.77 362.73 722.07 372.56 725.43 381.77 C 731.82 396.06 739.06 409.96 745.85 424.06 C 745.77 424.78 745.70 425.49 745.66 426.22 C 730.02 439.02 712.34 449.00 694.64 458.64 C 678.09 467.29 661.41 475.92 643.70 481.97 C 643.64 472.31 643.84 462.63 643.12 452.99 C 642.53 448.79 642.64 443.89 639.26 440.79 C 629.39 430.59 619.94 419.99 611.09 408.89 C 604.84 401.45 599.96 392.85 592.82 386.16 C 590.54 383.97 589.14 381.10 587.66 378.36 C 578.04 360.41 567.23 342.76 552.51 328.50 C 541.67 315.58 532.51 301.28 524.23 286.61 C 521.23 280.74 517.45 274.84 517.38 268.03 C 523.52 269.65 528.43 273.80 533.25 277.71 C 545.27 287.75 556.62 298.78 570.02 307.03 C 571.87 307.90 575.05 309.96 576.40 307.45 C 577.65 302.84 573.97 299.00 571.11 295.89 C 558.67 283.20 543.60 273.51 530.43 261.63 C 523.41 255.46 515.73 248.56 514.10 238.86 C 512.81 234.12 514.66 228.95 518.72 226.17 C 530.14 232.69 538.30 243.63 549.88 249.95 C 560.84 255.94 571.45 262.54 582.28 268.74 C 585.97 270.77 589.71 273.41 594.14 273.01 C 588.47 266.90 581.44 262.29 575.13 256.89 C 563.19 246.85 550.20 237.94 539.66 226.35 C 531.10 217.10 522.77 207.51 516.35 196.62 C 514.18 192.52 511.70 187.96 512.66 183.16 C 514.22 180.04 518.03 180.22 521.00 180.30 C 528.81 180.22 535.25 185.31 541.08 189.88 C 559.68 205.56 576.84 222.89 595.80 238.16 C 602.17 243.18 609.66 246.54 616.98 249.93 C 619.54 251.27 622.38 251.57 625.08 250.38 C 618.24 245.40 610.91 241.07 604.58 235.43 C 594.04 224.87 582.04 215.95 570.54 206.49 C 563.71 200.78 555.53 195.83 551.62 187.49 C 549.85 183.14 548.67 177.65 551.44 173.48 Z" />
<path fill="#ffffff" opacity="1.00" d=" M 274.01 291.96 C 288.97 290.84 304.03 289.40 319.01 290.98 C 327.57 291.78 334.77 296.96 342.97 299.01 C 353.08 301.62 362.99 304.98 373.22 307.08 C 379.50 308.36 384.68 312.30 390.55 314.62 C 392.58 315.45 394.53 316.47 396.41 317.63 C 408.58 325.13 420.80 332.56 433.12 339.82 C 439.30 343.33 445.32 347.18 451.86 350.01 C 471.24 357.64 492.07 361.25 510.89 370.36 C 515.77 372.56 520.99 373.84 525.97 375.79 C 526.18 376.13 526.59 376.79 526.80 377.12 C 522.12 377.92 517.44 378.78 512.91 380.24 C 505.88 380.75 498.80 380.16 491.78 380.98 C 473.07 379.77 454.24 381.17 435.56 379.27 C 432.36 378.73 429.21 377.86 425.97 377.66 C 418.50 377.60 411.52 374.08 404.01 374.34 C 397.92 373.94 392.14 376.48 386.07 376.29 C 379.06 376.43 371.84 375.65 365.12 378.11 C 357.53 380.57 349.61 382.09 342.27 385.28 C 335.13 388.41 330.61 395.30 323.61 398.68 C 317.92 401.56 313.66 407.09 312.91 413.49 C 313.44 413.55 314.51 413.67 315.05 413.72 C 316.18 410.29 317.27 406.59 319.97 404.03 C 323.22 401.12 327.39 399.54 330.75 396.79 C 334.26 393.94 337.36 390.52 341.35 388.32 C 345.46 386.00 350.10 384.93 354.57 383.57 C 361.52 381.75 368.31 378.98 375.56 378.54 C 380.69 378.14 385.84 378.55 390.97 378.23 C 396.61 377.47 402.29 375.78 408.02 376.74 C 414.03 377.85 419.90 379.76 426.03 380.18 C 430.39 380.40 434.63 381.54 438.94 382.12 C 451.95 383.18 465.11 381.44 478.06 383.27 C 480.85 383.19 483.66 382.24 486.46 382.91 C 489.92 383.73 493.51 383.60 497.00 382.94 C 504.09 381.65 511.57 383.86 518.44 381.24 C 521.60 380.55 524.77 379.94 527.82 378.84 C 529.75 378.40 531.69 377.99 533.64 377.60 C 537.57 381.38 541.86 385.06 547.09 386.89 C 555.43 389.71 564.32 389.61 572.99 390.24 C 579.46 390.29 585.95 389.70 592.29 388.37 C 595.11 391.55 597.75 394.90 600.34 398.28 C 597.28 399.77 594.28 401.62 590.90 402.26 C 582.46 402.53 574.73 406.32 566.83 408.92 C 563.28 410.29 559.58 408.69 555.96 408.66 C 542.29 408.26 528.61 408.49 514.94 408.37 C 510.92 408.10 507.04 410.01 503.05 409.09 C 499.14 408.45 495.12 408.67 491.30 407.55 C 485.27 405.87 478.92 406.33 472.84 407.43 C 465.44 407.71 458.01 407.75 450.74 409.33 C 441.84 409.56 432.92 410.65 424.41 413.31 C 418.65 415.23 412.48 416.05 407.18 419.15 C 400.38 422.96 392.55 424.21 385.60 427.67 C 378.31 431.01 370.00 431.07 362.87 434.78 C 358.97 436.56 354.47 435.06 350.46 436.49 C 348.33 437.85 347.26 440.22 346.59 442.57 C 352.53 440.47 358.60 438.38 364.97 438.27 C 374.31 437.87 382.79 433.21 392.06 432.49 C 404.63 430.94 417.35 428.68 428.64 422.60 C 436.96 420.21 445.02 415.81 453.93 416.53 C 457.98 417.07 461.97 418.03 466.06 418.29 C 471.77 418.48 477.26 420.45 482.99 420.42 C 489.02 420.43 495.06 420.29 501.03 421.24 C 507.64 420.40 514.33 420.41 520.98 420.63 C 525.66 421.18 530.25 422.52 535.00 422.49 C 549.35 422.70 563.69 422.57 578.03 422.65 C 583.92 422.87 589.77 421.70 595.45 420.31 C 600.87 418.08 606.45 416.33 612.36 416.22 C 609.13 412.69 603.67 414.61 599.79 416.06 C 592.01 419.44 583.44 420.72 575.00 420.41 C 559.10 420.14 543.15 421.03 527.33 419.29 C 520.98 417.82 514.45 418.54 508.01 418.53 C 497.67 418.92 487.37 417.86 477.05 417.49 C 473.66 417.23 470.42 416.10 467.04 415.80 C 458.38 415.45 449.39 412.62 440.95 415.92 C 435.45 418.27 429.45 419.29 424.14 422.12 C 416.62 425.54 408.62 428.13 400.35 428.78 C 394.94 430.14 389.41 430.60 383.85 430.74 C 392.52 426.84 401.99 424.90 410.31 420.21 C 416.36 417.46 423.00 416.40 429.29 414.34 C 437.46 411.79 446.10 412.93 454.37 411.02 C 459.85 409.81 465.52 410.91 471.04 410.07 C 475.35 409.57 479.61 408.03 483.99 408.68 C 493.62 409.97 503.39 412.97 513.10 410.64 C 525.74 410.41 538.40 410.63 551.05 410.65 C 556.35 410.60 561.63 412.45 566.91 411.36 C 575.05 408.63 583.07 404.83 591.78 404.41 C 595.42 403.53 599.05 402.01 602.90 402.80 C 605.48 404.61 607.06 407.49 609.13 409.84 C 618.15 421.41 628.11 432.21 638.15 442.90 C 641.34 446.12 641.76 451.29 640.53 455.46 C 637.78 458.02 634.05 459.08 630.72 460.67 C 617.93 467.06 605.92 475.94 591.56 478.46 C 583.30 479.64 574.91 480.95 567.25 484.43 C 565.10 485.22 563.42 486.79 562.21 488.71 C 567.18 487.53 571.60 484.78 576.58 483.60 C 584.72 481.37 593.31 481.16 601.32 478.34 C 613.20 473.82 623.66 466.37 635.23 461.19 C 631.76 465.86 627.49 470.37 626.22 476.22 C 625.61 482.09 627.77 487.77 628.61 493.52 C 635.39 526.49 642.36 559.45 650.97 592.00 L 229.14 592.00 C 229.95 590.70 230.70 589.36 231.59 588.12 C 234.19 587.49 236.91 587.96 239.53 587.40 C 243.14 586.19 246.38 584.10 249.97 582.85 C 256.68 580.50 263.82 579.42 270.27 576.35 C 274.72 574.28 279.50 572.58 283.16 569.19 C 288.12 564.14 294.82 560.03 296.35 552.58 C 295.74 552.48 294.53 552.27 293.92 552.16 C 293.11 556.00 290.85 559.37 287.75 561.75 C 284.74 564.05 282.51 567.24 279.31 569.31 C 271.04 574.28 261.83 577.41 252.49 579.63 C 247.62 580.66 243.52 583.65 238.83 585.11 C 236.11 585.57 233.33 585.37 230.59 585.51 C 235.81 575.05 240.97 564.55 245.96 553.98 C 249.50 546.10 253.35 538.21 254.78 529.62 C 255.14 526.25 257.49 523.68 258.56 520.59 C 259.70 509.09 264.58 498.43 267.36 487.29 C 269.11 479.14 272.09 471.32 275.86 463.90 C 277.88 458.62 279.73 453.26 282.21 448.16 C 287.74 436.55 290.55 423.93 294.98 411.90 C 297.66 404.94 300.03 397.85 301.79 390.59 C 303.33 382.21 311.13 377.32 315.20 370.27 C 321.59 359.62 324.60 347.38 330.26 336.36 C 329.63 336.37 328.38 336.39 327.75 336.40 C 321.19 349.10 318.47 363.88 308.92 374.90 C 305.42 379.14 301.10 383.15 299.88 388.73 C 298.02 396.78 295.37 404.62 292.40 412.33 C 288.43 423.12 285.92 434.45 281.12 444.94 C 279.55 448.98 277.49 452.81 276.00 456.88 C 273.43 465.03 268.70 472.35 266.71 480.71 C 264.54 490.38 261.08 499.67 258.44 509.22 C 256.64 513.62 257.43 518.72 254.95 522.87 C 253.13 526.09 252.40 529.96 249.63 532.60 C 238.18 545.42 220.75 551.04 204.02 552.17 C 199.88 552.69 195.39 551.59 191.58 553.71 C 186.95 555.95 181.96 557.66 177.87 560.86 C 173.12 564.80 167.55 567.60 162.82 571.56 C 162.86 569.41 162.89 567.27 162.80 565.15 C 160.04 568.06 160.53 572.20 160.31 575.89 C 156.37 577.70 152.29 579.48 147.89 579.67 C 139.94 580.38 131.61 577.98 123.96 581.06 C 118.85 583.04 114.42 586.83 112.39 592.00 L 80.80 592.00 C 78.65 586.33 76.71 580.62 75.12 574.78 C 67.93 561.53 58.65 549.52 49.00 537.97 C 46.59 535.02 43.98 532.20 40.84 530.01 C 41.43 534.10 45.14 536.43 47.52 539.48 C 56.26 549.91 64.60 560.76 71.45 572.55 C 74.35 576.41 74.38 581.43 76.21 585.75 C 77.07 587.80 77.80 589.91 78.59 592.00 L 0.00 592.00 L 0.00 471.64 C 7.30 469.81 15.63 469.52 22.22 473.68 C 29.97 478.21 34.52 486.28 41.37 491.87 C 41.92 487.89 41.44 483.90 41.17 479.92 C 46.77 483.50 51.61 488.16 55.45 493.57 C 63.19 504.22 68.88 516.17 73.85 528.31 C 77.93 538.15 80.95 548.45 86.29 557.73 C 89.20 562.65 91.77 567.93 95.90 571.99 C 96.05 568.50 93.57 565.85 91.94 563.02 C 87.50 556.04 83.74 548.62 80.96 540.82 C 75.03 524.95 68.66 509.02 59.05 494.96 C 53.69 487.18 47.06 479.72 38.02 476.28 C 38.37 479.86 39.16 483.37 39.59 486.95 C 32.71 480.28 26.70 471.79 17.04 468.97 C 11.88 466.83 6.17 467.36 0.96 469.01 L 0.00 469.26 L 0.00 461.75 C 5.85 461.49 12.26 460.91 16.83 456.82 C 23.07 450.80 25.13 441.33 32.28 436.15 C 44.54 431.14 58.00 429.19 69.64 422.63 C 83.03 415.31 95.66 406.71 108.58 398.60 C 117.53 393.02 126.41 387.04 136.43 383.51 C 163.49 373.90 189.08 360.20 212.18 343.16 C 230.96 329.53 248.00 313.74 264.97 297.97 C 267.69 295.61 269.99 291.89 274.01 291.96 M 222.34 347.28 C 217.58 347.64 213.58 350.94 212.98 355.78 C 209.44 355.70 205.76 355.54 202.68 357.57 C 197.92 357.60 193.18 359.38 189.91 362.93 C 187.55 365.61 183.33 366.25 181.72 369.62 C 181.19 372.75 181.49 375.96 181.57 379.13 C 186.90 380.69 192.50 379.58 197.95 380.11 C 200.02 380.73 201.95 381.83 204.18 381.83 C 202.87 379.67 200.71 377.74 198.05 377.79 C 193.22 377.65 188.39 377.92 183.57 377.48 C 183.63 374.78 183.76 372.07 184.28 369.41 C 186.67 368.19 189.23 367.12 191.04 365.06 C 194.34 361.58 199.03 359.62 203.81 359.76 C 206.33 358.13 209.21 357.76 212.17 357.79 C 209.39 364.37 203.58 368.88 198.08 373.13 C 197.08 373.85 196.44 374.91 195.76 375.92 C 197.11 375.64 198.57 375.54 199.65 374.59 C 206.59 369.58 213.31 363.32 215.55 354.74 C 216.21 351.17 219.82 349.70 223.04 349.30 C 232.61 347.83 242.32 347.64 251.97 347.25 C 260.59 347.15 269.21 346.26 277.83 346.75 C 277.67 349.53 276.96 352.24 276.57 354.99 C 276.07 358.64 277.47 362.12 278.56 365.52 C 275.60 367.07 272.34 367.92 269.01 368.08 C 254.68 369.08 240.31 367.32 225.99 368.39 C 222.29 368.60 218.70 369.68 215.46 371.46 C 215.48 372.11 215.52 373.41 215.54 374.06 C 218.28 372.42 221.16 370.84 224.42 370.70 C 239.96 369.19 255.60 371.44 271.14 370.05 C 274.44 369.56 278.45 369.09 280.32 365.90 C 280.53 362.51 278.42 359.41 278.60 356.00 C 278.86 352.97 279.91 350.08 280.36 347.08 C 278.59 343.69 274.17 344.56 271.01 344.49 C 254.79 345.17 238.44 344.94 222.34 347.28 M 425.83 353.16 C 421.86 354.03 418.24 356.49 414.06 356.31 C 402.36 356.28 390.65 356.20 378.95 356.37 C 374.19 356.31 369.74 358.25 365.04 358.70 C 359.91 359.13 355.65 362.17 351.07 364.17 C 343.16 368.15 336.02 373.53 329.61 379.62 C 325.20 383.68 319.85 386.50 315.07 390.08 C 312.55 392.96 311.63 396.82 310.32 400.33 C 308.16 404.74 310.70 410.14 307.29 414.14 C 308.60 413.90 309.92 413.66 311.25 413.42 C 311.49 410.30 311.39 407.17 311.66 404.06 C 313.03 399.88 314.02 395.36 316.79 391.84 C 321.69 388.03 327.22 385.05 331.84 380.86 C 340.31 372.30 350.99 366.24 362.03 361.65 C 368.68 360.73 375.16 358.56 381.92 358.48 C 393.97 358.09 406.04 358.67 418.08 358.26 C 423.37 356.30 428.75 354.34 434.48 354.31 C 434.53 353.82 434.63 352.84 434.67 352.35 C 431.71 352.39 428.70 352.31 425.83 353.16 M 149.15 409.07 C 141.73 410.91 135.53 415.69 130.10 420.87 C 134.55 421.55 136.86 417.13 140.30 415.25 C 150.84 408.34 164.06 409.25 176.01 410.51 C 196.83 412.94 217.78 413.64 238.70 414.61 C 231.56 420.23 224.21 425.58 216.75 430.76 C 211.44 434.45 205.18 436.37 199.04 438.19 C 177.46 444.17 155.00 445.60 132.75 446.87 C 135.23 446.04 138.20 446.11 140.00 443.93 C 148.92 436.80 161.15 438.05 171.37 434.27 C 171.39 433.67 171.43 432.45 171.45 431.84 C 166.19 434.48 160.19 434.06 154.65 435.73 C 149.60 436.09 145.06 438.42 140.59 440.58 C 138.75 441.70 137.19 443.46 134.93 443.73 C 130.65 444.72 126.52 446.95 122.00 446.42 C 112.30 445.95 102.50 445.37 93.07 442.87 C 90.32 442.26 87.53 440.50 84.70 441.80 C 93.63 446.64 104.10 447.10 114.01 448.13 C 133.94 449.33 153.98 448.20 173.75 445.47 C 185.47 443.72 197.19 441.46 208.35 437.41 C 215.11 435.08 220.71 430.51 226.49 426.45 C 232.07 422.30 237.76 418.29 243.09 413.82 C 241.78 413.23 240.50 412.37 239.01 412.41 C 221.15 411.75 203.27 411.11 185.48 409.34 C 173.44 408.35 161.08 405.97 149.15 409.07 M 567.38 445.23 C 563.35 446.38 559.01 446.98 555.55 449.53 C 551.68 452.46 546.69 452.51 542.15 453.51 C 537.29 454.77 532.21 454.87 527.40 456.37 C 522.13 457.42 517.22 459.85 511.89 460.61 C 504.31 461.26 498.56 467.03 491.22 468.60 C 491.31 469.13 491.50 470.20 491.59 470.74 C 497.82 470.36 502.57 465.58 508.30 463.68 C 517.79 462.58 526.48 458.02 536.00 457.07 C 542.60 455.59 549.53 455.27 555.80 452.54 C 567.38 445.18 582.03 446.23 594.12 439.98 C 593.59 439.70 592.55 439.14 592.03 438.86 C 583.98 441.59 575.64 443.23 567.38 445.23 Z" />
<path fill="#ffffff" opacity="1.00" d=" M 786.88 426.45 C 796.11 425.94 805.05 423.48 814.12 421.96 C 826.39 420.08 838.17 424.89 850.18 426.39 C 857.48 426.65 864.03 430.20 870.99 432.02 C 876.06 433.76 881.67 433.99 886.35 436.78 C 892.22 440.79 896.84 446.24 901.31 451.69 C 907.90 459.41 914.52 467.11 921.29 474.69 C 926.14 480.16 930.88 485.80 936.65 490.36 C 941.65 494.53 944.29 500.65 948.42 505.56 C 949.78 507.22 951.11 508.92 952.19 510.80 C 957.76 520.53 963.05 530.45 968.92 540.02 C 970.15 542.13 971.81 544.31 971.30 546.94 C 969.97 562.02 968.15 577.06 965.71 592.00 L 830.11 592.00 C 824.67 584.74 821.63 575.99 816.35 568.62 C 814.48 565.91 812.83 563.04 811.27 560.14 C 815.29 557.27 819.70 554.94 824.46 553.59 C 835.36 550.46 846.74 549.51 858.02 549.19 C 869.00 548.67 879.99 548.47 890.98 548.50 C 900.91 549.25 910.93 547.44 920.25 544.07 C 927.00 540.75 933.15 536.32 939.85 532.88 C 942.70 531.49 945.53 527.91 943.40 524.78 C 940.65 522.13 936.52 522.31 932.99 522.56 C 925.67 523.37 918.37 524.38 911.02 524.81 C 902.72 525.79 894.34 524.92 886.02 525.59 C 867.95 527.18 849.91 529.19 831.98 531.98 C 827.77 532.64 823.44 533.44 819.84 535.86 C 814.27 539.39 808.86 543.16 803.24 546.60 C 801.15 543.54 798.34 540.27 799.15 536.27 C 800.91 520.46 811.02 507.49 819.77 494.82 C 821.19 492.51 823.93 489.01 820.84 486.83 C 817.60 486.23 814.40 487.58 811.33 488.46 C 805.51 490.24 801.20 494.87 797.53 499.49 C 794.90 502.49 792.48 505.67 790.54 509.15 C 789.57 501.54 787.67 493.94 783.68 487.31 C 777.50 476.95 773.59 465.49 768.35 454.66 C 764.91 447.50 761.55 440.27 757.27 433.55 C 762.58 431.88 767.43 428.65 773.10 428.27 C 777.76 428.14 782.22 426.52 786.88 426.45 Z" />
<path fill="#ffffff" opacity="1.00" d=" M 745.61 428.37 C 746.21 427.77 747.43 426.56 748.04 425.95 C 750.97 428.39 753.52 431.29 755.47 434.59 C 764.16 448.64 770.15 464.11 776.95 479.11 C 781.08 487.28 786.45 495.09 787.67 504.40 C 788.68 513.91 792.66 522.70 795.00 531.90 C 796.17 536.21 796.78 540.83 799.37 544.59 C 805.81 553.14 809.80 563.23 816.07 571.90 C 820.07 578.43 823.32 585.39 827.19 592.00 L 653.19 592.00 C 643.91 557.09 636.65 521.67 629.28 486.32 C 633.07 486.71 636.91 486.41 640.56 485.29 C 650.87 482.31 660.61 477.73 670.36 473.32 C 690.96 463.49 711.10 452.63 730.27 440.21 C 735.60 436.58 741.17 433.11 745.61 428.37 Z" />
<path fill="#ffffff" opacity="1.00" d=" M 913.27 526.70 C 920.90 526.37 928.43 524.87 936.05 524.50 C 938.13 524.63 941.63 524.50 942.02 527.16 C 941.74 530.45 938.03 531.31 935.65 532.69 C 931.93 534.97 928.21 537.24 924.47 539.48 C 918.42 543.59 911.00 544.66 903.97 545.96 C 897.37 547.32 890.64 546.02 883.98 546.42 C 864.83 546.99 845.38 546.31 826.63 550.85 C 820.72 552.25 815.02 554.66 810.22 558.44 C 808.59 555.53 806.81 552.69 805.32 549.70 C 804.41 547.84 806.74 546.87 807.91 545.94 C 812.82 543.29 817.19 539.78 822.01 536.98 C 825.63 534.79 829.95 534.57 834.00 533.79 C 851.60 531.11 869.29 529.12 887.02 527.61 C 895.76 526.99 904.57 527.91 913.27 526.70 Z" />
<path fill="#ffffff" opacity="1.00" d=" M 205.98 554.12 C 222.87 552.90 239.72 546.46 251.58 534.07 C 246.88 549.18 239.04 563.06 232.29 577.30 C 229.70 582.15 227.89 587.42 224.82 592.00 L 115.00 592.00 C 116.55 588.13 119.76 585.19 123.53 583.53 C 130.28 580.35 137.88 582.01 145.03 581.91 C 151.06 581.81 157.76 580.65 162.27 576.39 C 165.51 570.82 171.71 568.40 176.63 564.68 C 184.74 557.80 195.43 554.36 205.98 554.12 Z" />
</g>
<g id="#0f0f0fff">
<path fill="#0f0f0f" opacity="1.00" d=" M 678.84 0.00 L 703.23 0.00 C 722.18 1.96 740.93 7.59 756.99 18.01 C 769.30 25.99 782.69 33.43 791.31 45.69 C 797.00 53.67 801.26 62.54 805.82 71.19 C 810.21 79.38 810.70 88.91 810.89 98.00 C 810.99 121.08 807.29 144.18 800.30 166.17 C 795.69 179.76 789.89 193.86 778.53 203.23 C 782.97 203.86 788.44 203.62 791.65 207.31 C 797.12 215.15 796.65 225.74 793.30 234.34 C 788.15 247.75 778.18 258.40 769.54 269.60 C 766.84 272.93 765.75 277.55 762.00 279.97 C 757.65 282.75 752.59 284.01 747.80 285.77 C 745.15 286.60 742.56 288.52 739.69 287.41 C 746.41 282.40 755.62 282.45 762.11 277.09 C 764.69 273.92 766.15 269.96 768.87 266.86 C 777.96 255.32 788.39 244.04 792.57 229.60 C 794.45 222.44 794.25 213.69 789.14 207.87 C 784.68 205.10 779.01 205.35 773.96 205.76 C 768.07 206.70 761.74 207.98 757.26 212.22 C 754.63 214.55 752.17 217.45 748.49 217.99 C 751.01 214.72 754.12 211.93 757.30 209.31 C 761.85 205.64 767.85 205.12 773.21 203.33 C 779.39 200.96 783.68 195.52 787.16 190.12 C 794.23 178.69 798.55 165.80 801.86 152.85 C 805.40 138.84 807.60 124.49 808.50 110.06 C 808.87 100.03 809.17 89.83 806.88 79.98 C 805.66 74.55 802.57 69.84 800.12 64.91 C 795.98 57.25 792.03 49.36 786.26 42.76 C 780.69 36.19 773.47 31.36 766.40 26.58 C 758.81 21.71 751.32 16.58 743.09 12.82 C 724.74 4.18 704.14 0.97 683.98 1.95 C 647.00 4.07 611.12 19.08 582.74 42.73 C 569.17 53.99 558.81 68.38 548.44 82.49 C 537.91 97.25 532.60 114.82 528.10 132.18 C 525.99 140.99 523.80 149.89 523.75 159.00 C 524.05 165.86 519.10 171.19 517.21 177.45 C 522.00 178.04 527.01 178.32 531.35 180.66 C 538.55 184.44 544.64 189.94 550.68 195.31 C 565.76 208.57 580.16 222.58 595.68 235.32 C 601.27 239.98 607.83 243.28 614.44 246.24 C 611.02 243.04 607.01 240.57 603.55 237.43 C 593.49 227.40 582.20 218.73 571.17 209.80 C 564.83 204.52 557.84 199.87 552.62 193.39 C 548.43 187.95 546.16 180.38 548.69 173.74 C 550.78 169.13 556.60 169.01 560.90 169.80 C 569.97 171.82 578.24 176.27 586.36 180.62 C 597.85 186.69 608.31 194.62 620.22 199.92 C 624.40 201.78 627.24 205.46 630.47 208.55 C 645.82 223.83 661.55 238.72 677.00 253.90 C 679.93 242.54 687.34 232.44 697.58 226.64 C 703.68 223.24 710.68 220.60 717.77 221.42 C 721.08 221.76 725.17 224.13 724.61 227.98 C 723.93 233.40 719.50 237.24 715.93 240.97 C 708.24 248.51 705.22 260.04 707.10 270.51 C 708.71 281.17 713.18 291.05 717.04 301.03 C 718.79 305.37 718.32 310.12 718.80 314.68 C 719.53 320.30 719.80 325.98 719.69 331.64 L 718.50 332.76 C 717.36 327.91 717.50 322.91 716.85 317.99 C 716.22 312.20 716.80 306.15 714.53 300.64 C 709.96 288.84 704.40 276.89 704.47 263.98 C 704.23 255.61 707.41 247.21 713.00 240.99 C 716.39 237.19 720.70 233.83 722.36 228.83 C 723.45 225.75 720.16 223.77 717.52 223.55 C 710.62 222.84 703.82 225.47 697.99 228.95 C 688.25 234.73 681.05 244.72 678.99 255.89 C 683.17 260.03 687.26 264.27 691.66 268.18 C 691.25 268.59 690.42 269.42 690.00 269.83 C 682.87 263.36 676.44 256.17 669.45 249.56 C 655.19 235.81 640.98 222.03 626.94 208.07 C 624.92 206.08 623.01 203.89 620.49 202.52 C 600.99 193.46 584.10 179.06 563.33 172.68 C 559.52 171.68 554.62 170.41 551.44 173.48 C 548.67 177.65 549.85 183.14 551.62 187.49 C 555.53 195.83 563.71 200.78 570.54 206.49 C 582.04 215.95 594.04 224.87 604.58 235.43 C 610.91 241.07 618.24 245.40 625.08 250.38 C 622.38 251.57 619.54 251.27 616.98 249.93 C 609.66 246.54 602.17 243.18 595.80 238.16 C 576.84 222.89 559.68 205.56 541.08 189.88 C 535.25 185.31 528.81 180.22 521.00 180.30 C 518.03 180.22 514.22 180.04 512.66 183.16 C 511.70 187.96 514.18 192.52 516.35 196.62 C 522.77 207.51 531.10 217.10 539.66 226.35 C 550.20 237.94 563.19 246.85 575.13 256.89 C 581.44 262.29 588.47 266.90 594.14 273.01 C 589.71 273.41 585.97 270.77 582.28 268.74 C 571.45 262.54 560.84 255.94 549.88 249.95 C 538.30 243.63 530.14 232.69 518.72 226.17 C 514.66 228.95 512.81 234.12 514.10 238.86 C 515.73 248.56 523.41 255.46 530.43 261.63 C 543.60 273.51 558.67 283.20 571.11 295.89 C 573.97 299.00 577.65 302.84 576.40 307.45 C 575.05 309.96 571.87 307.90 570.02 307.03 C 556.62 298.78 545.27 287.75 533.25 277.71 C 528.43 273.80 523.52 269.65 517.38 268.03 C 517.45 274.84 521.23 280.74 524.23 286.61 C 532.51 301.28 541.67 315.58 552.51 328.50 C 567.23 342.76 578.04 360.41 587.66 378.36 C 589.14 381.10 590.54 383.97 592.82 386.16 C 599.96 392.85 604.84 401.45 611.09 408.89 C 619.94 419.99 629.39 430.59 639.26 440.79 C 642.64 443.89 642.53 448.79 643.12 452.99 C 643.84 462.63 643.64 472.31 643.70 481.97 C 661.41 475.92 678.09 467.29 694.64 458.64 C 712.34 449.00 730.02 439.02 745.66 426.22 C 745.65 426.76 745.62 427.83 745.61 428.37 C 741.17 433.11 735.60 436.58 730.27 440.21 C 711.10 452.63 690.96 463.49 670.36 473.32 C 660.61 477.73 650.87 482.31 640.56 485.29 C 636.91 486.41 633.07 486.71 629.28 486.32 C 636.65 521.67 643.91 557.09 653.19 592.00 L 650.97 592.00 C 642.36 559.45 635.39 526.49 628.61 493.52 C 627.77 487.77 625.61 482.09 626.22 476.22 C 627.49 470.37 631.76 465.86 635.23 461.19 C 623.66 466.37 613.20 473.82 601.32 478.34 C 593.31 481.16 584.72 481.37 576.58 483.60 C 571.60 484.78 567.18 487.53 562.21 488.71 C 563.42 486.79 565.10 485.22 567.25 484.43 C 574.91 480.95 583.30 479.64 591.56 478.46 C 605.92 475.94 617.93 467.06 630.72 460.67 C 634.05 459.08 637.78 458.02 640.53 455.46 C 641.76 451.29 641.34 446.12 638.15 442.90 C 628.11 432.21 618.15 421.41 609.13 409.84 C 607.06 407.49 605.48 404.61 602.90 402.80 C 599.05 402.01 595.42 403.53 591.78 404.41 C 583.07 404.83 575.05 408.63 566.91 411.36 C 561.63 412.45 556.35 410.60 551.05 410.65 C 538.40 410.63 525.74 410.41 513.10 410.64 C 503.39 412.97 493.62 409.97 483.99 408.68 C 479.61 408.03 475.35 409.57 471.04 410.07 C 465.52 410.91 459.85 409.81 454.37 411.02 C 446.10 412.93 437.46 411.79 429.29 414.34 C 423.00 416.40 416.36 417.46 410.31 420.21 C 401.99 424.90 392.52 426.84 383.85 430.74 C 389.41 430.60 394.94 430.14 400.35 428.78 C 408.62 428.13 416.62 425.54 424.14 422.12 C 429.45 419.29 435.45 418.27 440.95 415.92 C 449.39 412.62 458.38 415.45 467.04 415.80 C 470.42 416.10 473.66 417.23 477.05 417.49 C 487.37 417.86 497.67 418.92 508.01 418.53 C 514.45 418.54 520.98 417.82 527.33 419.29 C 543.15 421.03 559.10 420.14 575.00 420.41 C 583.44 420.72 592.01 419.44 599.79 416.06 C 603.67 414.61 609.13 412.69 612.36 416.22 C 606.45 416.33 600.87 418.08 595.45 420.31 C 589.77 421.70 583.92 422.87 578.03 422.65 C 563.69 422.57 549.35 422.70 535.00 422.49 C 530.25 422.52 525.66 421.18 520.98 420.63 C 514.33 420.41 507.64 420.40 501.03 421.24 C 495.06 420.29 489.02 420.43 482.99 420.42 C 477.26 420.45 471.77 418.48 466.06 418.29 C 461.97 418.03 457.98 417.07 453.93 416.53 C 445.02 415.81 436.96 420.21 428.64 422.60 C 417.35 428.68 404.63 430.94 392.06 432.49 C 382.79 433.21 374.31 437.87 364.97 438.27 C 358.60 438.38 352.53 440.47 346.59 442.57 C 347.26 440.22 348.33 437.85 350.46 436.49 C 354.47 435.06 358.97 436.56 362.87 434.78 C 370.00 431.07 378.31 431.01 385.60 427.67 C 392.55 424.21 400.38 422.96 407.18 419.15 C 412.48 416.05 418.65 415.23 424.41 413.31 C 432.92 410.65 441.84 409.56 450.74 409.33 C 458.01 407.75 465.44 407.71 472.84 407.43 C 478.92 406.33 485.27 405.87 491.30 407.55 C 495.12 408.67 499.14 408.45 503.05 409.09 C 507.04 410.01 510.92 408.10 514.94 408.37 C 528.61 408.49 542.29 408.26 555.96 408.66 C 559.58 408.69 563.28 410.29 566.83 408.92 C 574.73 406.32 582.46 402.53 590.90 402.26 C 594.28 401.62 597.28 399.77 600.34 398.28 C 597.75 394.90 595.11 391.55 592.29 388.37 C 585.95 389.70 579.46 390.29 572.99 390.24 C 564.32 389.61 555.43 389.71 547.09 386.89 C 541.86 385.06 537.57 381.38 533.64 377.60 C 534.29 377.48 535.60 377.23 536.25 377.10 C 540.09 380.66 544.36 384.10 549.55 385.38 C 555.88 386.98 562.42 387.72 568.95 387.71 C 575.89 387.68 582.95 388.18 589.77 386.57 C 584.78 378.86 582.18 369.10 574.21 363.76 C 562.06 354.26 549.69 342.57 533.55 341.24 C 533.49 340.72 533.38 339.66 533.32 339.13 C 544.98 339.39 554.99 346.34 564.08 352.95 C 568.04 355.93 571.88 359.08 575.73 362.22 C 571.35 354.52 566.28 347.21 560.58 340.44 C 555.75 334.61 549.95 329.63 545.57 323.43 C 535.23 309.40 525.49 294.79 517.98 279.04 C 515.98 275.15 514.96 270.80 515.53 266.42 C 517.88 266.42 520.40 266.19 522.51 267.47 C 529.48 271.18 535.29 276.65 541.29 281.71 C 549.69 289.05 558.17 296.35 567.30 302.78 C 569.65 304.48 572.29 305.70 575.00 306.70 C 573.85 301.63 570.25 297.80 566.55 294.41 C 553.88 282.65 539.49 272.93 526.72 261.28 C 520.55 255.65 514.21 249.30 512.28 240.88 C 510.67 235.29 511.60 227.74 517.21 224.74 C 520.03 223.80 522.55 225.81 524.74 227.32 C 531.32 232.34 537.18 238.24 543.76 243.27 C 549.92 248.06 557.09 251.26 563.73 255.30 C 569.69 258.65 575.36 262.51 581.52 265.51 C 578.02 261.61 573.72 258.60 569.69 255.30 C 558.38 246.01 546.37 237.41 536.65 226.36 C 526.43 215.08 516.34 203.28 510.19 189.20 C 507.18 194.58 504.14 200.47 504.88 206.84 C 506.14 215.23 504.73 223.82 506.69 232.13 C 509.46 244.63 511.57 257.26 513.22 269.94 C 512.85 271.53 512.46 273.37 510.59 273.68 C 511.30 266.01 509.12 258.56 508.19 251.01 C 506.98 243.05 504.75 235.27 503.71 227.27 C 503.05 221.54 503.79 215.74 502.96 210.03 C 502.41 205.85 502.41 201.53 503.85 197.53 C 505.30 192.42 509.15 188.45 510.63 183.35 C 511.45 180.44 514.52 178.97 515.51 176.16 C 516.73 172.67 518.41 169.39 520.04 166.09 C 522.63 160.98 521.14 155.11 522.27 149.68 C 524.84 133.70 529.36 118.05 535.00 102.89 C 541.08 86.98 552.05 73.70 562.48 60.48 C 567.65 53.73 573.81 47.82 580.13 42.16 C 607.69 18.46 642.68 3.59 678.84 0.00 M 365.75 435.86 C 371.68 434.65 377.88 433.84 383.38 431.18 C 377.50 432.70 371.51 433.91 365.75 435.86 M 628.82 474.71 C 627.29 478.12 628.06 483.02 631.97 484.40 C 635.21 484.56 638.35 483.52 641.49 482.82 C 641.57 474.61 641.71 466.38 641.17 458.19 C 636.49 463.21 631.54 468.29 628.82 474.71 Z" />
<path fill="#0f0f0f" opacity="1.00" d=" M 754.01 222.03 C 760.43 217.98 767.82 215.77 775.17 214.13 C 778.96 213.45 783.93 213.19 786.43 216.74 C 787.97 221.28 785.13 225.84 781.43 228.32 C 779.41 229.89 776.27 229.87 774.85 232.12 C 774.24 237.43 774.85 243.26 771.92 248.01 C 768.93 251.94 763.95 253.70 761.02 257.73 C 760.53 257.51 759.55 257.07 759.06 256.85 C 761.77 252.52 766.79 250.66 770.04 246.89 C 773.09 241.58 771.80 235.11 773.42 229.38 C 777.30 228.04 781.69 226.69 783.76 222.80 C 785.00 220.83 785.42 217.20 782.62 216.39 C 778.09 214.96 773.37 216.74 768.99 217.91 C 762.44 219.98 755.24 222.22 750.90 227.92 C 747.95 231.71 749.81 236.99 752.83 240.14 C 755.04 243.15 759.59 245.56 758.32 249.94 C 756.09 257.29 747.47 259.16 743.33 264.97 C 744.03 270.15 750.68 270.75 753.20 274.78 C 748.87 274.61 745.21 271.69 742.40 268.64 C 740.98 267.34 741.27 265.25 741.54 263.56 C 745.24 258.51 751.97 256.68 755.36 251.35 C 756.00 249.85 757.16 247.89 755.63 246.53 C 752.28 242.49 747.37 238.68 747.34 232.95 C 746.80 228.26 750.37 224.43 754.01 222.03 Z" />
</g>
<g id="#111111ff">
<path fill="#111111" opacity="1.00" d=" M 551.59 131.17 C 555.33 133.04 558.64 135.65 562.38 137.52 C 577.27 144.88 593.24 150.00 607.57 158.50 C 620.90 166.64 635.10 174.06 650.61 176.89 C 650.61 177.40 650.61 178.42 650.61 178.94 C 633.43 176.29 618.06 167.40 603.37 158.58 C 588.64 150.42 572.36 145.54 557.62 137.39 C 555.14 135.87 552.10 134.35 551.59 131.17 Z" />
</g>
<g id="#151515ff">
<path fill="#151515" opacity="1.00" d=" M 550.76 145.83 C 566.52 156.03 583.10 164.90 599.87 173.32 C 606.39 176.61 613.03 179.66 619.84 182.31 C 621.10 182.65 621.70 183.84 622.36 184.86 C 616.99 184.41 612.31 181.43 607.43 179.39 C 587.93 170.05 568.68 160.01 550.53 148.24 C 550.58 147.64 550.70 146.43 550.76 145.83 Z" />
</g>
<g id="#060606ff">
<path fill="#060606" opacity="1.00" d=" M 690.33 194.35 C 695.00 191.84 699.68 188.86 705.14 188.62 C 705.69 188.98 706.77 189.71 707.32 190.07 C 703.67 191.01 699.84 191.49 696.51 193.37 C 690.07 196.83 683.69 200.47 677.74 204.73 C 674.35 207.08 671.82 210.63 667.96 212.29 C 668.42 211.05 668.74 209.68 669.77 208.75 C 675.78 202.85 683.06 198.51 690.33 194.35 Z" />
<path fill="#060606" opacity="1.00" d=" M 149.15 409.07 C 161.08 405.97 173.44 408.35 185.48 409.34 C 203.27 411.11 221.15 411.75 239.01 412.41 C 240.50 412.37 241.78 413.23 243.09 413.82 C 237.76 418.29 232.07 422.30 226.49 426.45 C 220.71 430.51 215.11 435.08 208.35 437.41 C 197.19 441.46 185.47 443.72 173.75 445.47 C 153.98 448.20 133.94 449.33 114.01 448.13 C 104.10 447.10 93.63 446.64 84.70 441.80 C 87.53 440.50 90.32 442.26 93.07 442.87 C 102.50 445.37 112.30 445.95 122.00 446.42 C 126.52 446.95 130.65 444.72 134.93 443.73 C 137.19 443.46 138.75 441.70 140.59 440.58 C 145.06 438.42 149.60 436.09 154.65 435.73 C 160.19 434.06 166.19 434.48 171.45 431.84 C 171.43 432.45 171.39 433.67 171.37 434.27 C 161.15 438.05 148.92 436.80 140.00 443.93 C 138.20 446.11 135.23 446.04 132.75 446.87 C 155.00 445.60 177.46 444.17 199.04 438.19 C 205.18 436.37 211.44 434.45 216.75 430.76 C 224.21 425.58 231.56 420.23 238.70 414.61 C 217.78 413.64 196.83 412.94 176.01 410.51 C 164.06 409.25 150.84 408.34 140.30 415.25 C 136.86 417.13 134.55 421.55 130.10 420.87 C 135.53 415.69 141.73 410.91 149.15 409.07 Z" />
<path fill="#060606" opacity="1.00" d=" M 47.52 539.48 C 45.14 536.43 41.43 534.10 40.84 530.01 C 43.98 532.20 46.59 535.02 49.00 537.97 C 58.65 549.52 67.93 561.53 75.12 574.78 C 76.71 580.62 78.65 586.33 80.80 592.00 L 78.59 592.00 C 77.80 589.91 77.07 587.80 76.21 585.75 C 74.38 581.43 74.35 576.41 71.45 572.55 C 64.60 560.76 56.26 549.91 47.52 539.48 Z" />
</g>
<g id="#fefefeff">
<path fill="#fefefe" opacity="1.00" d=" M 504.88 206.84 C 504.14 200.47 507.18 194.58 510.19 189.20 C 516.34 203.28 526.43 215.08 536.65 226.36 C 546.37 237.41 558.38 246.01 569.69 255.30 C 573.72 258.60 578.02 261.61 581.52 265.51 C 575.36 262.51 569.69 258.65 563.73 255.30 C 557.09 251.26 549.92 248.06 543.76 243.27 C 537.18 238.24 531.32 232.34 524.74 227.32 C 522.55 225.81 520.03 223.80 517.21 224.74 C 511.60 227.74 510.67 235.29 512.28 240.88 C 514.21 249.30 520.55 255.65 526.72 261.28 C 539.49 272.93 553.88 282.65 566.55 294.41 C 570.25 297.80 573.85 301.63 575.00 306.70 C 572.29 305.70 569.65 304.48 567.30 302.78 C 558.17 296.35 549.69 289.05 541.29 281.71 C 535.29 276.65 529.48 271.18 522.51 267.47 C 520.40 266.19 517.88 266.42 515.53 266.42 C 514.96 270.80 515.98 275.15 517.98 279.04 C 525.49 294.79 535.23 309.40 545.57 323.43 C 549.95 329.63 555.75 334.61 560.58 340.44 C 566.28 347.21 571.35 354.52 575.73 362.22 C 571.88 359.08 568.04 355.93 564.08 352.95 C 554.99 346.34 544.98 339.39 533.32 339.13 C 533.38 339.66 533.49 340.72 533.55 341.24 C 549.69 342.57 562.06 354.26 574.21 363.76 C 582.18 369.10 584.78 378.86 589.77 386.57 C 582.95 388.18 575.89 387.68 568.95 387.71 C 562.42 387.72 555.88 386.98 549.55 385.38 C 544.36 384.10 540.09 380.66 536.25 377.10 C 523.99 364.35 520.04 346.26 517.84 329.28 C 515.72 309.55 514.64 289.73 513.22 269.94 C 511.57 257.26 509.46 244.63 506.69 232.13 C 504.73 223.82 506.14 215.23 504.88 206.84 M 544.15 372.29 C 545.87 372.51 547.61 372.67 549.35 372.82 C 549.37 370.49 549.35 368.16 549.32 365.83 C 548.65 365.40 547.31 364.54 546.64 364.11 C 545.55 366.75 544.73 369.49 544.15 372.29 Z" />
</g>
<g id="#0c0c0cff">
<path fill="#0c0c0c" opacity="1.00" d=" M 699.56 204.63 C 706.17 202.59 712.37 197.98 719.64 199.51 C 717.52 202.48 713.41 200.96 710.53 202.57 C 705.22 205.29 698.78 206.05 694.49 210.49 C 689.07 215.77 683.16 220.52 677.61 225.65 C 673.88 229.57 672.50 235.28 668.04 238.59 C 668.28 237.08 668.23 235.43 669.26 234.19 C 671.98 230.30 673.92 225.75 677.64 222.65 C 681.41 219.43 685.06 216.05 688.87 212.87 C 692.29 209.96 695.11 206.06 699.56 204.63 Z" />
<path fill="#0c0c0c" opacity="1.00" d=" M 0.00 469.26 L 0.96 469.01 C 6.30 468.48 11.70 468.36 17.04 468.97 C 26.70 471.79 32.71 480.28 39.59 486.95 C 39.16 483.37 38.37 479.86 38.02 476.28 C 47.06 479.72 53.69 487.18 59.05 494.96 C 68.66 509.02 75.03 524.95 80.96 540.82 C 83.74 548.62 87.50 556.04 91.94 563.02 C 93.57 565.85 96.05 568.50 95.90 571.99 C 91.77 567.93 89.20 562.65 86.29 557.73 C 80.95 548.45 77.93 538.15 73.85 528.31 C 68.88 516.17 63.19 504.22 55.45 493.57 C 51.61 488.16 46.77 483.50 41.17 479.92 C 41.44 483.90 41.92 487.89 41.37 491.87 C 34.52 486.28 29.97 478.21 22.22 473.68 C 15.63 469.52 7.30 469.81 0.00 471.64 L 0.00 469.26 Z" />
</g>
<g id="#000000ff">
<path fill="#000000" opacity="1.00" d=" M 320.77 252.69 C 337.55 247.15 355.62 247.84 372.97 249.68 C 399.13 252.75 424.70 259.30 450.39 264.90 C 470.22 269.11 490.20 274.01 510.59 273.68 C 512.46 273.37 512.85 271.53 513.22 269.94 C 514.64 289.73 515.72 309.55 517.84 329.28 C 520.04 346.26 523.99 364.35 536.25 377.10 C 535.60 377.23 534.29 377.48 533.64 377.60 C 531.69 377.99 529.75 378.40 527.82 378.84 C 527.57 378.41 527.06 377.55 526.80 377.12 C 526.59 376.79 526.18 376.13 525.97 375.79 C 520.99 373.84 515.77 372.56 510.89 370.36 C 492.07 361.25 471.24 357.64 451.86 350.01 C 445.32 347.18 439.30 343.33 433.12 339.82 C 420.80 332.56 408.58 325.13 396.41 317.63 C 394.53 316.47 392.58 315.45 390.55 314.62 C 384.68 312.30 379.50 308.36 373.22 307.08 C 362.99 304.98 353.08 301.62 342.97 299.01 C 334.77 296.96 327.57 291.78 319.01 290.98 C 304.03 289.40 288.97 290.84 274.01 291.96 C 269.99 291.89 267.69 295.61 264.97 297.97 C 248.00 313.74 230.96 329.53 212.18 343.16 C 189.08 360.20 163.49 373.90 136.43 383.51 C 126.41 387.04 117.53 393.02 108.58 398.60 C 95.66 406.71 83.03 415.31 69.64 422.63 C 58.00 429.19 44.54 431.14 32.28 436.15 C 25.13 441.33 23.07 450.80 16.83 456.82 C 12.26 460.91 5.85 461.49 0.00 461.75 L 0.00 459.65 C 5.47 459.27 11.70 459.01 15.83 454.87 C 19.72 450.85 21.75 445.50 25.01 441.01 C 27.10 438.21 29.12 434.88 32.61 433.72 C 41.09 430.67 49.81 428.32 58.36 425.46 C 68.55 421.67 77.69 415.63 86.90 409.96 C 99.00 402.38 110.82 394.35 123.24 387.29 C 131.84 382.28 141.56 379.81 150.60 375.78 C 188.51 360.25 221.82 335.44 251.52 307.55 C 265.85 294.54 279.60 280.86 294.67 268.67 C 302.66 262.33 310.89 255.81 320.77 252.69 Z" />
<path fill="#000000" opacity="1.00" d=" M 739.58 288.06 C 740.04 288.24 740.96 288.59 741.42 288.77 C 740.35 292.46 738.56 296.26 739.79 300.16 C 742.70 312.38 753.64 320.45 764.45 325.49 C 776.09 330.86 788.50 334.23 800.63 338.29 C 805.03 339.88 809.66 341.53 812.99 344.97 C 830.69 363.61 853.16 376.89 876.24 387.77 C 895.14 396.98 915.02 404.55 932.40 416.56 C 942.67 423.55 950.94 433.12 957.30 443.74 C 966.09 458.03 970.54 474.49 973.00 490.97 L 973.00 551.36 C 971.62 564.95 970.11 578.55 967.72 592.00 L 965.71 592.00 C 968.15 577.06 969.97 562.02 971.30 546.94 C 971.81 544.31 970.15 542.13 968.92 540.02 C 963.05 530.45 957.76 520.53 952.19 510.80 C 951.11 508.92 949.78 507.22 948.42 505.56 C 944.29 500.65 941.65 494.53 936.65 490.36 C 930.88 485.80 926.14 480.16 921.29 474.69 C 914.52 467.11 907.90 459.41 901.31 451.69 C 896.84 446.24 892.22 440.79 886.35 436.78 C 881.67 433.99 876.06 433.76 870.99 432.02 C 864.03 430.20 857.48 426.65 850.18 426.39 C 838.17 424.89 826.39 420.08 814.12 421.96 C 805.05 423.48 796.11 425.94 786.88 426.45 C 782.22 426.52 777.76 428.14 773.10 428.27 C 767.43 428.65 762.58 431.88 757.27 433.55 C 761.55 440.27 764.91 447.50 768.35 454.66 C 773.59 465.49 777.50 476.95 783.68 487.31 C 787.67 493.94 789.57 501.54 790.54 509.15 C 792.48 505.67 794.90 502.49 797.53 499.49 C 801.20 494.87 805.51 490.24 811.33 488.46 C 814.40 487.58 817.60 486.23 820.84 486.83 C 823.93 489.01 821.19 492.51 819.77 494.82 C 811.02 507.49 800.91 520.46 799.15 536.27 C 798.34 540.27 801.15 543.54 803.24 546.60 C 808.86 543.16 814.27 539.39 819.84 535.86 C 823.44 533.44 827.77 532.64 831.98 531.98 C 849.91 529.19 867.95 527.18 886.02 525.59 C 894.34 524.92 902.72 525.79 911.02 524.81 C 918.37 524.38 925.67 523.37 932.99 522.56 C 936.52 522.31 940.65 522.13 943.40 524.78 C 945.53 527.91 942.70 531.49 939.85 532.88 C 933.15 536.32 927.00 540.75 920.25 544.07 C 910.93 547.44 900.91 549.25 890.98 548.50 C 879.99 548.47 869.00 548.67 858.02 549.19 C 846.74 549.51 835.36 550.46 824.46 553.59 C 819.70 554.94 815.29 557.27 811.27 560.14 C 812.83 563.04 814.48 565.91 816.35 568.62 C 821.63 575.99 824.67 584.74 830.11 592.00 L 827.19 592.00 C 823.32 585.39 820.07 578.43 816.07 571.90 C 809.80 563.23 805.81 553.14 799.37 544.59 C 796.78 540.83 796.17 536.21 795.00 531.90 C 792.66 522.70 788.68 513.91 787.67 504.40 C 786.45 495.09 781.08 487.28 776.95 479.11 C 770.15 464.11 764.16 448.64 755.47 434.59 C 753.52 431.29 750.97 428.39 748.04 425.95 C 747.43 426.56 746.21 427.77 745.61 428.37 C 745.62 427.83 745.65 426.76 745.66 426.22 C 745.70 425.49 745.77 424.78 745.85 424.06 C 739.06 409.96 731.82 396.06 725.43 381.77 C 722.07 372.56 720.77 362.73 719.70 353.04 C 719.62 346.25 718.09 339.56 718.50 332.76 L 719.69 331.64 C 720.08 333.35 720.47 335.06 720.86 336.77 C 724.70 328.38 727.77 319.68 731.10 311.08 C 733.92 303.40 737.10 295.85 739.58 288.06 M 752.52 427.14 C 753.72 428.58 754.91 430.02 756.07 431.51 C 759.90 430.63 763.21 428.44 766.83 427.00 C 762.06 427.20 757.29 427.13 752.52 427.14 M 807.60 492.48 C 803.00 495.55 799.86 500.18 796.26 504.27 C 793.49 507.56 791.12 512.04 792.48 516.44 C 794.11 521.80 795.92 527.11 797.35 532.54 C 800.05 521.21 805.91 510.96 812.58 501.52 C 815.40 497.30 818.87 493.40 820.58 488.54 C 816.07 489.07 811.53 490.15 807.60 492.48 M 913.27 526.70 C 904.57 527.91 895.76 526.99 887.02 527.61 C 869.29 529.12 851.60 531.11 834.00 533.79 C 829.95 534.57 825.63 534.79 822.01 536.98 C 817.19 539.78 812.82 543.29 807.91 545.94 C 806.74 546.87 804.41 547.84 805.32 549.70 C 806.81 552.69 808.59 555.53 810.22 558.44 C 815.02 554.66 820.72 552.25 826.63 550.85 C 845.38 546.31 864.83 546.99 883.98 546.42 C 890.64 546.02 897.37 547.32 903.97 545.96 C 911.00 544.66 918.42 543.59 924.47 539.48 C 928.21 537.24 931.93 534.97 935.65 532.69 C 938.03 531.31 941.74 530.45 942.02 527.16 C 941.63 524.50 938.13 524.63 936.05 524.50 C 928.43 524.87 920.90 526.37 913.27 526.70 Z" />
</g>
<g id="#090909ff">
<path fill="#090909" opacity="1.00" d=" M 327.75 336.40 C 328.38 336.39 329.63 336.37 330.26 336.36 C 324.60 347.38 321.59 359.62 315.20 370.27 C 311.13 377.32 303.33 382.21 301.79 390.59 C 300.03 397.85 297.66 404.94 294.98 411.90 C 290.55 423.93 287.74 436.55 282.21 448.16 C 279.73 453.26 277.88 458.62 275.86 463.90 C 272.09 471.32 269.11 479.14 267.36 487.29 C 264.58 498.43 259.70 509.09 258.56 520.59 C 257.49 523.68 255.14 526.25 254.78 529.62 C 253.35 538.21 249.50 546.10 245.96 553.98 C 240.97 564.55 235.81 575.05 230.59 585.51 C 233.33 585.37 236.11 585.57 238.83 585.11 C 243.52 583.65 247.62 580.66 252.49 579.63 C 261.83 577.41 271.04 574.28 279.31 569.31 C 282.51 567.24 284.74 564.05 287.75 561.75 C 290.85 559.37 293.11 556.00 293.92 552.16 C 294.53 552.27 295.74 552.48 296.35 552.58 C 294.82 560.03 288.12 564.14 283.16 569.19 C 279.50 572.58 274.72 574.28 270.27 576.35 C 263.82 579.42 256.68 580.50 249.97 582.85 C 246.38 584.10 243.14 586.19 239.53 587.40 C 236.91 587.96 234.19 587.49 231.59 588.12 C 230.70 589.36 229.95 590.70 229.14 592.00 L 224.82 592.00 C 227.89 587.42 229.70 582.15 232.29 577.30 C 239.04 563.06 246.88 549.18 251.58 534.07 C 239.72 546.46 222.87 552.90 205.98 554.12 C 195.43 554.36 184.74 557.80 176.63 564.68 C 171.71 568.40 165.51 570.82 162.27 576.39 C 157.76 580.65 151.06 581.81 145.03 581.91 C 137.88 582.01 130.28 580.35 123.53 583.53 C 119.76 585.19 116.55 588.13 115.00 592.00 L 112.39 592.00 C 114.42 586.83 118.85 583.04 123.96 581.06 C 131.61 577.98 139.94 580.38 147.89 579.67 C 152.29 579.48 156.37 577.70 160.31 575.89 C 160.53 572.20 160.04 568.06 162.80 565.15 C 162.89 567.27 162.86 569.41 162.82 571.56 C 167.55 567.60 173.12 564.80 177.87 560.86 C 181.96 557.66 186.95 555.95 191.58 553.71 C 195.39 551.59 199.88 552.69 204.02 552.17 C 220.75 551.04 238.18 545.42 249.63 532.60 C 252.40 529.96 253.13 526.09 254.95 522.87 C 257.43 518.72 256.64 513.62 258.44 509.22 C 261.08 499.67 264.54 490.38 266.71 480.71 C 268.70 472.35 273.43 465.03 276.00 456.88 C 277.49 452.81 279.55 448.98 281.12 444.94 C 285.92 434.45 288.43 423.12 292.40 412.33 C 295.37 404.62 298.02 396.78 299.88 388.73 C 301.10 383.15 305.42 379.14 308.92 374.90 C 318.47 363.88 321.19 349.10 327.75 336.40 Z" />
</g>
<g id="#0a0a0aff">
<path fill="#0a0a0a" opacity="1.00" d=" M 222.34 347.28 C 238.44 344.94 254.79 345.17 271.01 344.49 C 274.17 344.56 278.59 343.69 280.36 347.08 C 279.91 350.08 278.86 352.97 278.60 356.00 C 278.42 359.41 280.53 362.51 280.32 365.90 C 278.45 369.09 274.44 369.56 271.14 370.05 C 255.60 371.44 239.96 369.19 224.42 370.70 C 221.16 370.84 218.28 372.42 215.54 374.06 C 215.52 373.41 215.48 372.11 215.46 371.46 C 218.70 369.68 222.29 368.60 225.99 368.39 C 240.31 367.32 254.68 369.08 269.01 368.08 C 272.34 367.92 275.60 367.07 278.56 365.52 C 277.47 362.12 276.07 358.64 276.57 354.99 C 276.96 352.24 277.67 349.53 277.83 346.75 C 269.21 346.26 260.59 347.15 251.97 347.25 C 242.32 347.64 232.61 347.83 223.04 349.30 C 219.82 349.70 216.21 351.17 215.55 354.74 C 213.31 363.32 206.59 369.58 199.65 374.59 C 198.57 375.54 197.11 375.64 195.76 375.92 C 196.44 374.91 197.08 373.85 198.08 373.13 C 203.58 368.88 209.39 364.37 212.17 357.79 C 209.21 357.76 206.33 358.13 203.81 359.76 C 199.03 359.62 194.34 361.58 191.04 365.06 C 189.23 367.12 186.67 368.19 184.28 369.41 C 183.76 372.07 183.63 374.78 183.57 377.48 C 188.39 377.92 193.22 377.65 198.05 377.79 C 200.71 377.74 202.87 379.67 204.18 381.83 C 201.95 381.83 200.02 380.73 197.95 380.11 C 192.50 379.58 186.90 380.69 181.57 379.13 C 181.49 375.96 181.19 372.75 181.72 369.62 C 183.33 366.25 187.55 365.61 189.91 362.93 C 193.18 359.38 197.92 357.60 202.68 357.57 C 205.76 355.54 209.44 355.70 212.98 355.78 C 213.58 350.94 217.58 347.64 222.34 347.28 Z" />
</g>
<g id="#101010ff">
<path fill="#101010" opacity="1.00" d=" M 425.83 353.16 C 428.70 352.31 431.71 352.39 434.67 352.35 C 434.63 352.84 434.53 353.82 434.48 354.31 C 428.75 354.34 423.37 356.30 418.08 358.26 C 406.04 358.67 393.97 358.09 381.92 358.48 C 375.16 358.56 368.68 360.73 362.03 361.65 C 350.99 366.24 340.31 372.30 331.84 380.86 C 327.22 385.05 321.69 388.03 316.79 391.84 C 314.02 395.36 313.03 399.88 311.66 404.06 C 311.39 407.17 311.49 410.30 311.25 413.42 C 309.92 413.66 308.60 413.90 307.29 414.14 C 310.70 410.14 308.16 404.74 310.32 400.33 C 311.63 396.82 312.55 392.96 315.07 390.08 C 319.85 386.50 325.20 383.68 329.61 379.62 C 336.02 373.53 343.16 368.15 351.07 364.17 C 355.65 362.17 359.91 359.13 365.04 358.70 C 369.74 358.25 374.19 356.31 378.95 356.37 C 390.65 356.20 402.36 356.28 414.06 356.31 C 418.24 356.49 421.86 354.03 425.83 353.16 Z" />
</g>
<g id="#070707ff">
<path fill="#070707" opacity="1.00" d=" M 544.15 372.29 C 544.73 369.49 545.55 366.75 546.64 364.11 C 547.31 364.54 548.65 365.40 549.32 365.83 C 549.35 368.16 549.37 370.49 549.35 372.82 C 547.61 372.67 545.87 372.51 544.15 372.29 Z" />
</g>
<g id="#0d0d0dff">
<path fill="#0d0d0d" opacity="1.00" d=" M 386.07 376.29 C 392.14 376.48 397.92 373.94 404.01 374.34 C 411.52 374.08 418.50 377.60 425.97 377.66 C 429.21 377.86 432.36 378.73 435.56 379.27 C 454.24 381.17 473.07 379.77 491.78 380.98 C 498.80 380.16 505.88 380.75 512.91 380.24 C 517.44 378.78 522.12 377.92 526.80 377.12 C 527.06 377.55 527.57 378.41 527.82 378.84 C 524.77 379.94 521.60 380.55 518.44 381.24 C 511.57 383.86 504.09 381.65 497.00 382.94 C 493.51 383.60 489.92 383.73 486.46 382.91 C 483.66 382.24 480.85 383.19 478.06 383.27 C 465.11 381.44 451.95 383.18 438.94 382.12 C 434.63 381.54 430.39 380.40 426.03 380.18 C 419.90 379.76 414.03 377.85 408.02 376.74 C 402.29 375.78 396.61 377.47 390.97 378.23 C 385.84 378.55 380.69 378.14 375.56 378.54 C 368.31 378.98 361.52 381.75 354.57 383.57 C 350.10 384.93 345.46 386.00 341.35 388.32 C 337.36 390.52 334.26 393.94 330.75 396.79 C 327.39 399.54 323.22 401.12 319.97 404.03 C 317.27 406.59 316.18 410.29 315.05 413.72 C 314.51 413.67 313.44 413.55 312.91 413.49 C 313.66 407.09 317.92 401.56 323.61 398.68 C 330.61 395.30 335.13 388.41 342.27 385.28 C 349.61 382.09 357.53 380.57 365.12 378.11 C 371.84 375.65 379.06 376.43 386.07 376.29 Z" />
</g>
<g id="#fcfcfcff">
<path fill="#fcfcfc" opacity="1.00" d=" M 752.52 427.14 C 757.29 427.13 762.06 427.20 766.83 427.00 C 763.21 428.44 759.90 430.63 756.07 431.51 C 754.91 430.02 753.72 428.58 752.52 427.14 Z" />
<path fill="#fcfcfc" opacity="1.00" d=" M 365.75 435.86 C 371.51 433.91 377.50 432.70 383.38 431.18 C 377.88 433.84 371.68 434.65 365.75 435.86 Z" />
</g>
<g id="#141414ff">
<path fill="#141414" opacity="1.00" d=" M 567.38 445.23 C 575.64 443.23 583.98 441.59 592.03 438.86 C 592.55 439.14 593.59 439.70 594.12 439.98 C 582.03 446.23 567.38 445.18 555.80 452.54 C 549.53 455.27 542.60 455.59 536.00 457.07 C 526.48 458.02 517.79 462.58 508.30 463.68 C 502.57 465.58 497.82 470.36 491.59 470.74 C 491.50 470.20 491.31 469.13 491.22 468.60 C 498.56 467.03 504.31 461.26 511.89 460.61 C 517.22 459.85 522.13 457.42 527.40 456.37 C 532.21 454.87 537.29 454.77 542.15 453.51 C 546.69 452.51 551.68 452.46 555.55 449.53 C 559.01 446.98 563.35 446.38 567.38 445.23 Z" />
</g>
<g id="#fdfdfdff">
<path fill="#fdfdfd" opacity="1.00" d=" M 628.82 474.71 C 631.54 468.29 636.49 463.21 641.17 458.19 C 641.71 466.38 641.57 474.61 641.49 482.82 C 638.35 483.52 635.21 484.56 631.97 484.40 C 628.06 483.02 627.29 478.12 628.82 474.71 Z" />
<path fill="#fdfdfd" opacity="1.00" d=" M 807.60 492.48 C 811.53 490.15 816.07 489.07 820.58 488.54 C 818.87 493.40 815.40 497.30 812.58 501.52 C 805.91 510.96 800.05 521.21 797.35 532.54 C 795.92 527.11 794.11 521.80 792.48 516.44 C 791.12 512.04 793.49 507.56 796.26 504.27 C 799.86 500.18 803.00 495.55 807.60 492.48 Z" />
<path fill="#fdfdfd" opacity="1.00" d=" M 967.72 592.00 C 970.11 578.55 971.62 564.95 973.00 551.36 L 973.00 592.00 L 967.72 592.00 Z" />
</g>
<g id="#a4a4a4ff">
<path fill="#a4a4a4" opacity="1.00" d=" M 0.96 469.01 C 6.17 467.36 11.88 466.83 17.04 468.97 C 11.70 468.36 6.30 468.48 0.96 469.01 Z" />
</g>
</svg>
