<?xml version="1.0" encoding="UTF-8" ?>
<!DOCTYPE svg PUBLIC "-//W3C//DTD SVG 1.1//EN" "http://www.w3.org/Graphics/SVG/1.1/DTD/svg11.dtd">
<svg width="320pt" height="203pt" viewBox="0 0 320 203" version="1.1" xmlns="http://www.w3.org/2000/svg">
<path fill="#ffffff" opacity="1.00" d=" M 0.00 0.00 L 320.00 0.00 L 320.00 144.76 C 316.15 139.20 312.33 133.61 308.79 127.85 C 307.10 125.04 310.41 120.12 306.57 118.57 C 300.47 117.41 294.28 116.69 288.07 116.48 C 281.04 109.22 274.70 101.34 267.93 93.84 C 264.95 90.50 263.08 86.31 259.83 83.18 C 257.44 81.00 256.08 78.03 254.71 75.16 C 250.78 66.58 244.64 59.24 240.81 50.60 C 237.04 42.83 235.99 34.12 232.86 26.13 C 231.17 23.70 228.81 21.84 226.43 20.14 C 226.46 19.48 226.53 18.16 226.56 17.50 C 223.01 13.89 219.66 10.09 216.08 6.51 C 214.88 7.22 213.62 7.88 212.47 8.64 C 212.40 8.72 212.25 8.89 212.18 8.97 C 211.48 11.25 209.78 12.36 207.44 11.35 C 206.39 10.67 205.43 9.73 204.19 9.43 C 202.39 9.83 201.44 11.50 200.38 12.82 C 201.07 14.85 201.74 16.88 202.40 18.92 C 200.59 17.87 198.79 16.82 197.00 15.74 C 195.78 16.90 194.17 17.85 193.64 19.54 C 193.04 21.07 194.26 22.56 194.53 24.02 C 194.06 24.69 193.59 25.36 193.13 26.03 C 188.42 22.51 183.48 19.30 178.18 16.74 C 173.19 14.36 168.26 11.29 162.59 11.01 C 157.93 10.66 153.25 10.40 148.59 10.03 C 142.50 9.44 136.59 12.22 132.00 16.02 C 128.29 18.92 125.32 22.91 120.85 24.73 C 118.49 26.01 115.74 25.54 113.18 25.57 C 113.28 23.58 113.80 21.53 113.29 19.56 C 112.09 17.51 109.59 17.03 107.55 16.26 C 104.91 19.42 101.17 21.19 97.63 23.12 C 97.25 21.76 96.88 20.40 96.49 19.04 C 94.89 18.26 93.31 17.42 91.74 16.58 C 88.38 19.05 86.73 22.95 84.04 26.01 C 80.54 29.83 79.55 35.25 76.03 39.07 C 71.73 43.79 70.99 50.38 68.23 55.92 C 66.77 59.08 64.16 61.48 62.33 64.40 C 58.83 69.28 57.02 75.07 54.45 80.44 C 52.81 84.30 50.19 87.63 48.52 91.47 C 47.11 94.61 45.98 98.01 43.52 100.52 C 40.27 103.87 36.11 106.25 33.17 109.92 C 31.05 112.62 28.98 115.38 26.47 117.76 C 25.28 116.90 24.09 116.04 22.89 115.19 C 21.20 115.81 19.45 116.31 17.85 117.17 C 15.08 120.51 12.79 124.34 12.05 128.68 C 9.45 133.86 4.26 136.94 0.00 140.62 L 0.00 0.00 Z" />
<path fill="#000000" opacity="1.00" d=" M 212.47 8.64 C 213.62 7.88 214.88 7.22 216.08 6.51 C 219.66 10.09 223.01 13.89 226.56 17.50 C 226.53 18.16 226.46 19.48 226.43 20.14 C 228.81 21.84 231.17 23.70 232.86 26.13 C 235.99 34.12 237.04 42.83 240.81 50.60 C 244.64 59.24 250.78 66.58 254.71 75.16 C 256.08 78.03 257.44 81.00 259.83 83.18 C 263.08 86.31 264.95 90.50 267.93 93.84 C 274.70 101.34 281.04 109.22 288.07 116.48 C 294.28 116.69 300.47 117.41 306.57 118.57 C 310.41 120.12 307.10 125.04 308.79 127.85 C 312.33 133.61 316.15 139.20 320.00 144.76 L 320.00 146.27 C 315.87 140.31 311.53 134.48 307.92 128.18 C 306.84 126.41 307.79 124.19 307.60 122.28 C 303.81 126.26 299.38 130.27 293.81 131.34 C 281.86 132.92 269.77 132.93 257.77 133.96 C 258.96 138.93 260.10 143.91 261.01 148.94 C 263.26 159.12 266.45 169.07 268.94 179.18 C 266.89 176.27 266.22 172.71 265.14 169.39 C 263.31 162.98 261.66 156.51 260.18 150.01 C 255.57 151.31 251.11 154.29 246.17 153.67 C 241.15 152.01 236.50 149.39 232.01 146.63 C 226.78 148.45 223.27 153.16 218.00 154.99 C 215.59 162.37 211.54 169.23 210.17 176.95 C 212.01 177.38 213.82 177.94 215.59 178.60 C 215.66 182.81 216.09 187.09 215.12 191.23 C 214.47 194.31 214.04 197.71 211.59 199.96 C 215.35 193.74 214.57 186.33 214.64 179.40 C 210.85 178.12 206.97 177.05 203.38 175.27 C 199.24 173.13 196.43 169.25 193.54 165.73 C 192.60 167.84 191.92 170.06 191.41 172.32 C 191.20 171.64 190.76 170.29 190.54 169.62 C 187.64 174.51 183.06 178.47 177.69 180.39 C 173.41 181.67 168.93 182.19 164.49 182.53 C 164.66 182.18 164.99 181.47 165.16 181.12 C 168.94 181.55 172.65 180.50 176.27 179.58 C 183.28 177.58 188.75 172.05 192.11 165.75 C 193.14 164.01 192.63 161.94 192.64 160.04 C 192.34 155.99 192.65 151.93 192.89 147.89 C 190.38 152.01 188.51 156.57 185.17 160.14 C 181.08 164.66 176.78 169.42 171.07 171.85 C 168.42 173.07 165.44 172.40 162.72 171.87 C 158.12 171.17 153.47 170.51 149.12 168.79 C 145.90 168.38 142.67 167.90 139.52 167.10 C 136.51 166.01 134.17 163.69 132.10 161.34 C 135.20 163.41 138.01 166.44 142.00 166.59 C 151.53 167.59 160.55 171.95 170.25 171.45 C 172.67 170.21 175.13 168.98 177.10 167.06 C 181.61 162.84 186.13 158.38 188.94 152.80 C 191.05 148.65 193.47 144.67 196.03 140.79 C 199.66 135.70 200.76 129.22 200.81 123.10 C 201.22 122.90 202.04 122.51 202.45 122.31 C 202.29 123.72 201.96 126.54 201.80 127.94 C 204.59 126.40 205.98 123.08 205.68 119.98 C 205.32 115.93 206.83 112.05 207.22 108.05 C 206.18 108.80 205.15 109.55 204.12 110.30 C 203.85 112.17 203.58 114.04 203.30 115.91 C 203.01 115.63 202.42 115.07 202.12 114.78 C 203.23 110.61 202.69 106.26 202.79 102.00 C 202.64 93.94 203.45 85.45 199.84 77.95 C 198.04 74.29 197.39 69.03 192.41 68.44 C 192.95 69.21 194.04 70.76 194.58 71.53 C 190.60 70.53 187.42 67.77 183.52 66.63 C 183.56 67.85 183.61 69.07 183.68 70.29 C 181.72 70.51 181.55 72.23 181.34 73.82 C 178.79 72.56 176.27 71.23 173.72 69.99 C 174.50 72.07 176.11 75.33 178.89 74.59 C 178.76 75.21 178.50 76.44 178.37 77.06 C 182.97 76.44 187.24 74.60 191.50 72.86 C 192.63 74.75 195.19 77.30 193.20 79.49 C 191.13 79.88 189.02 79.94 186.92 80.09 C 189.83 81.96 193.01 83.54 195.32 86.20 C 192.48 84.98 190.12 82.84 187.18 81.83 C 182.85 80.44 178.29 81.49 173.87 81.70 C 173.56 80.17 173.26 78.64 172.97 77.11 C 173.97 76.99 175.96 76.76 176.96 76.65 C 176.93 76.05 176.91 75.45 176.89 74.86 C 175.28 74.19 173.70 73.47 172.12 72.75 C 172.27 73.36 172.56 74.58 172.71 75.20 C 171.82 74.30 170.93 73.41 170.04 72.52 C 169.12 72.50 167.27 72.48 166.35 72.46 C 165.91 76.53 166.10 80.71 168.93 83.94 C 170.66 83.23 172.39 82.50 174.15 81.83 C 171.57 83.79 168.80 86.23 169.10 89.82 C 171.33 92.45 173.67 95.04 175.21 98.17 C 172.69 95.29 170.31 92.24 167.19 89.95 C 168.20 88.20 169.20 86.44 170.24 84.71 L 167.85 84.12 C 167.76 84.57 167.59 85.45 167.51 85.89 C 164.75 84.58 161.66 84.70 158.69 84.40 C 161.08 83.56 163.79 83.00 166.02 84.59 C 166.62 84.10 167.22 83.62 167.82 83.13 C 166.52 81.57 165.37 79.90 164.45 78.10 C 165.26 75.67 166.03 73.05 165.57 70.48 C 164.77 69.84 163.95 69.24 163.09 68.68 C 163.50 69.35 164.33 70.67 164.74 71.33 C 163.94 72.12 163.16 72.92 162.38 73.73 C 161.06 72.78 159.73 71.83 158.39 70.91 C 158.54 73.45 159.02 75.95 159.62 78.43 C 158.14 80.24 156.60 82.01 154.98 83.70 C 157.10 85.36 159.29 87.12 160.48 89.61 C 160.98 92.55 156.71 94.24 157.67 97.17 C 157.08 96.84 156.48 96.53 155.88 96.21 C 157.71 94.65 159.28 92.44 159.49 89.99 C 158.19 87.62 156.70 84.99 154.27 83.65 C 153.23 83.46 152.19 83.27 151.15 83.10 C 151.21 82.38 151.32 80.95 151.38 80.23 C 150.29 80.61 148.11 81.37 147.02 81.76 C 142.62 78.95 136.97 79.75 132.02 78.58 C 132.53 76.23 132.57 72.78 135.06 71.66 C 139.78 72.11 143.62 76.45 148.53 75.38 C 150.54 74.91 152.43 75.88 154.25 76.60 C 153.62 77.38 152.34 78.93 151.70 79.71 C 152.02 80.97 152.68 82.35 153.88 82.99 C 155.95 82.02 157.15 79.94 158.49 78.19 C 158.37 75.45 157.46 72.81 157.28 70.08 C 155.64 68.85 153.97 67.53 151.86 67.32 C 148.97 64.03 144.42 63.87 140.62 62.31 C 140.24 62.34 139.48 62.42 139.11 62.45 C 136.55 60.52 135.42 57.56 134.20 54.72 C 132.55 53.71 130.53 53.58 128.70 53.05 C 127.94 56.48 126.74 60.25 128.54 63.58 C 129.71 65.92 130.16 68.48 129.74 71.07 C 129.40 69.90 129.08 68.72 128.76 67.55 C 124.76 64.62 123.46 59.87 122.50 55.28 C 122.78 59.70 124.32 64.75 121.63 68.73 C 119.02 72.65 115.28 75.76 113.10 79.98 C 111.84 82.95 110.93 86.06 109.53 88.97 C 109.86 91.96 109.83 95.00 109.04 97.92 C 107.77 103.06 108.05 108.53 109.64 113.56 L 107.64 113.06 C 107.18 116.02 107.45 119.00 107.87 121.96 C 105.87 121.12 103.52 120.71 101.96 119.11 C 101.07 116.79 100.38 114.39 99.57 112.05 C 100.90 114.23 101.94 116.57 102.73 119.00 C 104.23 119.61 105.72 120.22 107.22 120.84 C 105.98 117.98 106.48 115.00 107.56 112.20 C 106.65 110.48 105.71 108.74 104.08 107.60 C 103.92 108.25 103.61 109.53 103.45 110.17 C 102.51 109.04 101.55 107.91 100.59 106.79 C 100.44 108.30 100.30 109.80 100.18 111.31 C 99.14 109.81 98.86 107.19 96.58 107.12 C 96.48 112.61 97.01 118.23 99.27 123.30 C 100.59 127.00 103.45 130.24 107.18 131.63 C 109.22 132.38 110.82 130.80 111.79 129.21 C 111.09 133.54 112.25 137.84 112.90 142.10 C 113.82 145.74 114.31 150.00 117.48 152.48 C 121.62 156.03 125.87 159.46 130.05 162.96 C 132.55 165.06 135.45 166.78 137.41 169.43 C 138.57 173.37 139.08 177.47 139.70 181.53 C 147.02 182.31 154.49 182.95 161.78 181.57 C 162.33 182.00 162.88 182.44 163.44 182.88 C 159.62 182.49 155.84 183.34 152.03 183.28 C 147.91 183.40 143.86 182.66 139.79 182.18 C 139.73 184.89 139.58 187.61 139.34 190.32 C 140.69 190.58 142.04 190.85 143.39 191.12 C 142.72 193.83 142.16 196.58 141.18 199.20 C 141.22 196.52 142.01 193.96 142.89 191.46 C 127.10 191.11 112.11 181.30 104.70 167.49 C 103.14 161.21 105.88 154.97 107.54 148.98 C 102.07 150.38 97.55 153.85 92.67 156.49 C 88.46 157.07 84.21 156.36 79.99 156.45 C 78.03 157.22 76.50 158.73 74.90 160.03 C 77.64 162.34 80.83 164.16 83.11 166.98 C 78.19 163.44 73.13 159.77 67.07 158.54 C 62.75 158.00 59.26 161.49 55.03 161.55 C 51.96 161.73 49.15 160.30 46.29 159.43 C 46.35 162.64 46.75 165.83 46.99 169.04 C 46.79 176.62 44.79 183.96 43.07 191.29 C 42.71 191.46 42.01 191.80 41.65 191.98 C 44.16 186.64 44.58 180.65 45.52 174.91 C 46.64 168.13 44.85 161.33 45.26 154.52 C 45.36 152.02 47.33 150.17 48.50 148.11 C 42.67 149.32 36.72 148.24 31.03 146.88 C 26.87 145.92 22.83 142.97 21.74 138.69 C 21.79 134.91 24.15 131.67 24.67 128.00 C 25.12 126.37 23.44 125.41 22.40 124.56 C 20.45 123.18 18.53 121.75 16.81 120.10 C 14.54 123.18 13.38 126.82 12.43 130.48 C 9.24 135.18 4.17 138.13 0.00 141.88 L 0.00 140.62 C 4.26 136.94 9.45 133.86 12.05 128.68 C 12.79 124.34 15.08 120.51 17.85 117.17 C 19.45 116.31 21.20 115.81 22.89 115.19 C 24.09 116.04 25.28 116.90 26.47 117.76 C 28.98 115.38 31.05 112.62 33.17 109.92 C 36.11 106.25 40.27 103.87 43.52 100.52 C 45.98 98.01 47.11 94.61 48.52 91.47 C 50.19 87.63 52.81 84.30 54.45 80.44 C 57.02 75.07 58.83 69.28 62.33 64.40 C 64.16 61.48 66.77 59.08 68.23 55.92 C 70.99 50.38 71.73 43.79 76.03 39.07 C 79.55 35.25 80.54 29.83 84.04 26.01 C 86.73 22.95 88.38 19.05 91.74 16.58 C 93.31 17.42 94.89 18.26 96.49 19.04 C 96.88 20.40 97.25 21.76 97.63 23.12 C 101.17 21.19 104.91 19.42 107.55 16.26 C 109.59 17.03 112.09 17.51 113.29 19.56 C 113.80 21.53 113.28 23.58 113.18 25.57 C 115.74 25.54 118.49 26.01 120.85 24.73 C 125.32 22.91 128.29 18.92 132.00 16.02 C 136.59 12.22 142.50 9.44 148.59 10.03 C 153.25 10.40 157.93 10.66 162.59 11.01 C 168.26 11.29 173.19 14.36 178.18 16.74 C 183.48 19.30 188.42 22.51 193.13 26.03 C 193.59 25.36 194.06 24.69 194.53 24.02 C 194.26 22.56 193.04 21.07 193.64 19.54 C 194.17 17.85 195.78 16.90 197.00 15.74 C 198.79 16.82 200.59 17.87 202.40 18.92 C 201.74 16.88 201.07 14.85 200.38 12.82 C 201.44 11.50 202.39 9.83 204.19 9.43 C 205.43 9.73 206.39 10.67 207.44 11.35 C 209.78 12.36 211.48 11.25 212.18 8.97 C 212.19 10.12 212.21 11.26 212.26 12.41 C 212.76 12.47 213.74 12.58 214.24 12.64 C 211.54 12.42 209.07 13.42 206.73 14.62 C 205.54 15.30 204.29 14.20 203.17 13.85 C 203.29 12.83 203.53 10.80 203.65 9.78 C 202.99 10.52 201.69 11.99 201.04 12.73 C 201.44 14.63 202.04 16.48 202.55 18.35 C 210.65 21.02 217.74 25.83 224.66 30.69 C 226.15 31.73 227.14 33.31 227.75 34.99 C 229.54 39.50 231.33 44.00 233.39 48.39 C 234.94 51.94 238.84 53.53 240.84 56.78 C 238.52 54.63 235.87 52.79 233.88 50.32 C 230.98 44.99 229.17 39.14 226.43 33.72 C 225.66 32.13 224.11 31.15 222.70 30.18 C 216.15 26.16 209.96 21.04 202.12 19.84 C 202.25 20.63 202.52 22.20 202.65 22.99 C 202.37 22.60 201.81 21.83 201.53 21.44 C 199.75 21.59 197.76 22.03 196.28 20.72 C 196.29 19.91 196.29 18.30 196.30 17.49 C 195.64 18.14 194.33 19.44 193.67 20.10 C 195.06 25.31 200.33 27.43 204.74 29.52 C 206.55 30.18 207.30 32.08 208.48 33.44 C 210.57 36.29 214.35 37.46 216.11 40.59 C 217.50 43.77 218.36 47.16 219.46 50.45 C 220.31 51.31 221.15 52.17 221.99 53.04 C 215.98 50.31 210.25 46.23 203.47 45.94 C 202.99 47.08 202.51 48.22 202.04 49.37 C 199.53 49.65 197.11 49.12 195.09 47.55 C 195.14 51.40 198.86 52.91 201.86 54.13 C 207.34 56.21 213.32 58.11 217.24 62.74 C 219.81 65.40 220.75 69.10 222.80 72.12 C 223.80 73.98 225.43 75.76 225.29 78.01 C 225.00 83.20 227.27 87.99 228.77 92.83 C 230.34 96.10 230.33 100.49 233.70 102.58 C 236.51 104.83 240.67 105.01 242.82 108.11 C 249.11 115.55 253.81 124.17 257.16 133.30 C 268.10 132.48 279.06 131.87 289.97 130.60 C 292.91 130.31 295.81 129.66 298.53 128.50 C 295.59 124.87 290.88 122.30 289.49 117.65 C 284.51 114.72 281.41 109.60 277.51 105.48 C 274.18 102.12 271.31 98.35 267.99 94.98 C 264.42 91.46 262.44 86.68 258.81 83.20 C 256.69 81.16 255.46 78.48 254.20 75.87 C 250.12 67.02 243.67 59.48 239.87 50.47 C 236.24 42.71 235.39 34.01 232.04 26.14 C 230.46 24.00 228.13 22.60 226.09 20.94 C 222.21 18.08 218.78 14.49 214.24 12.64 C 218.13 12.87 220.66 16.17 223.59 18.29 C 224.02 18.29 224.86 18.28 225.28 18.27 C 224.37 15.23 221.16 11.97 217.64 12.50 C 216.64 11.17 215.71 9.78 214.99 8.29 C 216.24 9.23 217.13 11.68 218.83 11.52 C 218.98 9.53 217.00 7.56 214.99 8.29 C 214.36 8.38 213.10 8.55 212.47 8.64 M 204.26 10.39 C 203.33 12.41 205.88 14.72 207.65 13.10 C 207.65 11.60 205.37 10.88 204.26 10.39 M 200.86 20.20 C 200.73 18.65 198.62 18.27 197.63 17.29 C 195.83 18.77 199.08 21.79 200.86 20.20 M 86.11 24.29 C 86.84 24.75 88.30 25.68 89.03 26.15 C 90.70 23.85 93.96 21.98 93.69 18.81 C 93.27 18.39 92.42 17.55 91.99 17.13 C 89.38 18.93 87.56 21.52 86.11 24.29 M 103.64 22.18 C 104.53 22.33 106.32 22.63 107.21 22.78 C 108.53 21.63 109.90 20.44 111.60 19.88 C 110.40 21.23 109.12 22.61 107.49 23.45 C 105.52 24.44 102.90 23.57 101.90 21.58 C 96.46 23.86 93.73 29.58 88.82 32.60 C 85.74 34.56 82.19 36.48 80.82 40.11 C 77.18 48.27 74.21 57.08 67.81 63.59 C 65.81 65.37 63.93 67.29 61.99 69.14 C 63.84 65.77 67.47 63.92 69.59 60.74 C 74.47 54.29 77.07 46.56 80.39 39.27 C 81.70 35.91 84.96 34.00 87.83 32.12 C 91.30 30.10 93.74 26.83 96.63 24.13 C 96.67 22.05 97.49 18.97 94.45 18.45 C 94.64 22.14 91.71 24.67 89.09 26.72 C 88.04 26.09 86.99 25.46 85.95 24.84 C 82.42 27.77 81.09 32.26 78.98 36.16 C 77.84 38.54 75.56 40.12 74.37 42.48 C 72.02 46.54 71.30 51.25 69.35 55.49 C 68.07 58.90 65.26 61.37 63.37 64.43 C 59.61 69.49 57.82 75.60 54.97 81.15 C 53.02 85.57 49.83 89.32 48.22 93.91 C 46.87 97.63 44.61 101.05 41.38 103.40 C 37.67 106.06 34.16 109.07 31.45 112.77 C 28.79 116.47 25.15 119.33 22.58 123.11 C 24.19 124.13 25.59 125.41 26.36 127.19 C 25.14 131.04 22.90 134.78 23.27 138.94 C 23.79 142.36 27.04 144.45 30.09 145.44 C 35.81 147.36 41.92 148.28 47.94 147.69 C 50.47 146.46 50.98 143.41 52.48 141.26 C 55.87 135.88 58.54 130.09 61.70 124.58 C 63.77 120.46 68.90 120.08 72.49 117.89 C 79.82 111.97 83.44 102.98 86.18 94.24 C 86.70 92.49 85.80 89.96 87.77 88.94 C 91.10 86.88 92.71 83.20 93.81 79.59 C 96.35 78.36 99.07 77.17 100.84 74.86 C 103.37 71.37 107.26 69.30 110.17 66.18 C 113.25 63.03 119.58 63.26 119.99 57.82 C 118.48 58.23 117.08 59.09 115.52 59.29 C 113.73 58.89 112.21 57.53 111.96 55.66 C 109.46 56.47 106.64 56.77 104.61 58.58 C 100.00 62.56 94.29 64.87 89.15 68.03 C 87.02 69.89 85.53 72.46 82.88 73.72 C 84.44 72.31 86.01 70.91 87.33 69.26 C 89.10 67.06 92.07 66.16 93.58 63.69 C 96.29 60.63 97.57 56.74 99.02 53.01 C 101.03 50.10 104.39 48.41 106.45 45.51 C 109.07 40.54 115.22 38.99 118.06 34.20 C 119.22 32.23 118.86 29.77 117.30 28.13 C 117.09 28.95 116.68 30.57 116.47 31.39 C 115.07 32.04 113.66 32.68 112.27 33.34 C 111.54 32.66 110.92 31.88 110.31 31.10 C 106.83 32.91 103.26 34.68 100.43 37.45 C 96.63 41.07 91.09 42.47 88.02 46.90 C 83.36 54.70 78.28 62.34 72.05 68.99 C 74.20 65.21 77.59 62.33 79.82 58.60 C 82.00 55.05 84.61 51.77 86.48 48.03 C 88.20 44.74 91.37 42.56 94.51 40.77 C 98.16 38.83 100.46 35.26 103.61 32.70 C 106.58 30.31 109.81 28.15 112.27 25.19 C 112.98 23.45 113.14 21.30 112.46 19.52 C 111.15 18.31 109.34 17.83 107.82 16.95 C 106.61 18.80 103.58 19.71 103.64 22.18 M 194.13 26.90 C 201.06 31.43 203.50 39.66 207.94 46.20 C 211.94 46.84 215.18 49.58 218.94 50.94 C 218.19 47.28 217.06 43.63 215.43 40.26 C 212.49 36.80 207.73 35.17 205.86 30.75 C 202.47 29.10 198.81 27.82 195.90 25.32 C 195.31 25.85 194.72 26.37 194.13 26.90 M 111.36 31.44 C 112.33 31.46 114.27 31.49 115.24 31.50 C 115.79 30.21 116.24 28.89 116.61 27.53 C 114.51 27.76 111.68 29.16 111.36 31.44 M 196.01 44.77 C 194.40 47.62 198.87 49.11 201.02 48.71 C 201.53 47.93 202.56 46.37 203.07 45.59 C 200.72 45.44 198.36 44.36 196.01 44.77 M 112.28 55.74 C 113.66 58.99 117.32 58.18 120.01 57.46 C 119.75 56.57 119.21 54.79 118.95 53.89 C 116.69 54.36 114.46 54.97 112.28 55.74 M 212.57 59.47 C 214.85 65.74 214.89 72.40 215.38 78.97 C 215.74 87.04 211.20 94.21 210.29 102.08 C 210.14 104.31 208.66 106.10 207.56 107.94 C 206.94 113.56 207.26 119.36 205.56 124.80 C 204.83 127.20 201.24 127.44 201.13 130.13 C 199.90 132.71 202.36 134.59 203.61 136.53 C 208.27 142.78 212.79 149.33 218.99 154.18 C 222.00 152.15 224.99 150.08 227.72 147.67 C 229.16 146.64 231.04 144.83 232.88 146.08 C 236.81 148.31 240.73 150.60 244.93 152.28 C 250.27 153.75 255.24 150.60 260.30 149.41 C 258.24 142.74 258.12 135.50 254.88 129.21 C 251.03 121.26 246.70 113.38 240.88 106.69 C 237.76 104.68 233.50 104.08 231.21 100.82 C 230.24 99.03 229.78 97.01 229.28 95.05 C 228.25 92.32 226.38 89.75 226.54 86.72 C 224.02 84.14 220.95 82.18 218.62 79.42 C 218.72 77.10 218.74 74.77 218.68 72.45 C 219.44 71.66 220.20 70.87 220.96 70.07 C 218.88 66.01 216.14 62.36 212.57 59.47 M 219.50 79.31 C 221.18 80.96 222.83 82.64 224.53 84.27 C 224.27 81.35 225.37 78.07 223.86 75.39 C 222.96 73.97 222.07 72.56 221.18 71.14 C 217.92 72.33 219.80 76.70 219.50 79.31 M 83.44 103.82 C 81.59 108.75 78.35 112.97 74.79 116.79 C 71.75 120.13 66.63 120.20 63.37 123.27 C 60.35 127.53 58.29 132.35 55.62 136.81 C 53.81 139.98 51.70 142.98 50.22 146.32 C 49.28 148.74 47.09 150.45 46.34 152.95 C 46.15 154.79 46.21 156.65 46.18 158.50 C 48.23 159.68 50.63 159.92 52.85 160.68 C 57.60 161.40 61.50 157.90 66.02 157.03 C 69.03 157.85 71.73 159.77 74.95 159.80 C 76.11 158.16 77.59 156.79 79.13 155.51 C 83.43 155.40 87.74 156.13 92.02 155.64 C 97.38 153.05 102.29 149.38 108.20 148.07 C 109.01 145.06 109.33 141.94 109.14 138.82 C 107.95 139.89 106.84 141.05 105.77 142.24 C 104.80 141.83 103.84 141.43 102.88 141.02 C 100.58 136.99 100.33 132.27 98.90 127.93 C 95.59 116.48 89.87 105.78 87.39 94.08 C 85.58 97.11 84.99 100.67 83.44 103.82 M 17.24 118.86 C 18.43 120.80 20.39 121.96 22.35 123.00 C 23.43 121.31 24.61 119.69 25.81 118.09 C 23.01 116.67 19.67 116.79 17.24 118.86 M 289.72 117.01 C 290.92 121.90 295.94 124.45 298.79 128.37 C 301.81 125.82 306.45 124.00 307.44 119.85 C 301.70 118.03 295.63 117.88 289.72 117.01 M 200.37 133.53 C 199.95 139.18 194.68 142.70 193.48 148.01 C 193.32 153.29 192.83 158.64 193.48 163.89 C 196.13 168.01 199.20 172.27 203.78 174.37 C 205.61 175.28 207.58 175.88 209.50 176.55 C 210.67 169.96 213.59 163.90 215.93 157.69 C 216.32 156.31 217.52 154.37 216.02 153.23 C 210.03 147.30 205.62 140.08 200.37 133.53 M 109.75 141.01 C 109.87 147.18 107.01 152.88 105.51 158.76 C 105.43 161.51 104.75 164.37 105.60 167.06 C 112.36 179.24 124.62 188.34 138.51 190.38 C 139.23 184.85 138.28 179.34 137.60 173.87 C 137.28 171.73 136.93 169.33 135.04 167.97 C 129.06 162.93 122.57 158.48 116.72 153.26 C 112.05 148.90 112.56 141.92 111.11 136.17 C 108.95 136.77 110.03 139.42 109.75 141.01 Z" />
<path fill="#000000" opacity="1.00" d=" M 212.18 8.97 C 212.25 8.89 212.40 8.72 212.47 8.64 C 212.40 8.72 212.25 8.89 212.18 8.97 Z" />
<path fill="#ffffff" opacity="1.00" d=" M 212.47 8.64 C 213.10 8.55 214.36 8.38 214.99 8.29 C 215.71 9.78 216.64 11.17 217.64 12.50 C 221.16 11.97 224.37 15.23 225.28 18.27 C 224.86 18.28 224.02 18.29 223.59 18.29 C 220.66 16.17 218.13 12.87 214.24 12.64 C 213.74 12.58 212.76 12.47 212.26 12.41 C 212.21 11.26 212.19 10.12 212.18 8.97 C 212.25 8.89 212.40 8.72 212.47 8.64 Z" />
<path fill="#ffffff" opacity="1.00" d=" M 214.99 8.29 C 217.00 7.56 218.98 9.53 218.83 11.52 C 217.13 11.68 216.24 9.23 214.99 8.29 Z" />
<path fill="#ffffff" opacity="1.00" d=" M 204.26 10.39 C 205.37 10.88 207.65 11.60 207.65 13.10 C 205.88 14.72 203.33 12.41 204.26 10.39 Z" />
<path fill="#ffffff" opacity="1.00" d=" M 201.04 12.73 C 201.69 11.99 202.99 10.52 203.65 9.78 C 203.53 10.80 203.29 12.83 203.17 13.85 C 204.29 14.20 205.54 15.30 206.73 14.62 C 209.07 13.42 211.54 12.42 214.24 12.64 C 218.78 14.49 222.21 18.08 226.09 20.94 C 228.13 22.60 230.46 24.00 232.04 26.14 C 235.39 34.01 236.24 42.71 239.87 50.47 C 243.67 59.48 250.12 67.02 254.20 75.87 C 255.46 78.48 256.69 81.16 258.81 83.20 C 262.44 86.68 264.42 91.46 267.99 94.98 C 271.31 98.35 274.18 102.12 277.51 105.48 C 281.41 109.60 284.51 114.72 289.49 117.65 C 290.88 122.30 295.59 124.87 298.53 128.50 C 295.81 129.66 292.91 130.31 289.97 130.60 C 279.06 131.87 268.10 132.48 257.16 133.30 C 253.81 124.17 249.11 115.55 242.82 108.11 C 240.67 105.01 236.51 104.83 233.70 102.58 C 230.33 100.49 230.34 96.10 228.77 92.83 C 227.27 87.99 225.00 83.20 225.29 78.01 C 225.43 75.76 223.80 73.98 222.80 72.12 C 220.75 69.10 219.81 65.40 217.24 62.74 C 213.32 58.11 207.34 56.21 201.86 54.13 C 198.86 52.91 195.14 51.40 195.09 47.55 C 197.11 49.12 199.53 49.65 202.04 49.37 C 202.51 48.22 202.99 47.08 203.47 45.94 C 210.25 46.23 215.98 50.31 221.99 53.04 C 221.15 52.17 220.31 51.31 219.46 50.45 C 218.36 47.16 217.50 43.77 216.11 40.59 C 214.35 37.46 210.57 36.29 208.48 33.44 C 207.30 32.08 206.55 30.18 204.74 29.52 C 200.33 27.43 195.06 25.31 193.67 20.10 C 194.33 19.44 195.64 18.14 196.30 17.49 C 196.29 18.30 196.29 19.91 196.28 20.72 C 197.76 22.03 199.75 21.59 201.53 21.44 C 201.81 21.83 202.37 22.60 202.65 22.99 C 202.52 22.20 202.25 20.63 202.12 19.84 C 209.96 21.04 216.15 26.16 222.70 30.18 C 224.11 31.15 225.66 32.13 226.43 33.72 C 229.17 39.14 230.98 44.99 233.88 50.32 C 235.87 52.79 238.52 54.63 240.84 56.78 C 238.84 53.53 234.94 51.94 233.39 48.39 C 231.33 44.00 229.54 39.50 227.75 34.99 C 227.14 33.31 226.15 31.73 224.66 30.69 C 217.74 25.83 210.65 21.02 202.55 18.35 C 202.04 16.48 201.44 14.63 201.04 12.73 Z" />
<path fill="#ffffff" opacity="1.00" d=" M 200.86 20.20 C 199.08 21.79 195.83 18.77 197.63 17.29 C 198.62 18.27 200.73 18.65 200.86 20.20 Z" />
<path fill="#ffffff" opacity="1.00" d=" M 86.11 24.29 C 87.56 21.52 89.38 18.93 91.99 17.13 C 92.42 17.55 93.27 18.39 93.69 18.81 C 93.96 21.98 90.70 23.85 89.03 26.15 C 88.30 25.68 86.84 24.75 86.11 24.29 Z" />
<path fill="#ffffff" opacity="1.00" d=" M 103.64 22.18 C 103.58 19.71 106.61 18.80 107.82 16.95 C 109.34 17.83 111.15 18.31 112.46 19.52 C 113.14 21.30 112.98 23.45 112.27 25.19 C 109.81 28.15 106.58 30.31 103.61 32.70 C 100.46 35.26 98.16 38.83 94.51 40.77 C 91.37 42.56 88.20 44.74 86.48 48.03 C 84.61 51.77 82.00 55.05 79.82 58.60 C 77.59 62.33 74.20 65.21 72.05 68.99 C 78.28 62.34 83.36 54.70 88.02 46.90 C 91.09 42.47 96.63 41.07 100.43 37.45 C 103.26 34.68 106.83 32.91 110.31 31.10 C 110.92 31.88 111.54 32.66 112.27 33.34 C 113.66 32.68 115.07 32.04 116.47 31.39 C 116.68 30.57 117.09 28.95 117.30 28.13 C 118.86 29.77 119.22 32.23 118.06 34.20 C 115.22 38.99 109.07 40.54 106.45 45.51 C 104.39 48.41 101.03 50.10 99.02 53.01 C 97.57 56.74 96.29 60.63 93.58 63.69 C 92.07 66.16 89.10 67.06 87.33 69.26 C 86.01 70.91 84.44 72.31 82.88 73.72 C 85.53 72.46 87.02 69.89 89.15 68.03 C 94.29 64.87 100.00 62.56 104.61 58.58 C 106.64 56.77 109.46 56.47 111.96 55.66 C 112.21 57.53 113.73 58.89 115.52 59.29 C 117.08 59.09 118.48 58.23 119.99 57.82 C 119.58 63.26 113.25 63.03 110.17 66.18 C 107.26 69.30 103.37 71.37 100.84 74.86 C 99.07 77.17 96.35 78.36 93.81 79.59 C 92.71 83.20 91.10 86.88 87.77 88.94 C 85.80 89.96 86.70 92.49 86.18 94.24 C 83.44 102.98 79.82 111.97 72.49 117.89 C 68.90 120.08 63.77 120.46 61.70 124.58 C 58.54 130.09 55.87 135.88 52.48 141.26 C 50.98 143.41 50.47 146.46 47.94 147.69 C 41.92 148.28 35.81 147.36 30.09 145.44 C 27.04 144.45 23.79 142.36 23.27 138.94 C 22.90 134.78 25.14 131.04 26.36 127.19 C 25.59 125.41 24.19 124.13 22.58 123.11 C 25.15 119.33 28.79 116.47 31.45 112.77 C 34.16 109.07 37.67 106.06 41.38 103.40 C 44.61 101.05 46.87 97.63 48.22 93.91 C 49.83 89.32 53.02 85.57 54.97 81.15 C 57.82 75.60 59.61 69.49 63.37 64.43 C 65.26 61.37 68.07 58.90 69.35 55.49 C 71.30 51.25 72.02 46.54 74.37 42.48 C 75.56 40.12 77.84 38.54 78.98 36.16 C 81.09 32.26 82.42 27.77 85.95 24.84 C 86.99 25.46 88.04 26.09 89.09 26.72 C 91.71 24.67 94.64 22.14 94.45 18.45 C 97.49 18.97 96.67 22.05 96.63 24.13 C 93.74 26.83 91.30 30.10 87.83 32.12 C 84.96 34.00 81.70 35.91 80.39 39.27 C 77.07 46.56 74.47 54.29 69.59 60.74 C 67.47 63.92 63.84 65.77 61.99 69.14 C 63.93 67.29 65.81 65.37 67.81 63.59 C 74.21 57.08 77.18 48.27 80.82 40.11 C 82.19 36.48 85.74 34.56 88.82 32.60 C 93.73 29.58 96.46 23.86 101.90 21.58 C 102.90 23.57 105.52 24.44 107.49 23.45 C 109.12 22.61 110.40 21.23 111.60 19.88 C 109.90 20.44 108.53 21.63 107.21 22.78 C 106.32 22.63 104.53 22.33 103.64 22.18 Z" />
<path fill="#ffffff" opacity="1.00" d=" M 194.13 26.90 C 194.72 26.37 195.31 25.85 195.90 25.32 C 198.81 27.82 202.47 29.10 205.86 30.75 C 207.73 35.17 212.49 36.80 215.43 40.26 C 217.06 43.63 218.19 47.28 218.94 50.94 C 215.18 49.58 211.94 46.84 207.94 46.20 C 203.50 39.66 201.06 31.43 194.13 26.90 Z" />
<path fill="#ffffff" opacity="1.00" d=" M 111.36 31.44 C 111.68 29.16 114.51 27.76 116.61 27.53 C 116.24 28.89 115.79 30.21 115.24 31.50 C 114.27 31.49 112.33 31.46 111.36 31.44 Z" />
<path fill="#ffffff" opacity="1.00" d=" M 196.01 44.77 C 198.36 44.36 200.72 45.44 203.07 45.59 C 202.56 46.37 201.53 47.93 201.02 48.71 C 198.87 49.11 194.40 47.62 196.01 44.77 Z" />
<path fill="#ffffff" opacity="1.00" d=" M 128.70 53.05 C 130.53 53.58 132.55 53.71 134.20 54.72 C 135.42 57.56 136.55 60.52 139.11 62.45 C 139.48 62.42 140.24 62.34 140.62 62.31 C 144.42 63.87 148.97 64.03 151.86 67.32 C 153.97 67.53 155.64 68.85 157.28 70.08 C 157.46 72.81 158.37 75.45 158.49 78.19 C 157.15 79.94 155.95 82.02 153.88 82.99 C 152.68 82.35 152.02 80.97 151.70 79.71 C 152.34 78.93 153.62 77.38 154.25 76.60 C 152.43 75.88 150.54 74.91 148.53 75.38 C 143.62 76.45 139.78 72.11 135.06 71.66 C 132.57 72.78 132.53 76.23 132.02 78.58 C 136.97 79.75 142.62 78.95 147.02 81.76 C 148.11 81.37 150.29 80.61 151.38 80.23 C 151.32 80.95 151.21 82.38 151.15 83.10 C 152.19 83.27 153.23 83.46 154.27 83.65 C 156.70 84.99 158.19 87.62 159.49 89.99 C 159.28 92.44 157.71 94.65 155.88 96.21 C 156.48 96.53 157.08 96.84 157.67 97.17 C 156.71 94.24 160.98 92.55 160.48 89.61 C 159.29 87.12 157.10 85.36 154.98 83.70 C 156.60 82.01 158.14 80.24 159.62 78.43 C 159.02 75.95 158.54 73.45 158.39 70.91 C 159.73 71.83 161.06 72.78 162.38 73.73 C 163.16 72.92 163.94 72.12 164.74 71.33 C 164.33 70.67 163.50 69.35 163.09 68.68 C 163.95 69.24 164.77 69.84 165.57 70.48 C 166.03 73.05 165.26 75.67 164.45 78.10 C 165.37 79.90 166.52 81.57 167.82 83.13 C 167.22 83.62 166.62 84.10 166.02 84.59 C 163.79 83.00 161.08 83.56 158.69 84.40 C 161.66 84.70 164.75 84.58 167.51 85.89 C 167.59 85.45 167.76 84.57 167.85 84.12 L 170.24 84.71 C 169.20 86.44 168.20 88.20 167.19 89.95 C 170.31 92.24 172.69 95.29 175.21 98.17 C 173.67 95.04 171.33 92.45 169.10 89.82 C 168.80 86.23 171.57 83.79 174.15 81.83 C 172.39 82.50 170.66 83.23 168.93 83.94 C 166.10 80.71 165.91 76.53 166.35 72.46 C 167.27 72.48 169.12 72.50 170.04 72.52 C 170.93 73.41 171.82 74.30 172.71 75.20 C 172.56 74.58 172.27 73.36 172.12 72.75 C 173.70 73.47 175.28 74.19 176.89 74.86 C 176.91 75.45 176.93 76.05 176.96 76.65 C 175.96 76.76 173.97 76.99 172.97 77.11 C 173.26 78.64 173.56 80.17 173.87 81.70 C 178.29 81.49 182.85 80.44 187.18 81.83 C 190.12 82.84 192.48 84.98 195.32 86.20 C 193.01 83.54 189.83 81.96 186.92 80.09 C 189.02 79.94 191.13 79.88 193.20 79.49 C 195.19 77.30 192.63 74.75 191.50 72.86 C 187.24 74.60 182.97 76.44 178.37 77.06 C 178.50 76.44 178.76 75.21 178.89 74.59 C 176.11 75.33 174.50 72.07 173.72 69.99 C 176.27 71.23 178.79 72.56 181.34 73.82 C 181.55 72.23 181.72 70.51 183.68 70.29 C 183.61 69.07 183.56 67.85 183.52 66.63 C 187.42 67.77 190.60 70.53 194.58 71.53 C 194.04 70.76 192.95 69.21 192.41 68.44 C 197.39 69.03 198.04 74.29 199.84 77.95 C 203.45 85.45 202.64 93.94 202.79 102.00 C 202.69 106.26 203.23 110.61 202.12 114.78 C 202.42 115.07 203.01 115.63 203.30 115.91 C 203.58 114.04 203.85 112.17 204.12 110.30 C 205.15 109.55 206.18 108.80 207.22 108.05 C 206.83 112.05 205.32 115.93 205.68 119.98 C 205.98 123.08 204.59 126.40 201.80 127.94 C 201.96 126.54 202.29 123.72 202.45 122.31 C 202.04 122.51 201.22 122.90 200.81 123.10 C 200.76 129.22 199.66 135.70 196.03 140.79 C 193.47 144.67 191.05 148.65 188.94 152.80 C 186.13 158.38 181.61 162.84 177.10 167.06 C 175.13 168.98 172.67 170.21 170.25 171.45 C 160.55 171.95 151.53 167.59 142.00 166.59 C 138.01 166.44 135.20 163.41 132.10 161.34 C 134.17 163.69 136.51 166.01 139.52 167.10 C 142.67 167.90 145.90 168.38 149.12 168.79 C 153.47 170.51 158.12 171.17 162.72 171.87 C 165.44 172.40 168.42 173.07 171.07 171.85 C 176.78 169.42 181.08 164.66 185.17 160.14 C 188.51 156.57 190.38 152.01 192.89 147.89 C 192.65 151.93 192.34 155.99 192.64 160.04 C 192.63 161.94 193.14 164.01 192.11 165.75 C 188.75 172.05 183.28 177.58 176.27 179.58 C 172.65 180.50 168.94 181.55 165.16 181.12 C 164.99 181.47 164.66 182.18 164.49 182.53 C 168.93 182.19 173.41 181.67 177.69 180.39 C 183.06 178.47 187.64 174.51 190.54 169.62 C 190.76 170.29 191.20 171.64 191.41 172.32 C 191.92 170.06 192.60 167.84 193.54 165.73 C 196.43 169.25 199.24 173.13 203.38 175.27 C 206.97 177.05 210.85 178.12 214.64 179.40 C 214.57 186.33 215.35 193.74 211.59 199.96 C 214.04 197.71 214.47 194.31 215.12 191.23 C 216.09 187.09 215.66 182.81 215.59 178.60 C 213.82 177.94 212.01 177.38 210.17 176.95 C 211.54 169.23 215.59 162.37 218.00 154.99 C 223.27 153.16 226.78 148.45 232.01 146.63 C 236.50 149.39 241.15 152.01 246.17 153.67 C 251.11 154.29 255.57 151.31 260.18 150.01 C 261.66 156.51 263.31 162.98 265.14 169.39 C 266.22 172.71 266.89 176.27 268.94 179.18 C 266.45 169.07 263.26 159.12 261.01 148.94 C 260.10 143.91 258.96 138.93 257.77 133.96 C 269.77 132.93 281.86 132.92 293.81 131.34 C 299.38 130.27 303.81 126.26 307.60 122.28 C 307.79 124.19 306.84 126.41 307.92 128.18 C 311.53 134.48 315.87 140.31 320.00 146.27 L 320.00 203.00 L 253.94 203.00 C 248.70 189.55 245.44 175.40 240.40 161.90 C 244.34 175.72 248.17 189.61 253.47 203.00 L 0.00 203.00 L 0.00 141.88 C 4.17 138.13 9.24 135.18 12.43 130.48 C 13.38 126.82 14.54 123.18 16.81 120.10 C 18.53 121.75 20.45 123.18 22.40 124.56 C 23.44 125.41 25.12 126.37 24.67 128.00 C 24.15 131.67 21.79 134.91 21.74 138.69 C 22.83 142.97 26.87 145.92 31.03 146.88 C 36.72 148.24 42.67 149.32 48.50 148.11 C 47.33 150.17 45.36 152.02 45.26 154.52 C 44.85 161.33 46.64 168.13 45.52 174.91 C 44.58 180.65 44.16 186.64 41.65 191.98 C 42.01 191.80 42.71 191.46 43.07 191.29 C 44.79 183.96 46.79 176.62 46.99 169.04 C 46.75 165.83 46.35 162.64 46.29 159.43 C 49.15 160.30 51.96 161.73 55.03 161.55 C 59.26 161.49 62.75 158.00 67.07 158.54 C 73.13 159.77 78.19 163.44 83.11 166.98 C 80.83 164.16 77.64 162.34 74.90 160.03 C 76.50 158.73 78.03 157.22 79.99 156.45 C 84.21 156.36 88.46 157.07 92.67 156.49 C 97.55 153.85 102.07 150.38 107.54 148.98 C 105.88 154.97 103.14 161.21 104.70 167.49 C 112.11 181.30 127.10 191.11 142.89 191.46 C 142.01 193.96 141.22 196.52 141.18 199.20 C 142.16 196.58 142.72 193.83 143.39 191.12 C 142.04 190.85 140.69 190.58 139.34 190.32 C 139.58 187.61 139.73 184.89 139.79 182.18 C 143.86 182.66 147.91 183.40 152.03 183.28 C 155.84 183.34 159.62 182.49 163.44 182.88 C 162.88 182.44 162.33 182.00 161.78 181.57 C 154.49 182.95 147.02 182.31 139.70 181.53 C 139.08 177.47 138.57 173.37 137.41 169.43 C 135.45 166.78 132.55 165.06 130.05 162.96 C 125.87 159.46 121.62 156.03 117.48 152.48 C 114.31 150.00 113.82 145.74 112.90 142.10 C 112.25 137.84 111.09 133.54 111.79 129.21 C 110.82 130.80 109.22 132.38 107.18 131.63 C 103.45 130.24 100.59 127.00 99.27 123.30 C 97.01 118.23 96.48 112.61 96.58 107.12 C 98.86 107.19 99.14 109.81 100.18 111.31 C 100.30 109.80 100.44 108.30 100.59 106.79 C 101.55 107.91 102.51 109.04 103.45 110.17 C 103.61 109.53 103.92 108.25 104.08 107.60 C 105.71 108.74 106.65 110.48 107.56 112.20 C 106.48 115.00 105.98 117.98 107.22 120.84 C 105.72 120.22 104.23 119.61 102.73 119.00 C 101.94 116.57 100.90 114.23 99.57 112.05 C 100.38 114.39 101.07 116.79 101.96 119.11 C 103.52 120.71 105.87 121.12 107.87 121.96 C 107.45 119.00 107.18 116.02 107.64 113.06 L 109.64 113.56 C 108.05 108.53 107.77 103.06 109.04 97.92 C 109.83 95.00 109.86 91.96 109.53 88.97 C 110.93 86.06 111.84 82.95 113.10 79.98 C 115.28 75.76 119.02 72.65 121.63 68.73 C 124.32 64.75 122.78 59.70 122.50 55.28 C 123.46 59.87 124.76 64.62 128.76 67.55 C 129.08 68.72 129.40 69.90 129.74 71.07 C 130.16 68.48 129.71 65.92 128.54 63.58 C 126.74 60.25 127.94 56.48 128.70 53.05 M 122.24 93.85 C 124.18 88.63 126.71 83.65 129.57 78.87 C 125.76 83.01 123.40 88.38 122.24 93.85 M 195.44 79.01 C 197.17 84.27 198.07 89.77 199.35 95.11 C 199.16 89.58 198.00 83.94 195.44 79.01 M 131.90 88.51 C 135.15 89.44 137.50 86.47 140.06 85.05 C 141.86 83.59 144.39 83.23 145.90 81.44 C 140.37 82.13 137.13 87.19 131.90 88.51 M 180.11 84.69 C 177.29 85.89 174.22 86.92 171.78 88.80 C 174.00 88.06 176.79 87.88 178.17 85.74 C 179.90 85.79 181.77 85.88 183.14 84.60 C 186.58 85.52 190.11 86.59 192.53 89.38 L 191.55 90.34 C 192.05 90.08 193.06 89.57 193.56 89.32 C 190.19 85.71 185.12 82.86 180.11 84.69 M 141.39 86.39 C 138.70 87.56 136.15 89.01 133.63 90.50 C 133.81 92.24 132.62 93.56 131.81 94.97 C 133.15 93.87 134.48 92.75 135.78 91.60 C 137.48 91.39 139.21 91.24 140.92 91.53 C 144.95 92.10 148.98 91.12 153.02 91.17 C 150.71 90.03 148.48 88.73 146.11 87.72 C 142.41 87.32 139.30 89.78 136.02 91.06 C 136.75 89.07 139.23 88.83 140.85 87.84 C 144.76 85.72 149.18 87.62 153.08 88.78 C 149.94 85.98 145.33 85.88 141.39 86.39 M 174.26 89.98 C 178.78 91.08 183.42 90.77 187.99 90.16 C 190.58 89.44 191.51 92.45 193.68 93.09 C 192.99 92.15 192.27 91.24 191.55 90.34 C 189.65 87.00 185.29 87.25 182.00 86.43 C 179.17 86.89 176.51 88.21 174.26 89.98 M 175.07 92.96 C 178.59 93.96 182.01 96.20 185.82 95.29 C 186.93 94.92 188.70 94.77 188.71 93.26 C 187.91 93.77 187.12 94.30 186.34 94.83 C 182.38 95.42 178.90 92.76 175.07 92.96 M 148.13 94.34 C 145.14 96.08 141.57 95.80 138.25 96.04 C 139.06 96.11 139.87 96.16 140.69 96.22 C 140.76 96.57 140.92 97.28 141.00 97.63 L 141.32 96.14 C 143.98 97.02 146.71 96.65 148.70 94.60 C 150.42 94.58 152.18 94.56 153.82 93.95 C 151.93 93.79 149.85 93.26 148.13 94.34 M 143.67 105.00 C 142.81 105.26 142.28 105.85 142.09 106.75 C 142.46 106.43 143.19 105.77 143.56 105.45 C 147.75 105.08 150.99 102.06 154.09 99.51 C 150.68 101.46 147.33 103.55 143.67 105.00 M 176.40 100.91 C 177.32 103.61 179.21 105.88 181.85 107.04 C 180.06 104.97 178.22 102.95 176.40 100.91 M 172.22 101.91 C 173.66 105.87 175.33 109.88 174.44 114.19 C 174.89 112.86 175.33 111.53 175.74 110.19 C 176.63 111.36 177.51 112.55 178.38 113.75 C 178.83 113.33 179.72 112.49 180.16 112.07 C 180.67 114.90 179.26 118.23 176.93 119.83 C 175.49 118.81 174.35 117.44 173.08 116.23 C 170.66 117.72 168.63 119.95 165.86 120.80 C 163.29 120.73 162.29 117.95 160.48 116.57 C 158.04 115.90 156.16 117.99 154.95 119.80 C 153.93 118.97 152.96 118.08 152.05 117.14 C 152.17 115.60 152.28 114.06 152.37 112.53 C 154.03 111.61 155.63 109.69 157.69 110.72 C 155.90 109.14 156.72 106.63 156.48 104.55 C 156.77 104.21 157.36 103.52 157.66 103.18 C 156.97 103.61 156.28 104.05 155.59 104.49 C 155.56 106.36 155.54 108.22 155.53 110.09 C 151.42 112.01 146.97 116.20 148.07 121.15 C 148.27 118.25 149.83 115.84 151.70 113.69 C 150.74 116.46 152.12 118.50 154.01 120.21 C 156.41 119.47 158.87 118.96 161.32 118.42 C 162.16 119.35 163.00 120.29 163.82 121.24 C 165.03 121.26 166.24 121.28 167.45 121.31 C 168.61 120.32 169.75 119.33 170.87 118.30 C 172.90 118.01 174.82 118.25 176.11 120.01 C 176.44 120.06 177.10 120.17 177.43 120.22 C 179.15 118.97 179.87 116.98 180.67 115.10 C 180.99 115.87 181.63 117.41 181.95 118.18 C 181.66 115.74 180.74 113.44 179.89 111.15 C 179.51 111.58 178.76 112.45 178.38 112.88 C 175.14 109.90 174.82 105.29 172.22 101.91 M 202.07 116.29 C 201.74 118.13 201.66 119.97 201.80 121.81 C 203.89 121.83 202.80 117.73 202.67 116.21 C 202.52 116.23 202.22 116.27 202.07 116.29 M 181.18 123.24 C 182.88 126.12 183.98 129.29 185.50 132.26 C 184.89 128.94 183.70 125.60 181.18 123.24 M 146.62 134.93 C 148.03 134.31 148.40 132.72 149.09 131.50 C 150.33 128.76 151.95 126.22 153.83 123.88 C 149.77 126.21 148.70 131.08 146.62 134.93 M 154.62 137.57 C 153.96 137.71 152.62 137.98 151.95 138.12 C 156.10 141.49 160.57 144.89 165.95 145.89 C 170.94 145.18 176.26 142.13 177.69 136.99 C 176.23 133.93 172.75 132.20 170.28 129.92 C 169.16 130.55 168.03 131.14 166.88 131.69 C 164.86 131.72 162.98 130.73 161.06 130.18 C 158.60 132.20 154.48 133.83 154.62 137.57 M 157.79 156.49 C 160.50 155.24 163.06 153.64 165.94 152.77 C 169.32 153.10 172.27 155.07 175.25 156.57 C 173.31 153.93 169.91 152.94 167.00 151.75 C 163.51 152.00 160.35 154.20 157.79 156.49 M 190.29 172.54 C 187.66 181.50 185.08 190.54 184.30 199.88 C 185.45 197.71 185.67 195.21 186.30 192.87 C 187.80 185.84 189.71 178.91 191.22 171.89 L 190.29 172.54 Z" />
<path fill="#ffffff" opacity="1.00" d=" M 112.28 55.74 C 114.46 54.97 116.69 54.36 118.95 53.89 C 119.21 54.79 119.75 56.57 120.01 57.46 C 117.32 58.18 113.66 58.99 112.28 55.74 Z" />
<path fill="#ffffff" opacity="1.00" d=" M 212.57 59.47 C 216.14 62.36 218.88 66.01 220.96 70.07 C 220.20 70.87 219.44 71.66 218.68 72.45 C 218.74 74.77 218.72 77.10 218.62 79.42 C 220.95 82.18 224.02 84.14 226.54 86.72 C 226.38 89.75 228.25 92.32 229.28 95.05 C 229.78 97.01 230.24 99.03 231.21 100.82 C 233.50 104.08 237.76 104.68 240.88 106.69 C 246.70 113.38 251.03 121.26 254.88 129.21 C 258.12 135.50 258.24 142.74 260.30 149.41 C 255.24 150.60 250.27 153.75 244.93 152.28 C 240.73 150.60 236.81 148.31 232.88 146.08 C 231.04 144.83 229.16 146.64 227.72 147.67 C 224.99 150.08 222.00 152.15 218.99 154.18 C 212.79 149.33 208.27 142.78 203.61 136.53 C 202.36 134.59 199.90 132.71 201.13 130.13 C 201.24 127.44 204.83 127.20 205.56 124.80 C 207.26 119.36 206.94 113.56 207.56 107.94 C 208.66 106.10 210.14 104.31 210.29 102.08 C 211.20 94.21 215.74 87.04 215.38 78.97 C 214.89 72.40 214.85 65.74 212.57 59.47 Z" />
<path fill="#ffffff" opacity="1.00" d=" M 219.50 79.31 C 219.80 76.70 217.92 72.33 221.18 71.14 C 222.07 72.56 222.96 73.97 223.86 75.39 C 225.37 78.07 224.27 81.35 224.53 84.27 C 222.83 82.64 221.18 80.96 219.50 79.31 Z" />
<path fill="#000000" opacity="1.00" d=" M 122.24 93.85 C 123.40 88.38 125.76 83.01 129.57 78.87 C 126.71 83.65 124.18 88.63 122.24 93.85 Z" />
<path fill="#000000" opacity="1.00" d=" M 195.44 79.01 C 198.00 83.94 199.16 89.58 199.35 95.11 C 198.07 89.77 197.17 84.27 195.44 79.01 Z" />
<path fill="#000000" opacity="1.00" d=" M 131.90 88.51 C 137.13 87.19 140.37 82.13 145.90 81.44 C 144.39 83.23 141.86 83.59 140.06 85.05 C 137.50 86.47 135.15 89.44 131.90 88.51 Z" />
<path fill="#000000" opacity="1.00" d=" M 180.11 84.69 C 185.12 82.86 190.19 85.71 193.56 89.32 C 193.06 89.57 192.05 90.08 191.55 90.34 L 192.53 89.38 C 190.11 86.59 186.58 85.52 183.14 84.60 C 181.77 85.88 179.90 85.79 178.17 85.74 C 176.79 87.88 174.00 88.06 171.78 88.80 C 174.22 86.92 177.29 85.89 180.11 84.69 Z" />
<path fill="#000000" opacity="1.00" d=" M 141.39 86.39 C 145.33 85.88 149.94 85.98 153.08 88.78 C 149.18 87.62 144.76 85.72 140.85 87.84 C 139.23 88.83 136.75 89.07 136.02 91.06 C 139.30 89.78 142.41 87.32 146.11 87.72 C 148.48 88.73 150.71 90.03 153.02 91.17 C 148.98 91.12 144.95 92.10 140.92 91.53 C 139.21 91.24 137.48 91.39 135.78 91.60 C 134.48 92.75 133.15 93.87 131.81 94.97 C 132.62 93.56 133.81 92.24 133.63 90.50 C 136.15 89.01 138.70 87.56 141.39 86.39 M 145.91 90.05 C 146.28 91.14 148.70 91.46 148.86 90.12 C 148.46 88.98 146.08 88.59 145.91 90.05 Z" />
<path fill="#000000" opacity="1.00" d=" M 174.26 89.98 C 176.51 88.21 179.17 86.89 182.00 86.43 C 185.29 87.25 189.65 87.00 191.55 90.34 C 192.27 91.24 192.99 92.15 193.68 93.09 C 191.51 92.45 190.58 89.44 187.99 90.16 C 183.42 90.77 178.78 91.08 174.26 89.98 M 178.37 88.33 C 176.59 88.59 177.11 91.36 178.91 90.45 C 180.73 90.18 180.16 87.33 178.37 88.33 Z" />
<path fill="#ffffff" opacity="1.00" d=" M 178.37 88.33 C 180.16 87.33 180.73 90.18 178.91 90.45 C 177.11 91.36 176.59 88.59 178.37 88.33 Z" />
<path fill="#ffffff" opacity="1.00" d=" M 145.91 90.05 C 146.08 88.59 148.46 88.98 148.86 90.12 C 148.70 91.46 146.28 91.14 145.91 90.05 Z" />
<path fill="#000000" opacity="1.00" d=" M 175.07 92.96 C 178.90 92.76 182.38 95.42 186.34 94.83 C 187.12 94.30 187.91 93.77 188.71 93.26 C 188.70 94.77 186.93 94.92 185.82 95.29 C 182.01 96.20 178.59 93.96 175.07 92.96 Z" />
<path fill="#000000" opacity="1.00" d=" M 148.13 94.34 C 149.85 93.26 151.93 93.79 153.82 93.95 C 152.18 94.56 150.42 94.58 148.70 94.60 C 146.71 96.65 143.98 97.02 141.32 96.14 L 141.00 97.63 C 140.92 97.28 140.76 96.57 140.69 96.22 C 139.87 96.16 139.06 96.11 138.25 96.04 C 141.57 95.80 145.14 96.08 148.13 94.34 Z" />
<path fill="#ffffff" opacity="1.00" d=" M 83.44 103.82 C 84.99 100.67 85.58 97.11 87.39 94.08 C 89.87 105.78 95.59 116.48 98.90 127.93 C 100.33 132.27 100.58 136.99 102.88 141.02 C 103.84 141.43 104.80 141.83 105.77 142.24 C 106.84 141.05 107.95 139.89 109.14 138.82 C 109.33 141.94 109.01 145.06 108.20 148.07 C 102.29 149.38 97.38 153.05 92.02 155.64 C 87.74 156.13 83.43 155.40 79.13 155.51 C 77.59 156.79 76.11 158.16 74.95 159.80 C 71.73 159.77 69.03 157.85 66.02 157.03 C 61.50 157.90 57.60 161.40 52.85 160.68 C 50.63 159.92 48.23 159.68 46.18 158.50 C 46.21 156.65 46.15 154.79 46.34 152.95 C 47.09 150.45 49.28 148.74 50.22 146.32 C 51.70 142.98 53.81 139.98 55.62 136.81 C 58.29 132.35 60.35 127.53 63.37 123.27 C 66.63 120.20 71.75 120.13 74.79 116.79 C 78.35 112.97 81.59 108.75 83.44 103.82 Z" />
<path fill="#000000" opacity="1.00" d=" M 143.67 105.00 C 147.33 103.55 150.68 101.46 154.09 99.51 C 150.99 102.06 147.75 105.08 143.56 105.45 C 143.19 105.77 142.46 106.43 142.09 106.75 C 142.28 105.85 142.81 105.26 143.67 105.00 Z" />
<path fill="#000000" opacity="1.00" d=" M 176.40 100.91 C 178.22 102.95 180.06 104.97 181.85 107.04 C 179.21 105.88 177.32 103.61 176.40 100.91 Z" />
<path fill="#000000" opacity="1.00" d=" M 172.22 101.91 C 174.82 105.29 175.14 109.90 178.38 112.88 C 178.76 112.45 179.51 111.58 179.89 111.15 C 180.74 113.44 181.66 115.74 181.95 118.18 C 181.63 117.41 180.99 115.87 180.67 115.10 C 179.87 116.98 179.15 118.97 177.43 120.22 C 177.10 120.17 176.44 120.06 176.11 120.01 C 174.82 118.25 172.90 118.01 170.87 118.30 C 169.75 119.33 168.61 120.32 167.45 121.31 C 166.24 121.28 165.03 121.26 163.82 121.24 C 163.00 120.29 162.16 119.35 161.32 118.42 C 158.87 118.96 156.41 119.47 154.01 120.21 C 152.12 118.50 150.74 116.46 151.70 113.69 C 149.83 115.84 148.27 118.25 148.07 121.15 C 146.97 116.20 151.42 112.01 155.53 110.09 C 155.54 108.22 155.56 106.36 155.59 104.49 C 156.28 104.05 156.97 103.61 157.66 103.18 C 157.36 103.52 156.77 104.21 156.48 104.55 C 156.72 106.63 155.90 109.14 157.69 110.72 C 155.63 109.69 154.03 111.61 152.37 112.53 C 152.28 114.06 152.17 115.60 152.05 117.14 C 152.96 118.08 153.93 118.97 154.95 119.80 C 156.16 117.99 158.04 115.90 160.48 116.57 C 162.29 117.95 163.29 120.73 165.86 120.80 C 168.63 119.95 170.66 117.72 173.08 116.23 C 174.35 117.44 175.49 118.81 176.93 119.83 C 179.26 118.23 180.67 114.90 180.16 112.07 C 179.72 112.49 178.83 113.33 178.38 113.75 C 177.51 112.55 176.63 111.36 175.74 110.19 C 175.33 111.53 174.89 112.86 174.44 114.19 C 175.33 109.88 173.66 105.87 172.22 101.91 Z" />
<path fill="#000000" opacity="1.00" d=" M 202.07 116.29 C 202.22 116.27 202.52 116.23 202.67 116.21 C 202.80 117.73 203.89 121.83 201.80 121.81 C 201.66 119.97 201.74 118.13 202.07 116.29 Z" />
<path fill="#ffffff" opacity="1.00" d=" M 17.24 118.86 C 19.67 116.79 23.01 116.67 25.81 118.09 C 24.61 119.69 23.43 121.31 22.35 123.00 C 20.39 121.96 18.43 120.80 17.24 118.86 Z" />
<path fill="#ffffff" opacity="1.00" d=" M 289.72 117.01 C 295.63 117.88 301.70 118.03 307.44 119.85 C 306.45 124.00 301.81 125.82 298.79 128.37 C 295.94 124.45 290.92 121.90 289.72 117.01 Z" />
<path fill="#000000" opacity="1.00" d=" M 181.18 123.24 C 183.70 125.60 184.89 128.94 185.50 132.26 C 183.98 129.29 182.88 126.12 181.18 123.24 Z" />
<path fill="#000000" opacity="1.00" d=" M 146.62 134.93 C 148.70 131.08 149.77 126.21 153.83 123.88 C 151.95 126.22 150.33 128.76 149.09 131.50 C 148.40 132.72 148.03 134.31 146.62 134.93 Z" />
<path fill="#000000" opacity="1.00" d=" M 154.62 137.57 C 154.48 133.83 158.60 132.20 161.06 130.18 C 162.98 130.73 164.86 131.72 166.88 131.69 C 168.03 131.14 169.16 130.55 170.28 129.92 C 172.75 132.20 176.23 133.93 177.69 136.99 C 176.26 142.13 170.94 145.18 165.95 145.89 C 160.57 144.89 156.10 141.49 151.95 138.12 C 152.62 137.98 153.96 137.71 154.62 137.57 M 154.66 138.13 C 157.35 137.94 159.71 136.71 162.13 135.67 C 163.76 135.76 165.38 136.14 167.02 135.88 C 170.60 135.11 173.77 137.84 177.41 137.50 C 175.84 134.52 172.77 132.82 170.13 130.93 C 169.05 131.58 167.94 132.18 166.80 132.73 C 164.79 132.57 162.91 131.67 160.96 131.21 C 158.39 133.01 155.12 134.66 154.66 138.13 M 153.72 138.79 C 158.40 142.18 164.67 147.00 170.56 143.65 C 173.03 142.40 175.77 140.85 176.73 138.09 C 171.55 136.38 166.32 138.85 161.13 137.41 C 158.66 137.88 156.25 138.67 153.72 138.79 Z" />
<path fill="#ffffff" opacity="1.00" d=" M 154.66 138.13 C 155.12 134.66 158.39 133.01 160.96 131.21 C 162.91 131.67 164.79 132.57 166.80 132.73 C 167.94 132.18 169.05 131.58 170.13 130.93 C 172.77 132.82 175.84 134.52 177.41 137.50 C 173.77 137.84 170.60 135.11 167.02 135.88 C 165.38 136.14 163.76 135.76 162.13 135.67 C 159.71 136.71 157.35 137.94 154.66 138.13 Z" />
<path fill="#ffffff" opacity="1.00" d=" M 200.37 133.53 C 205.62 140.08 210.03 147.30 216.02 153.23 C 217.52 154.37 216.32 156.31 215.93 157.69 C 213.59 163.90 210.67 169.96 209.50 176.55 C 207.58 175.88 205.61 175.28 203.78 174.37 C 199.20 172.27 196.13 168.01 193.48 163.89 C 192.83 158.64 193.32 153.29 193.48 148.01 C 194.68 142.70 199.95 139.18 200.37 133.53 Z" />
<path fill="#ffffff" opacity="1.00" d=" M 109.75 141.01 C 110.03 139.42 108.95 136.77 111.11 136.17 C 112.56 141.92 112.05 148.90 116.72 153.26 C 122.57 158.48 129.06 162.93 135.04 167.97 C 136.93 169.33 137.28 171.73 137.60 173.87 C 138.28 179.34 139.23 184.85 138.51 190.38 C 124.62 188.34 112.36 179.24 105.60 167.06 C 104.75 164.37 105.43 161.51 105.51 158.76 C 107.01 152.88 109.87 147.18 109.75 141.01 Z" />
<path fill="#ffffff" opacity="1.00" d=" M 153.72 138.79 C 156.25 138.67 158.66 137.88 161.13 137.41 C 166.32 138.85 171.55 136.38 176.73 138.09 C 175.77 140.85 173.03 142.40 170.56 143.65 C 164.67 147.00 158.40 142.18 153.72 138.79 Z" />
<path fill="#000000" opacity="1.00" d=" M 157.79 156.49 C 160.35 154.20 163.51 152.00 167.00 151.75 C 169.91 152.94 173.31 153.93 175.25 156.57 C 172.27 155.07 169.32 153.10 165.94 152.77 C 163.06 153.64 160.50 155.24 157.79 156.49 Z" />
<path fill="#000000" opacity="1.00" d=" M 240.40 161.90 C 245.44 175.40 248.70 189.55 253.94 203.00 L 253.47 203.00 C 248.17 189.61 244.34 175.72 240.40 161.90 Z" />
<path fill="#000000" opacity="1.00" d=" M 190.29 172.54 L 191.22 171.89 C 189.71 178.91 187.80 185.84 186.30 192.87 C 185.67 195.21 185.45 197.71 184.30 199.88 C 185.08 190.54 187.66 181.50 190.29 172.54 Z" />
</svg>
